<?xml version="1.0" standalone="no"?>
 <!DOCTYPE svg PUBLIC "-//W3C//DTD SVG 1.1//EN" 
 "http://www.w3.org/Graphics/SVG/1.1/DTD/svg11.dtd"> 
<svg
  xmlns:svg="http://www.w3.org/2000/svg"
  xmlns="http://www.w3.org/2000/svg"
  xmlns:xlink="http://www.w3.org/1999/xlink"
  version="1.1"
  width="297.0022mm" height="210.0072mm" viewBox="0.0000 0.0000 297.0022 210.0072">
<title>SVG Image created as brownberryKeeb-F_Cu.svg date 2025/04/23 13:31:38 </title>
  <desc>Image generated by PCBNEW </desc>
<g style="fill:#000000; fill-opacity:1.0000;stroke:#000000; stroke-opacity:1.0000;
stroke-linecap:round; stroke-linejoin:round;"
 transform="translate(0 0) scale(1 1)">
<path style="fill:#000000; fill-opacity:1.0000; stroke:none;fill-rule:evenodd;"
d="M 137.9893,123.1392
137.2393,123.1392
137.2393,122.1392
137.9893,122.1392
Z" /> 
<path style="fill:#000000; fill-opacity:1.0000; stroke:none;fill-rule:evenodd;"
d="M 137.9893,129.1392
137.2393,129.1392
137.2393,128.1392
137.9893,128.1392
Z" /> 
<path style="fill:#000000; fill-opacity:1.0000; stroke:none;fill-rule:evenodd;"
d="M 141.7393,123.1392
140.9893,123.1392
140.9893,122.1392
141.7393,122.1392
Z" /> 
<path style="fill:#000000; fill-opacity:1.0000; stroke:none;fill-rule:evenodd;"
d="M 141.7393,129.1392
140.9893,129.1392
140.9893,128.1392
141.7393,128.1392
Z" /> 
<path style="fill:#000000; fill-opacity:1.0000; stroke:none;fill-rule:evenodd;"
d="M 166.9893,112.2642
166.2393,112.2642
166.2393,111.2642
166.9893,111.2642
Z" /> 
<path style="fill:#000000; fill-opacity:1.0000; stroke:none;fill-rule:evenodd;"
d="M 166.9893,118.2642
166.2393,118.2642
166.2393,117.2642
166.9893,117.2642
Z" /> 
<path style="fill:#000000; fill-opacity:1.0000; stroke:none;fill-rule:evenodd;"
d="M 170.7393,112.2642
169.9893,112.2642
169.9893,111.2642
170.7393,111.2642
Z" /> 
<path style="fill:#000000; fill-opacity:1.0000; stroke:none;fill-rule:evenodd;"
d="M 170.7393,118.2642
169.9893,118.2642
169.9893,117.2642
170.7393,117.2642
Z" /> 
<path style="fill:#000000; fill-opacity:1.0000; stroke:none;fill-rule:evenodd;"
d="M 147.9893,122.8892
147.2393,122.8892
147.2393,121.8892
147.9893,121.8892
Z" /> 
<path style="fill:#000000; fill-opacity:1.0000; stroke:none;fill-rule:evenodd;"
d="M 147.9893,128.8892
147.2393,128.8892
147.2393,127.8892
147.9893,127.8892
Z" /> 
<path style="fill:#000000; fill-opacity:1.0000; stroke:none;fill-rule:evenodd;"
d="M 151.7393,122.8892
150.9893,122.8892
150.9893,121.8892
151.7393,121.8892
Z" /> 
<path style="fill:#000000; fill-opacity:1.0000; stroke:none;fill-rule:evenodd;"
d="M 151.7393,128.8892
150.9893,128.8892
150.9893,127.8892
151.7393,127.8892
Z" /> 
<path style="fill:#000000; fill-opacity:1.0000; stroke:none;fill-rule:evenodd;"
d="M 166.7393,93.1392
165.9893,93.1392
165.9893,92.1392
166.7393,92.1392
Z" /> 
<path style="fill:#000000; fill-opacity:1.0000; stroke:none;fill-rule:evenodd;"
d="M 166.7393,99.1392
165.9893,99.1392
165.9893,98.1392
166.7393,98.1392
Z" /> 
<path style="fill:#000000; fill-opacity:1.0000; stroke:none;fill-rule:evenodd;"
d="M 170.4893,93.1392
169.7393,93.1392
169.7393,92.1392
170.4893,92.1392
Z" /> 
<path style="fill:#000000; fill-opacity:1.0000; stroke:none;fill-rule:evenodd;"
d="M 170.4893,99.1392
169.7393,99.1392
169.7393,98.1392
170.4893,98.1392
Z" /> 
<path style="fill:#000000; fill-opacity:1.0000; stroke:none;fill-rule:evenodd;"
d="M 176.2393,93.0142
175.4893,93.0142
175.4893,92.0142
176.2393,92.0142
Z" /> 
<path style="fill:#000000; fill-opacity:1.0000; stroke:none;fill-rule:evenodd;"
d="M 176.2393,99.0142
175.4893,99.0142
175.4893,98.0142
176.2393,98.0142
Z" /> 
<path style="fill:#000000; fill-opacity:1.0000; stroke:none;fill-rule:evenodd;"
d="M 179.9893,93.0142
179.2393,93.0142
179.2393,92.0142
179.9893,92.0142
Z" /> 
<path style="fill:#000000; fill-opacity:1.0000; stroke:none;fill-rule:evenodd;"
d="M 179.9893,99.0142
179.2393,99.0142
179.2393,98.0142
179.9893,98.0142
Z" /> 
<path style="fill:#000000; fill-opacity:1.0000; stroke:none;fill-rule:evenodd;"
d="M 176.2393,102.1392
175.4893,102.1392
175.4893,101.1392
176.2393,101.1392
Z" /> 
<path style="fill:#000000; fill-opacity:1.0000; stroke:none;fill-rule:evenodd;"
d="M 176.2393,108.1392
175.4893,108.1392
175.4893,107.1392
176.2393,107.1392
Z" /> 
<path style="fill:#000000; fill-opacity:1.0000; stroke:none;fill-rule:evenodd;"
d="M 179.9893,102.1392
179.2393,102.1392
179.2393,101.1392
179.9893,101.1392
Z" /> 
<path style="fill:#000000; fill-opacity:1.0000; stroke:none;fill-rule:evenodd;"
d="M 179.9893,108.1392
179.2393,108.1392
179.2393,107.1392
179.9893,107.1392
Z" /> 
<path style="fill:#000000; fill-opacity:1.0000; stroke:none;fill-rule:evenodd;"
d="M 137.9893,112.5142
137.2393,112.5142
137.2393,111.5142
137.9893,111.5142
Z" /> 
<path style="fill:#000000; fill-opacity:1.0000; stroke:none;fill-rule:evenodd;"
d="M 137.9893,118.5142
137.2393,118.5142
137.2393,117.5142
137.9893,117.5142
Z" /> 
<path style="fill:#000000; fill-opacity:1.0000; stroke:none;fill-rule:evenodd;"
d="M 141.7393,112.5142
140.9893,112.5142
140.9893,111.5142
141.7393,111.5142
Z" /> 
<path style="fill:#000000; fill-opacity:1.0000; stroke:none;fill-rule:evenodd;"
d="M 141.7393,118.5142
140.9893,118.5142
140.9893,117.5142
141.7393,117.5142
Z" /> 
<path style="fill:#000000; fill-opacity:1.0000; stroke:none;fill-rule:evenodd;"
d="M 107.4893,93.5142
106.7393,93.5142
106.7393,92.5142
107.4893,92.5142
Z" /> 
<path style="fill:#000000; fill-opacity:1.0000; stroke:none;fill-rule:evenodd;"
d="M 107.4893,99.5142
106.7393,99.5142
106.7393,98.5142
107.4893,98.5142
Z" /> 
<path style="fill:#000000; fill-opacity:1.0000; stroke:none;fill-rule:evenodd;"
d="M 111.2393,93.5142
110.4893,93.5142
110.4893,92.5142
111.2393,92.5142
Z" /> 
<path style="fill:#000000; fill-opacity:1.0000; stroke:none;fill-rule:evenodd;"
d="M 111.2393,99.5142
110.4893,99.5142
110.4893,98.5142
111.2393,98.5142
Z" /> 
<path style="fill:#000000; fill-opacity:1.0000; stroke:none;fill-rule:evenodd;"
d="M 96.9893,113.2642
96.2393,113.2642
96.2393,112.2642
96.9893,112.2642
Z" /> 
<path style="fill:#000000; fill-opacity:1.0000; stroke:none;fill-rule:evenodd;"
d="M 96.9893,119.2642
96.2393,119.2642
96.2393,118.2642
96.9893,118.2642
Z" /> 
<path style="fill:#000000; fill-opacity:1.0000; stroke:none;fill-rule:evenodd;"
d="M 100.7393,113.2642
99.9893,113.2642
99.9893,112.2642
100.7393,112.2642
Z" /> 
<path style="fill:#000000; fill-opacity:1.0000; stroke:none;fill-rule:evenodd;"
d="M 100.7393,119.2642
99.9893,119.2642
99.9893,118.2642
100.7393,118.2642
Z" /> 
<path style="fill:#000000; fill-opacity:1.0000; stroke:none;fill-rule:evenodd;"
d="M 147.9893,112.3892
147.2393,112.3892
147.2393,111.3892
147.9893,111.3892
Z" /> 
<path style="fill:#000000; fill-opacity:1.0000; stroke:none;fill-rule:evenodd;"
d="M 147.9893,118.3892
147.2393,118.3892
147.2393,117.3892
147.9893,117.3892
Z" /> 
<path style="fill:#000000; fill-opacity:1.0000; stroke:none;fill-rule:evenodd;"
d="M 151.7393,112.3892
150.9893,112.3892
150.9893,111.3892
151.7393,111.3892
Z" /> 
<path style="fill:#000000; fill-opacity:1.0000; stroke:none;fill-rule:evenodd;"
d="M 151.7393,118.3892
150.9893,118.3892
150.9893,117.3892
151.7393,117.3892
Z" /> 
<path style="fill:#000000; fill-opacity:1.0000; stroke:none;fill-rule:evenodd;"
d="M 127.7393,123.1392
126.9893,123.1392
126.9893,122.1392
127.7393,122.1392
Z" /> 
<path style="fill:#000000; fill-opacity:1.0000; stroke:none;fill-rule:evenodd;"
d="M 127.7393,129.1392
126.9893,129.1392
126.9893,128.1392
127.7393,128.1392
Z" /> 
<path style="fill:#000000; fill-opacity:1.0000; stroke:none;fill-rule:evenodd;"
d="M 131.4893,123.1392
130.7393,123.1392
130.7393,122.1392
131.4893,122.1392
Z" /> 
<path style="fill:#000000; fill-opacity:1.0000; stroke:none;fill-rule:evenodd;"
d="M 131.4893,129.1392
130.7393,129.1392
130.7393,128.1392
131.4893,128.1392
Z" /> 
<path style="fill:#000000; fill-opacity:1.0000; stroke:none;fill-rule:evenodd;"
d="M 186.2393,102.3892
185.4893,102.3892
185.4893,101.3892
186.2393,101.3892
Z" /> 
<path style="fill:#000000; fill-opacity:1.0000; stroke:none;fill-rule:evenodd;"
d="M 186.2393,108.3892
185.4893,108.3892
185.4893,107.3892
186.2393,107.3892
Z" /> 
<path style="fill:#000000; fill-opacity:1.0000; stroke:none;fill-rule:evenodd;"
d="M 189.9893,102.3892
189.2393,102.3892
189.2393,101.3892
189.9893,101.3892
Z" /> 
<path style="fill:#000000; fill-opacity:1.0000; stroke:none;fill-rule:evenodd;"
d="M 189.9893,108.3892
189.2393,108.3892
189.2393,107.3892
189.9893,107.3892
Z" /> 
<path style="fill:#000000; fill-opacity:1.0000; stroke:none;fill-rule:evenodd;"
d="M 185.9893,93.0142
185.2393,93.0142
185.2393,92.0142
185.9893,92.0142
Z" /> 
<path style="fill:#000000; fill-opacity:1.0000; stroke:none;fill-rule:evenodd;"
d="M 185.9893,99.0142
185.2393,99.0142
185.2393,98.0142
185.9893,98.0142
Z" /> 
<path style="fill:#000000; fill-opacity:1.0000; stroke:none;fill-rule:evenodd;"
d="M 189.7393,93.0142
188.9893,93.0142
188.9893,92.0142
189.7393,92.0142
Z" /> 
<path style="fill:#000000; fill-opacity:1.0000; stroke:none;fill-rule:evenodd;"
d="M 189.7393,99.0142
188.9893,99.0142
188.9893,98.0142
189.7393,98.0142
Z" /> 
<path style="fill:#000000; fill-opacity:1.0000; stroke:none;fill-rule:evenodd;"
d="M 137.7393,93.3892
136.9893,93.3892
136.9893,92.3892
137.7393,92.3892
Z" /> 
<path style="fill:#000000; fill-opacity:1.0000; stroke:none;fill-rule:evenodd;"
d="M 137.7393,99.3892
136.9893,99.3892
136.9893,98.3892
137.7393,98.3892
Z" /> 
<path style="fill:#000000; fill-opacity:1.0000; stroke:none;fill-rule:evenodd;"
d="M 141.4893,93.3892
140.7393,93.3892
140.7393,92.3892
141.4893,92.3892
Z" /> 
<path style="fill:#000000; fill-opacity:1.0000; stroke:none;fill-rule:evenodd;"
d="M 141.4893,99.3892
140.7393,99.3892
140.7393,98.3892
141.4893,98.3892
Z" /> 
<path style="fill:#000000; fill-opacity:1.0000; stroke:none;fill-rule:evenodd;"
d="M 176.2393,112.3892
175.4893,112.3892
175.4893,111.3892
176.2393,111.3892
Z" /> 
<path style="fill:#000000; fill-opacity:1.0000; stroke:none;fill-rule:evenodd;"
d="M 176.2393,118.3892
175.4893,118.3892
175.4893,117.3892
176.2393,117.3892
Z" /> 
<path style="fill:#000000; fill-opacity:1.0000; stroke:none;fill-rule:evenodd;"
d="M 179.9893,112.3892
179.2393,112.3892
179.2393,111.3892
179.9893,111.3892
Z" /> 
<path style="fill:#000000; fill-opacity:1.0000; stroke:none;fill-rule:evenodd;"
d="M 179.9893,118.3892
179.2393,118.3892
179.2393,117.3892
179.9893,117.3892
Z" /> 
<path style="fill:#000000; fill-opacity:1.0000; stroke:none;fill-rule:evenodd;"
d="M 157.7393,112.1392
156.9893,112.1392
156.9893,111.1392
157.7393,111.1392
Z" /> 
<path style="fill:#000000; fill-opacity:1.0000; stroke:none;fill-rule:evenodd;"
d="M 157.7393,118.1392
156.9893,118.1392
156.9893,117.1392
157.7393,117.1392
Z" /> 
<path style="fill:#000000; fill-opacity:1.0000; stroke:none;fill-rule:evenodd;"
d="M 161.4893,112.1392
160.7393,112.1392
160.7393,111.1392
161.4893,111.1392
Z" /> 
<path style="fill:#000000; fill-opacity:1.0000; stroke:none;fill-rule:evenodd;"
d="M 161.4893,118.1392
160.7393,118.1392
160.7393,117.1392
161.4893,117.1392
Z" /> 
<path style="fill:#000000; fill-opacity:1.0000; stroke:none;fill-rule:evenodd;"
d="M 127.4893,112.6392
126.7393,112.6392
126.7393,111.6392
127.4893,111.6392
Z" /> 
<path style="fill:#000000; fill-opacity:1.0000; stroke:none;fill-rule:evenodd;"
d="M 127.4893,118.6392
126.7393,118.6392
126.7393,117.6392
127.4893,117.6392
Z" /> 
<path style="fill:#000000; fill-opacity:1.0000; stroke:none;fill-rule:evenodd;"
d="M 131.2393,112.6392
130.4893,112.6392
130.4893,111.6392
131.2393,111.6392
Z" /> 
<path style="fill:#000000; fill-opacity:1.0000; stroke:none;fill-rule:evenodd;"
d="M 131.2393,118.6392
130.4893,118.6392
130.4893,117.6392
131.2393,117.6392
Z" /> 
<path style="fill:#000000; fill-opacity:1.0000; stroke:none;fill-rule:evenodd;"
d="M 176.4893,122.6392
175.7393,122.6392
175.7393,121.6392
176.4893,121.6392
Z" /> 
<path style="fill:#000000; fill-opacity:1.0000; stroke:none;fill-rule:evenodd;"
d="M 176.4893,128.6392
175.7393,128.6392
175.7393,127.6392
176.4893,127.6392
Z" /> 
<path style="fill:#000000; fill-opacity:1.0000; stroke:none;fill-rule:evenodd;"
d="M 180.2393,122.6392
179.4893,122.6392
179.4893,121.6392
180.2393,121.6392
Z" /> 
<path style="fill:#000000; fill-opacity:1.0000; stroke:none;fill-rule:evenodd;"
d="M 180.2393,128.6392
179.4893,128.6392
179.4893,127.6392
180.2393,127.6392
Z" /> 
<path style="fill:#000000; fill-opacity:1.0000; stroke:none;fill-rule:evenodd;"
d="M 137.7393,102.6392
136.9893,102.6392
136.9893,101.6392
137.7393,101.6392
Z" /> 
<path style="fill:#000000; fill-opacity:1.0000; stroke:none;fill-rule:evenodd;"
d="M 137.7393,108.6392
136.9893,108.6392
136.9893,107.6392
137.7393,107.6392
Z" /> 
<path style="fill:#000000; fill-opacity:1.0000; stroke:none;fill-rule:evenodd;"
d="M 141.4893,102.6392
140.7393,102.6392
140.7393,101.6392
141.4893,101.6392
Z" /> 
<path style="fill:#000000; fill-opacity:1.0000; stroke:none;fill-rule:evenodd;"
d="M 141.4893,108.6392
140.7393,108.6392
140.7393,107.6392
141.4893,107.6392
Z" /> 
<path style="fill:#000000; fill-opacity:1.0000; stroke:none;fill-rule:evenodd;"
d="M 147.4893,102.3892
146.7393,102.3892
146.7393,101.3892
147.4893,101.3892
Z" /> 
<path style="fill:#000000; fill-opacity:1.0000; stroke:none;fill-rule:evenodd;"
d="M 147.4893,108.3892
146.7393,108.3892
146.7393,107.3892
147.4893,107.3892
Z" /> 
<path style="fill:#000000; fill-opacity:1.0000; stroke:none;fill-rule:evenodd;"
d="M 151.2393,102.3892
150.4893,102.3892
150.4893,101.3892
151.2393,101.3892
Z" /> 
<path style="fill:#000000; fill-opacity:1.0000; stroke:none;fill-rule:evenodd;"
d="M 151.2393,108.3892
150.4893,108.3892
150.4893,107.3892
151.2393,107.3892
Z" /> 
<path style="fill:#000000; fill-opacity:1.0000; stroke:none;fill-rule:evenodd;"
d="M 107.4893,113.2642
106.7393,113.2642
106.7393,112.2642
107.4893,112.2642
Z" /> 
<path style="fill:#000000; fill-opacity:1.0000; stroke:none;fill-rule:evenodd;"
d="M 107.4893,119.2642
106.7393,119.2642
106.7393,118.2642
107.4893,118.2642
Z" /> 
<path style="fill:#000000; fill-opacity:1.0000; stroke:none;fill-rule:evenodd;"
d="M 111.2393,113.2642
110.4893,113.2642
110.4893,112.2642
111.2393,112.2642
Z" /> 
<path style="fill:#000000; fill-opacity:1.0000; stroke:none;fill-rule:evenodd;"
d="M 111.2393,119.2642
110.4893,119.2642
110.4893,118.2642
111.2393,118.2642
Z" /> 
<path style="fill:#000000; fill-opacity:1.0000; stroke:none;fill-rule:evenodd;"
d="M 166.9893,122.7642
166.2393,122.7642
166.2393,121.7642
166.9893,121.7642
Z" /> 
<path style="fill:#000000; fill-opacity:1.0000; stroke:none;fill-rule:evenodd;"
d="M 166.9893,128.7642
166.2393,128.7642
166.2393,127.7642
166.9893,127.7642
Z" /> 
<path style="fill:#000000; fill-opacity:1.0000; stroke:none;fill-rule:evenodd;"
d="M 170.7393,122.7642
169.9893,122.7642
169.9893,121.7642
170.7393,121.7642
Z" /> 
<path style="fill:#000000; fill-opacity:1.0000; stroke:none;fill-rule:evenodd;"
d="M 170.7393,128.7642
169.9893,128.7642
169.9893,127.7642
170.7393,127.7642
Z" /> 
<path style="fill:#000000; fill-opacity:1.0000; stroke:none;fill-rule:evenodd;"
d="M 147.4893,93.1392
146.7393,93.1392
146.7393,92.1392
147.4893,92.1392
Z" /> 
<path style="fill:#000000; fill-opacity:1.0000; stroke:none;fill-rule:evenodd;"
d="M 147.4893,99.1392
146.7393,99.1392
146.7393,98.1392
147.4893,98.1392
Z" /> 
<path style="fill:#000000; fill-opacity:1.0000; stroke:none;fill-rule:evenodd;"
d="M 151.2393,93.1392
150.4893,93.1392
150.4893,92.1392
151.2393,92.1392
Z" /> 
<path style="fill:#000000; fill-opacity:1.0000; stroke:none;fill-rule:evenodd;"
d="M 151.2393,99.1392
150.4893,99.1392
150.4893,98.1392
151.2393,98.1392
Z" /> 
<path style="fill:#000000; fill-opacity:1.0000; stroke:none;fill-rule:evenodd;"
d="M 96.9893,103.7642
96.2393,103.7642
96.2393,102.7642
96.9893,102.7642
Z" /> 
<path style="fill:#000000; fill-opacity:1.0000; stroke:none;fill-rule:evenodd;"
d="M 96.9893,109.7642
96.2393,109.7642
96.2393,108.7642
96.9893,108.7642
Z" /> 
<path style="fill:#000000; fill-opacity:1.0000; stroke:none;fill-rule:evenodd;"
d="M 100.7393,103.7642
99.9893,103.7642
99.9893,102.7642
100.7393,102.7642
Z" /> 
<path style="fill:#000000; fill-opacity:1.0000; stroke:none;fill-rule:evenodd;"
d="M 100.7393,109.7642
99.9893,109.7642
99.9893,108.7642
100.7393,108.7642
Z" /> 
<path style="fill:#000000; fill-opacity:1.0000; stroke:none;fill-rule:evenodd;"
d="M 107.4893,123.1392
106.7393,123.1392
106.7393,122.1392
107.4893,122.1392
Z" /> 
<path style="fill:#000000; fill-opacity:1.0000; stroke:none;fill-rule:evenodd;"
d="M 107.4893,129.1392
106.7393,129.1392
106.7393,128.1392
107.4893,128.1392
Z" /> 
<path style="fill:#000000; fill-opacity:1.0000; stroke:none;fill-rule:evenodd;"
d="M 111.2393,123.1392
110.4893,123.1392
110.4893,122.1392
111.2393,122.1392
Z" /> 
<path style="fill:#000000; fill-opacity:1.0000; stroke:none;fill-rule:evenodd;"
d="M 111.2393,129.1392
110.4893,129.1392
110.4893,128.1392
111.2393,128.1392
Z" /> 
<path style="fill:#000000; fill-opacity:1.0000; stroke:none;fill-rule:evenodd;"
d="M 96.9893,122.7642
96.2393,122.7642
96.2393,121.7642
96.9893,121.7642
Z" /> 
<path style="fill:#000000; fill-opacity:1.0000; stroke:none;fill-rule:evenodd;"
d="M 96.9893,128.7642
96.2393,128.7642
96.2393,127.7642
96.9893,127.7642
Z" /> 
<path style="fill:#000000; fill-opacity:1.0000; stroke:none;fill-rule:evenodd;"
d="M 100.7393,122.7642
99.9893,122.7642
99.9893,121.7642
100.7393,121.7642
Z" /> 
<path style="fill:#000000; fill-opacity:1.0000; stroke:none;fill-rule:evenodd;"
d="M 100.7393,128.7642
99.9893,128.7642
99.9893,127.7642
100.7393,127.7642
Z" /> 
<path style="fill:#000000; fill-opacity:1.0000; stroke:none;fill-rule:evenodd;"
d="M 157.2393,93.1392
156.4893,93.1392
156.4893,92.1392
157.2393,92.1392
Z" /> 
<path style="fill:#000000; fill-opacity:1.0000; stroke:none;fill-rule:evenodd;"
d="M 157.2393,99.1392
156.4893,99.1392
156.4893,98.1392
157.2393,98.1392
Z" /> 
<path style="fill:#000000; fill-opacity:1.0000; stroke:none;fill-rule:evenodd;"
d="M 160.9893,93.1392
160.2393,93.1392
160.2393,92.1392
160.9893,92.1392
Z" /> 
<path style="fill:#000000; fill-opacity:1.0000; stroke:none;fill-rule:evenodd;"
d="M 160.9893,99.1392
160.2393,99.1392
160.2393,98.1392
160.9893,98.1392
Z" /> 
<path style="fill:#000000; fill-opacity:1.0000; stroke:none;fill-rule:evenodd;"
d="M 117.7393,112.6392
116.9893,112.6392
116.9893,111.6392
117.7393,111.6392
Z" /> 
<path style="fill:#000000; fill-opacity:1.0000; stroke:none;fill-rule:evenodd;"
d="M 117.7393,118.6392
116.9893,118.6392
116.9893,117.6392
117.7393,117.6392
Z" /> 
<path style="fill:#000000; fill-opacity:1.0000; stroke:none;fill-rule:evenodd;"
d="M 121.4893,112.6392
120.7393,112.6392
120.7393,111.6392
121.4893,111.6392
Z" /> 
<path style="fill:#000000; fill-opacity:1.0000; stroke:none;fill-rule:evenodd;"
d="M 121.4893,118.6392
120.7393,118.6392
120.7393,117.6392
121.4893,117.6392
Z" /> 
<path style="fill:#000000; fill-opacity:1.0000; stroke:none;fill-rule:evenodd;"
d="M 117.7393,123.1392
116.9893,123.1392
116.9893,122.1392
117.7393,122.1392
Z" /> 
<path style="fill:#000000; fill-opacity:1.0000; stroke:none;fill-rule:evenodd;"
d="M 117.7393,129.1392
116.9893,129.1392
116.9893,128.1392
117.7393,128.1392
Z" /> 
<path style="fill:#000000; fill-opacity:1.0000; stroke:none;fill-rule:evenodd;"
d="M 121.4893,123.1392
120.7393,123.1392
120.7393,122.1392
121.4893,122.1392
Z" /> 
<path style="fill:#000000; fill-opacity:1.0000; stroke:none;fill-rule:evenodd;"
d="M 121.4893,129.1392
120.7393,129.1392
120.7393,128.1392
121.4893,128.1392
Z" /> 
<path style="fill:#000000; fill-opacity:1.0000; stroke:none;fill-rule:evenodd;"
d="M 117.7393,103.1392
116.9893,103.1392
116.9893,102.1392
117.7393,102.1392
Z" /> 
<path style="fill:#000000; fill-opacity:1.0000; stroke:none;fill-rule:evenodd;"
d="M 117.7393,109.1392
116.9893,109.1392
116.9893,108.1392
117.7393,108.1392
Z" /> 
<path style="fill:#000000; fill-opacity:1.0000; stroke:none;fill-rule:evenodd;"
d="M 121.4893,103.1392
120.7393,103.1392
120.7393,102.1392
121.4893,102.1392
Z" /> 
<path style="fill:#000000; fill-opacity:1.0000; stroke:none;fill-rule:evenodd;"
d="M 121.4893,109.1392
120.7393,109.1392
120.7393,108.1392
121.4893,108.1392
Z" /> 
<path style="fill:#000000; fill-opacity:1.0000; stroke:none;fill-rule:evenodd;"
d="M 186.2393,122.6392
185.4893,122.6392
185.4893,121.6392
186.2393,121.6392
Z" /> 
<path style="fill:#000000; fill-opacity:1.0000; stroke:none;fill-rule:evenodd;"
d="M 186.2393,128.6392
185.4893,128.6392
185.4893,127.6392
186.2393,127.6392
Z" /> 
<path style="fill:#000000; fill-opacity:1.0000; stroke:none;fill-rule:evenodd;"
d="M 189.9893,122.6392
189.2393,122.6392
189.2393,121.6392
189.9893,121.6392
Z" /> 
<path style="fill:#000000; fill-opacity:1.0000; stroke:none;fill-rule:evenodd;"
d="M 189.9893,128.6392
189.2393,128.6392
189.2393,127.6392
189.9893,127.6392
Z" /> 
<path style="fill:#000000; fill-opacity:1.0000; stroke:none;fill-rule:evenodd;"
d="M 157.7393,122.7642
156.9893,122.7642
156.9893,121.7642
157.7393,121.7642
Z" /> 
<path style="fill:#000000; fill-opacity:1.0000; stroke:none;fill-rule:evenodd;"
d="M 157.7393,128.7642
156.9893,128.7642
156.9893,127.7642
157.7393,127.7642
Z" /> 
<path style="fill:#000000; fill-opacity:1.0000; stroke:none;fill-rule:evenodd;"
d="M 161.4893,122.7642
160.7393,122.7642
160.7393,121.7642
161.4893,121.7642
Z" /> 
<path style="fill:#000000; fill-opacity:1.0000; stroke:none;fill-rule:evenodd;"
d="M 161.4893,128.7642
160.7393,128.7642
160.7393,127.7642
161.4893,127.7642
Z" /> 
<path style="fill:#000000; fill-opacity:1.0000; stroke:none;fill-rule:evenodd;"
d="M 127.7393,93.5142
126.9893,93.5142
126.9893,92.5142
127.7393,92.5142
Z" /> 
<path style="fill:#000000; fill-opacity:1.0000; stroke:none;fill-rule:evenodd;"
d="M 127.7393,99.5142
126.9893,99.5142
126.9893,98.5142
127.7393,98.5142
Z" /> 
<path style="fill:#000000; fill-opacity:1.0000; stroke:none;fill-rule:evenodd;"
d="M 131.4893,93.5142
130.7393,93.5142
130.7393,92.5142
131.4893,92.5142
Z" /> 
<path style="fill:#000000; fill-opacity:1.0000; stroke:none;fill-rule:evenodd;"
d="M 131.4893,99.5142
130.7393,99.5142
130.7393,98.5142
131.4893,98.5142
Z" /> 
<path style="fill:#000000; fill-opacity:1.0000; stroke:none;fill-rule:evenodd;"
d="M 96.9893,93.5142
96.2393,93.5142
96.2393,92.5142
96.9893,92.5142
Z" /> 
<path style="fill:#000000; fill-opacity:1.0000; stroke:none;fill-rule:evenodd;"
d="M 96.9893,99.5142
96.2393,99.5142
96.2393,98.5142
96.9893,98.5142
Z" /> 
<path style="fill:#000000; fill-opacity:1.0000; stroke:none;fill-rule:evenodd;"
d="M 100.7393,93.5142
99.9893,93.5142
99.9893,92.5142
100.7393,92.5142
Z" /> 
<path style="fill:#000000; fill-opacity:1.0000; stroke:none;fill-rule:evenodd;"
d="M 100.7393,99.5142
99.9893,99.5142
99.9893,98.5142
100.7393,98.5142
Z" /> 
<path style="fill:#000000; fill-opacity:1.0000; stroke:none;fill-rule:evenodd;"
d="M 157.4893,102.1392
156.7393,102.1392
156.7393,101.1392
157.4893,101.1392
Z" /> 
<path style="fill:#000000; fill-opacity:1.0000; stroke:none;fill-rule:evenodd;"
d="M 157.4893,108.1392
156.7393,108.1392
156.7393,107.1392
157.4893,107.1392
Z" /> 
<path style="fill:#000000; fill-opacity:1.0000; stroke:none;fill-rule:evenodd;"
d="M 161.2393,102.1392
160.4893,102.1392
160.4893,101.1392
161.2393,101.1392
Z" /> 
<path style="fill:#000000; fill-opacity:1.0000; stroke:none;fill-rule:evenodd;"
d="M 161.2393,108.1392
160.4893,108.1392
160.4893,107.1392
161.2393,107.1392
Z" /> 
<path style="fill:#000000; fill-opacity:1.0000; stroke:none;fill-rule:evenodd;"
d="M 117.7393,93.3892
116.9893,93.3892
116.9893,92.3892
117.7393,92.3892
Z" /> 
<path style="fill:#000000; fill-opacity:1.0000; stroke:none;fill-rule:evenodd;"
d="M 117.7393,99.3892
116.9893,99.3892
116.9893,98.3892
117.7393,98.3892
Z" /> 
<path style="fill:#000000; fill-opacity:1.0000; stroke:none;fill-rule:evenodd;"
d="M 121.4893,93.3892
120.7393,93.3892
120.7393,92.3892
121.4893,92.3892
Z" /> 
<path style="fill:#000000; fill-opacity:1.0000; stroke:none;fill-rule:evenodd;"
d="M 121.4893,99.3892
120.7393,99.3892
120.7393,98.3892
121.4893,98.3892
Z" /> 
<path style="fill:#000000; fill-opacity:1.0000; stroke:none;fill-rule:evenodd;"
d="M 127.7393,102.8892
126.9893,102.8892
126.9893,101.8892
127.7393,101.8892
Z" /> 
<path style="fill:#000000; fill-opacity:1.0000; stroke:none;fill-rule:evenodd;"
d="M 127.7393,108.8892
126.9893,108.8892
126.9893,107.8892
127.7393,107.8892
Z" /> 
<path style="fill:#000000; fill-opacity:1.0000; stroke:none;fill-rule:evenodd;"
d="M 131.4893,102.8892
130.7393,102.8892
130.7393,101.8892
131.4893,101.8892
Z" /> 
<path style="fill:#000000; fill-opacity:1.0000; stroke:none;fill-rule:evenodd;"
d="M 131.4893,108.8892
130.7393,108.8892
130.7393,107.8892
131.4893,107.8892
Z" /> 
<path style="fill:#000000; fill-opacity:1.0000; stroke:none;fill-rule:evenodd;"
d="M 203.9693,102.8259
203.9368,102.7773
203.9254,102.7198
203.9368,102.6624
203.9693,102.6138
205.1714,101.4117
205.2201,101.3792
205.2775,101.3678
205.3349,101.3792
205.3835,101.4117
205.8785,101.9067
205.9110,101.9553
205.9224,102.0127
205.9110,102.0701
205.8785,102.1188
204.6764,103.3209
204.6278,103.3534
204.5704,103.3648
204.5130,103.3534
204.4643,103.3209
Z" /> 
<path style="fill:#000000; fill-opacity:1.0000; stroke:none;fill-rule:evenodd;"
d="M 204.9593,103.8159
204.9267,103.7672
204.9153,103.7098
204.9267,103.6524
204.9593,103.6037
206.1613,102.4016
206.2100,102.3691
206.2674,102.3577
206.3248,102.3691
206.3735,102.4016
206.8685,102.8966
206.9010,102.9453
206.9124,103.0027
206.9010,103.0601
206.8685,103.1088
205.6664,104.3108
205.6177,104.3434
205.5603,104.3548
205.5029,104.3434
205.4542,104.3108
Z" /> 
<path style="fill:#000000; fill-opacity:1.0000; stroke:none;fill-rule:evenodd;"
d="M 205.9492,104.8058
205.9167,104.7571
205.9053,104.6997
205.9167,104.6423
205.9492,104.5937
207.1513,103.3916
207.2000,103.3591
207.2574,103.3477
207.3148,103.3591
207.3634,103.3916
207.8584,103.8866
207.8909,103.9352
207.9023,103.9926
207.8909,104.0500
207.8584,104.0987
206.6563,105.3008
206.6077,105.3333
206.5503,105.3447
206.4929,105.3333
206.4442,105.3008
Z" /> 
<path style="fill:#000000; fill-opacity:1.0000; stroke:none;fill-rule:evenodd;"
d="M 210.5454,100.2096
210.5129,100.1610
210.5015,100.1036
210.5129,100.0462
210.5454,99.9975
211.7475,98.7954
211.7962,98.7629
211.8536,98.7515
211.9110,98.7629
211.9596,98.7954
212.4546,99.2904
212.4871,99.3390
212.4985,99.3964
212.4871,99.4538
212.4546,99.5025
211.2525,100.7046
211.2038,100.7371
211.1464,100.7485
211.0890,100.7371
211.0404,100.7046
Z" /> 
<path style="fill:#000000; fill-opacity:1.0000; stroke:none;fill-rule:evenodd;"
d="M 209.5555,99.2197
209.5229,99.1710
209.5115,99.1136
209.5229,99.0562
209.5555,99.0075
210.7575,97.8055
210.8062,97.7729
210.8636,97.7615
210.9210,97.7729
210.9697,97.8055
211.4646,98.3004
211.4972,98.3491
211.5086,98.4065
211.4972,98.4639
211.4646,98.5126
210.2626,99.7146
210.2139,99.7472
210.1565,99.7586
210.0991,99.7472
210.0504,99.7146
Z" /> 
<path style="fill:#000000; fill-opacity:1.0000; stroke:none;fill-rule:evenodd;"
d="M 208.5655,98.2297
208.5330,98.1811
208.5216,98.1237
208.5330,98.0663
208.5655,98.0176
209.7676,96.8155
209.8163,96.7830
209.8737,96.7716
209.9311,96.7830
209.9797,96.8155
210.4747,97.3105
210.5072,97.3591
210.5186,97.4165
210.5072,97.4740
210.4747,97.5226
209.2726,98.7247
209.2240,98.7572
209.1665,98.7686
209.1091,98.7572
209.0605,98.7247
Z" /> 
<path style="fill:#000000; fill-opacity:1.0000; stroke:none;fill-rule:evenodd;"
d="M 186.2393,112.3892
185.4893,112.3892
185.4893,111.3892
186.2393,111.3892
Z" /> 
<path style="fill:#000000; fill-opacity:1.0000; stroke:none;fill-rule:evenodd;"
d="M 186.2393,118.3892
185.4893,118.3892
185.4893,117.3892
186.2393,117.3892
Z" /> 
<path style="fill:#000000; fill-opacity:1.0000; stroke:none;fill-rule:evenodd;"
d="M 189.9893,112.3892
189.2393,112.3892
189.2393,111.3892
189.9893,111.3892
Z" /> 
<path style="fill:#000000; fill-opacity:1.0000; stroke:none;fill-rule:evenodd;"
d="M 189.9893,118.3892
189.2393,118.3892
189.2393,117.3892
189.9893,117.3892
Z" /> 
<path style="fill:#000000; fill-opacity:1.0000; stroke:none;fill-rule:evenodd;"
d="M 166.9893,102.1392
166.2393,102.1392
166.2393,101.1392
166.9893,101.1392
Z" /> 
<path style="fill:#000000; fill-opacity:1.0000; stroke:none;fill-rule:evenodd;"
d="M 166.9893,108.1392
166.2393,108.1392
166.2393,107.1392
166.9893,107.1392
Z" /> 
<path style="fill:#000000; fill-opacity:1.0000; stroke:none;fill-rule:evenodd;"
d="M 170.7393,102.1392
169.9893,102.1392
169.9893,101.1392
170.7393,101.1392
Z" /> 
<path style="fill:#000000; fill-opacity:1.0000; stroke:none;fill-rule:evenodd;"
d="M 170.7393,108.1392
169.9893,108.1392
169.9893,107.1392
170.7393,107.1392
Z" /> 
<path style="fill:#000000; fill-opacity:1.0000; stroke:none;fill-rule:evenodd;"
d="M 107.4893,103.7642
106.7393,103.7642
106.7393,102.7642
107.4893,102.7642
Z" /> 
<path style="fill:#000000; fill-opacity:1.0000; stroke:none;fill-rule:evenodd;"
d="M 107.4893,109.7642
106.7393,109.7642
106.7393,108.7642
107.4893,108.7642
Z" /> 
<path style="fill:#000000; fill-opacity:1.0000; stroke:none;fill-rule:evenodd;"
d="M 111.2393,103.7642
110.4893,103.7642
110.4893,102.7642
111.2393,102.7642
Z" /> 
<path style="fill:#000000; fill-opacity:1.0000; stroke:none;fill-rule:evenodd;"
d="M 111.2393,109.7642
110.4893,109.7642
110.4893,108.7642
111.2393,108.7642
Z" /> 
</g>
<g style="fill:#000000; fill-opacity:1.0000; stroke:none;">
<circle cx="98.7500" cy="94.7500" r="0.3000" /> 
</g>
<g style="fill:#000000; fill-opacity:1.0000; stroke:none;">
<circle cx="109.0000" cy="95.0000" r="0.3000" /> 
</g>
<g style="fill:#000000; fill-opacity:1.0000; stroke:none;">
<circle cx="119.7500" cy="95.0000" r="0.3000" /> 
</g>
<g style="fill:#000000; fill-opacity:1.0000; stroke:none;">
<circle cx="129.5000" cy="94.7500" r="0.3000" /> 
</g>
<g style="fill:#000000; fill-opacity:1.0000; stroke:none;">
<circle cx="139.2500" cy="94.7500" r="0.3000" /> 
</g>
<g style="fill:#000000; fill-opacity:1.0000; stroke:none;">
<circle cx="149.2500" cy="94.7500" r="0.3000" /> 
</g>
<g style="fill:#000000; fill-opacity:1.0000; stroke:none;">
<circle cx="158.7500" cy="94.5000" r="0.3000" /> 
</g>
<g style="fill:#000000; fill-opacity:1.0000; stroke:none;">
<circle cx="168.0000" cy="95.0000" r="0.3000" /> 
</g>
<g style="fill:#000000; fill-opacity:1.0000; stroke:none;">
<circle cx="177.2500" cy="94.7500" r="0.3000" /> 
</g>
<g style="fill:#000000; fill-opacity:1.0000; stroke:none;">
<circle cx="187.2500" cy="95.0000" r="0.3000" /> 
</g>
<g style="fill:#000000; fill-opacity:1.0000; stroke:none;">
<circle cx="98.7500" cy="105.5000" r="0.3000" /> 
</g>
<g style="fill:#000000; fill-opacity:1.0000; stroke:none;">
<circle cx="109.2500" cy="105.5000" r="0.3000" /> 
</g>
<g style="fill:#000000; fill-opacity:1.0000; stroke:none;">
<circle cx="119.5000" cy="104.5000" r="0.3000" /> 
</g>
<g style="fill:#000000; fill-opacity:1.0000; stroke:none;">
<circle cx="129.0000" cy="105.0000" r="0.3000" /> 
</g>
<g style="fill:#000000; fill-opacity:1.0000; stroke:none;">
<circle cx="139.5000" cy="104.0000" r="0.3000" /> 
</g>
<g style="fill:#000000; fill-opacity:1.0000; stroke:none;">
<circle cx="149.5000" cy="103.5000" r="0.3000" /> 
</g>
<g style="fill:#000000; fill-opacity:1.0000; stroke:none;">
<circle cx="159.5000" cy="103.5000" r="0.3000" /> 
</g>
<g style="fill:#000000; fill-opacity:1.0000; stroke:none;">
<circle cx="168.7500" cy="104.0000" r="0.3000" /> 
</g>
<g style="fill:#000000; fill-opacity:1.0000; stroke:none;">
<circle cx="177.7500" cy="104.0000" r="0.3000" /> 
</g>
<g style="fill:#000000; fill-opacity:1.0000; stroke:none;">
<circle cx="188.0000" cy="104.0000" r="0.3000" /> 
</g>
<g style="fill:#000000; fill-opacity:1.0000; stroke:none;">
<circle cx="99.0000" cy="114.2500" r="0.3000" /> 
</g>
<g style="fill:#000000; fill-opacity:1.0000; stroke:none;">
<circle cx="109.5000" cy="114.5000" r="0.3000" /> 
</g>
<g style="fill:#000000; fill-opacity:1.0000; stroke:none;">
<circle cx="120.2500" cy="114.0000" r="0.3000" /> 
</g>
<g style="fill:#000000; fill-opacity:1.0000; stroke:none;">
<circle cx="129.5000" cy="114.0000" r="0.3000" /> 
</g>
<g style="fill:#000000; fill-opacity:1.0000; stroke:none;">
<circle cx="139.7500" cy="114.0000" r="0.3000" /> 
</g>
<g style="fill:#000000; fill-opacity:1.0000; stroke:none;">
<circle cx="149.7500" cy="114.2500" r="0.3000" /> 
</g>
<g style="fill:#000000; fill-opacity:1.0000; stroke:none;">
<circle cx="159.7500" cy="114.0000" r="0.3000" /> 
</g>
<g style="fill:#000000; fill-opacity:1.0000; stroke:none;">
<circle cx="168.5000" cy="113.5000" r="0.3000" /> 
</g>
<g style="fill:#000000; fill-opacity:1.0000; stroke:none;">
<circle cx="178.2500" cy="113.7500" r="0.3000" /> 
</g>
<g style="fill:#000000; fill-opacity:1.0000; stroke:none;">
<circle cx="187.7500" cy="113.7500" r="0.3000" /> 
</g>
<g style="fill:#000000; fill-opacity:1.0000; stroke:none;">
<circle cx="98.7500" cy="124.0000" r="0.3000" /> 
</g>
<g style="fill:#000000; fill-opacity:1.0000; stroke:none;">
<circle cx="109.7500" cy="123.7500" r="0.3000" /> 
</g>
<g style="fill:#000000; fill-opacity:1.0000; stroke:none;">
<circle cx="119.5000" cy="124.2500" r="0.3000" /> 
</g>
<g style="fill:#000000; fill-opacity:1.0000; stroke:none;">
<circle cx="129.5000" cy="124.0000" r="0.3000" /> 
</g>
<g style="fill:#000000; fill-opacity:1.0000; stroke:none;">
<circle cx="139.5000" cy="124.2500" r="0.3000" /> 
</g>
<g style="fill:#000000; fill-opacity:1.0000; stroke:none;">
<circle cx="149.5000" cy="124.0000" r="0.3000" /> 
</g>
<g style="fill:#000000; fill-opacity:1.0000; stroke:none;">
<circle cx="159.5000" cy="123.5000" r="0.3000" /> 
</g>
<g style="fill:#000000; fill-opacity:1.0000; stroke:none;">
<circle cx="169.0000" cy="123.7500" r="0.3000" /> 
</g>
<g style="fill:#000000; fill-opacity:1.0000; stroke:none;">
<circle cx="177.5000" cy="123.7500" r="0.3000" /> 
</g>
<g style="fill:#000000; fill-opacity:1.0000; stroke:none;">
<circle cx="187.7500" cy="123.7500" r="0.3000" /> 
</g>
<g style="fill:#000000; fill-opacity:1.0000; stroke:none;">
<circle cx="195.5207" cy="126.4793" r="0.3000" /> 
</g>
<g style="fill:#000000; fill-opacity:1.0000; stroke:none;">
<circle cx="195.0000" cy="125.5000" r="0.3000" /> 
</g>
<g style="fill:#000000; fill-opacity:1.0000; stroke:none;">
<circle cx="194.2500" cy="125.0000" r="0.3000" /> 
</g>
<g style="fill:#000000; fill-opacity:1.0000; stroke:none;">
<circle cx="134.7500" cy="112.5000" r="0.3000" /> 
</g>
<g style="fill:#000000; fill-opacity:1.0000; stroke:none;">
<circle cx="195.7500" cy="113.7500" r="0.3000" /> 
</g>
<g style="fill:#000000; fill-opacity:1.0000; stroke:none;">
<circle cx="191.7500" cy="105.7500" r="0.3000" /> 
</g>
<g style="fill:#000000; fill-opacity:1.0000; stroke:none;">
<circle cx="159.7470" cy="91.7500" r="0.3000" /> 
</g>
<g style="fill:#000000; fill-opacity:1.0000; stroke:none;">
<circle cx="169.0000" cy="91.0000" r="0.3000" /> 
</g>
<g style="fill:#000000; fill-opacity:1.0000; stroke:none;">
<circle cx="178.5000" cy="90.4000" r="0.3000" /> 
</g>
<g style="fill:#000000; fill-opacity:1.0000; stroke:none;">
<circle cx="188.2500" cy="91.2500" r="0.3000" /> 
</g>
<g style="fill:#000000; fill-opacity:1.0000; stroke:none;">
<circle cx="212.9608" cy="95.4608" r="0.3000" /> 
</g>
<g style="fill:#000000; fill-opacity:1.0000; stroke:none;">
<circle cx="214.5000" cy="100.2500" r="0.3000" /> 
</g>
<g style="fill:#000000; fill-opacity:1.0000; stroke:none;">
<circle cx="211.2500" cy="108.2500" r="0.3000" /> 
</g>
<g style="fill:#000000; fill-opacity:1.0000; stroke:none;">
<circle cx="215.2500" cy="94.0000" r="0.3000" /> 
</g>
<g style="fill:#000000; fill-opacity:1.0000; stroke:none;">
<circle cx="214.0000" cy="136.2500" r="0.3000" /> 
</g>
<g style="fill:#000000; fill-opacity:1.0000; stroke:none;">
<circle cx="209.0000" cy="106.0000" r="0.3000" /> 
</g>
<g style="fill:none; 
stroke:#000000; stroke-width:0.2000; stroke-opacity:1; 
stroke-linecap:round; stroke-linejoin:round;">
<path d="M100.3643 93.1357
L100.3643 93.0142
" />
<path d="M98.7500 94.7500
L100.3643 93.1357
" />
<path d="M110.8643 93.1357
L110.8643 93.0142
" />
<path d="M109.0000 95.0000
L110.8643 93.1357
" />
<path d="M121.1143 93.6357
L121.1143 92.8892
" />
<path d="M119.7500 95.0000
L121.1143 93.6357
" />
<path d="M129.5000 94.7500
L131.1143 93.1357
" />
<path d="M131.1143 93.1357
L131.1143 93.0142
" />
<path d="M139.2500 94.7500
L141.1108 92.8892
" />
<path d="M141.1108 92.8892
L141.1143 92.8892
" />
<path d="M150.8643 93.1357
L150.8643 92.6392
" />
<path d="M149.2500 94.7500
L150.8643 93.1357
" />
<path d="M160.6108 92.6392
L160.6143 92.6392
" />
<path d="M158.7500 94.5000
L160.6108 92.6392
" />
<path d="M170.1143 92.8857
L170.1143 92.6392
" />
<path d="M168.0000 95.0000
L170.1143 92.8857
" />
<path d="M177.2500 94.7500
L179.4858 92.5142
" />
<path d="M179.4858 92.5142
L179.6143 92.5142
" />
<path d="M189.3643 92.8857
L189.3643 92.5142
" />
<path d="M187.2500 95.0000
L189.3643 92.8857
" />
<path d="M100.3643 103.8857
L100.3643 103.2642
" />
<path d="M98.7500 105.5000
L100.3643 103.8857
" />
<path d="M109.2500 105.5000
L110.8643 103.8857
" />
<path d="M110.8643 103.8857
L110.8643 103.2642
" />
<path d="M119.5000 104.5000
L121.1143 102.8857
" />
<path d="M121.1143 102.8857
L121.1143 102.6392
" />
<path d="M131.1143 102.8857
L131.1143 102.3892
" />
<path d="M129.0000 105.0000
L131.1143 102.8857
" />
<path d="M139.5000 104.0000
L141.1143 102.3857
" />
<path d="M141.1143 102.3857
L141.1143 102.1392
" />
<path d="M149.5000 103.5000
L150.8643 102.1357
" />
<path d="M150.8643 102.1357
L150.8643 101.8892
" />
<path d="M160.8643 102.1357
L159.5000 103.5000
" />
<path d="M160.8643 101.6392
L160.8643 102.1357
" />
<path d="M170.3643 102.3857
L170.3643 101.6392
" />
<path d="M168.7500 104.0000
L170.3643 102.3857
" />
<path d="M179.6143 102.1357
L179.6143 101.6392
" />
<path d="M177.7500 104.0000
L179.6143 102.1357
" />
<path d="M188.0000 103.5036
L189.6143 101.8892
" />
<path d="M188.0000 104.0000
L188.0000 103.5036
" />
<path d="M100.3643 112.8857
L100.3643 112.7642
" />
<path d="M99.0000 114.2500
L100.3643 112.8857
" />
<path d="M110.8643 113.1357
L110.8643 112.7642
" />
<path d="M109.5000 114.5000
L110.8643 113.1357
" />
<path d="M120.2500 114.0000
L121.1143 113.1357
" />
<path d="M121.1143 113.1357
L121.1143 112.1392
" />
<path d="M129.5000 114.0000
L130.8643 112.6357
" />
<path d="M130.8643 112.6357
L130.8643 112.1392
" />
<path d="M141.3643 112.3857
L141.3643 112.0142
" />
<path d="M139.7500 114.0000
L141.3643 112.3857
" />
<path d="M151.3643 112.6357
L151.3643 111.8892
" />
<path d="M149.7500 114.2500
L151.3643 112.6357
" />
<path d="M161.1143 112.6357
L161.1143 111.6392
" />
<path d="M159.7500 114.0000
L161.1143 112.6357
" />
<path d="M170.2358 111.7642
L170.3643 111.7642
" />
<path d="M168.5000 113.5000
L170.2358 111.7642
" />
<path d="M178.2500 113.7500
L179.6143 112.3857
" />
<path d="M179.6143 112.3857
L179.6143 111.8892
" />
<path d="M187.7500 113.7500
L189.6108 111.8892
" />
<path d="M189.6108 111.8892
L189.6143 111.8892
" />
<path d="M98.7500 124.0000
L100.3643 122.3857
" />
<path d="M100.3643 122.3857
L100.3643 122.2642
" />
<path d="M109.7536 123.7500
L110.8643 122.6392
" />
<path d="M109.7500 123.7500
L109.7536 123.7500
" />
<path d="M119.5000 124.2500
L121.1108 122.6392
" />
<path d="M121.1108 122.6392
L121.1143 122.6392
" />
<path d="M130.8608 122.6392
L131.1143 122.6392
" />
<path d="M129.5000 124.0000
L130.8608 122.6392
" />
<path d="M141.1108 122.6392
L141.3643 122.6392
" />
<path d="M139.5000 124.2500
L141.1108 122.6392
" />
<path d="M151.1108 122.3892
L151.3643 122.3892
" />
<path d="M149.5000 124.0000
L151.1108 122.3892
" />
<path d="M159.8786 123.5000
L161.1143 122.2642
" />
<path d="M159.5000 123.5000
L159.8786 123.5000
" />
<path d="M170.3643 122.3857
L170.3643 122.2642
" />
<path d="M169.0000 123.7500
L170.3643 122.3857
" />
<path d="M179.1108 122.1392
L179.8643 122.1392
" />
<path d="M177.5000 123.7500
L179.1108 122.1392
" />
<path d="M187.7500 123.7500
L189.3608 122.1392
" />
<path d="M189.3608 122.1392
L189.6143 122.1392
" />
<path d="M191.2500 130.7500
L99.1001 130.7500
" />
<path d="M96.6143 122.2642
L96.6143 128.2642
" />
<path d="M96.6143 99.0142
L96.6143 103.2642
" />
<path d="M96.6143 118.7642
L96.6143 122.2642
" />
<path d="M195.5207 126.4793
L191.2500 130.7500
" />
<path d="M96.6143 93.0142
L96.6143 99.0142
" />
<path d="M96.6143 109.2642
L96.6143 112.7642
" />
<path d="M96.6143 112.7642
L96.6143 112.7642
" />
<path d="M96.6143 103.2642
L96.6143 109.2642
" />
<path d="M99.1001 130.7500
L96.6143 128.2642
" />
<path d="M96.6143 122.2642
L96.6143 122.2642
" />
<path d="M96.6143 112.7642
L96.6143 118.7642
" />
<path d="M195.0000 125.5000
L190.5000 130.0000
" />
<path d="M107.1143 99.0142
L107.1143 93.0142
" />
<path d="M107.1143 122.6392
L107.1143 118.7642
" />
<path d="M107.1143 118.7642
L107.1143 112.7642
" />
<path d="M107.1143 128.6392
L107.1143 122.6392
" />
<path d="M190.5000 130.0000
L109.2216 130.0000
" />
<path d="M107.1143 109.2642
L107.1143 103.2642
" />
<path d="M107.8608 128.6392
L107.1143 128.6392
" />
<path d="M107.1143 112.7642
L107.1143 109.2642
" />
<path d="M109.2216 130.0000
L107.8608 128.6392
" />
<path d="M107.1143 99.0142
L107.1143 103.2642
" />
<path d="M117.3643 102.0000
L117.3643 108.6392
" />
<path d="M117.3643 122.6392
L117.3643 128.6392
" />
<path d="M117.3643 92.8892
L117.3643 98.8892
" />
<path d="M194.2500 125.0000
L189.7500 129.5000
" />
<path d="M117.3643 102.0000
L117.3643 102.6392
" />
<path d="M117.3643 102.6392
L117.3643 102.6392
" />
<path d="M117.3643 108.6392
L117.3643 112.1392
" />
<path d="M117.3643 112.1392
L117.3643 118.1392
" />
<path d="M117.3643 118.1392
L117.3643 122.6392
" />
<path d="M117.3643 98.8892
L117.3643 102.0000
" />
<path d="M117.3643 102.0000
L117.3643 102.0000
" />
<path d="M118.2251 129.5000
L117.3643 128.6392
" />
<path d="M189.7500 129.5000
L118.2251 129.5000
" />
<path d="M127.1143 112.1392
L127.1143 108.6392
" />
<path d="M127.3643 122.6392
L127.3643 118.3892
" />
<path d="M127.1143 118.1392
L127.1143 112.1392
" />
<path d="M134.7500 112.5000
L133.5882 111.3382
" />
<path d="M127.3643 118.3892
L127.1143 118.1392
" />
<path d="M127.9153 111.3382
L127.1143 112.1392
" />
<path d="M133.5882 111.3382
L127.9153 111.3382
" />
<path d="M127.3643 128.6392
L127.3643 122.6392
" />
<path d="M127.3643 108.3892
L127.3643 102.3892
" />
<path d="M127.1143 108.6392
L127.3643 108.3892
" />
<path d="M127.3643 102.3892
L127.3643 99.0142
" />
<path d="M127.3643 99.0142
L127.3643 93.0142
" />
<path d="M127.3643 99.0142
L127.3643 99.0142
" />
<path d="M195.7500 113.7500
L194.6490 114.8510
" />
<path d="M194.6490 114.8510
L140.7776 114.8510
" />
<path d="M137.3643 92.8892
L137.3643 98.8892
" />
<path d="M138.0643 117.5643
L137.6143 118.0142
" />
<path d="M137.6143 117.1143
L138.0643 117.5643
" />
<path d="M137.3643 98.8892
L137.3643 102.1392
" />
<path d="M137.3643 102.1392
L137.3643 108.1392
" />
<path d="M137.6143 122.6392
L137.6143 128.6392
" />
<path d="M137.6143 108.3892
L137.3643 108.1392
" />
<path d="M137.6143 122.6392
L137.6143 122.6392
" />
<path d="M137.6143 118.0142
L137.6143 122.6392
" />
<path d="M137.6143 112.0142
L137.6143 108.3892
" />
<path d="M140.7776 114.8510
L138.0643 117.5643
" />
<path d="M137.6143 112.0142
L137.6143 117.1143
" />
<path d="M191.7500 105.4520
L191.1490 104.8510
" />
<path d="M147.6143 117.8892
L147.6143 122.3892
" />
<path d="M147.6143 111.8892
L147.6143 108.3892
" />
<path d="M147.1143 102.5892
L147.1143 101.8892
" />
<path d="M147.6143 128.3892
L147.6143 122.3892
" />
<path d="M147.1143 98.6392
L147.1143 92.6392
" />
<path d="M147.6143 108.3892
L147.1143 107.8892
" />
<path d="M191.1490 104.8510
L149.3761 104.8510
" />
<path d="M149.3761 104.8510
L147.1143 102.5892
" />
<path d="M147.1143 101.8892
L147.1143 98.6392
" />
<path d="M191.7500 105.7500
L191.7500 105.4520
" />
<path d="M156.8643 98.6392
L156.8643 101.3892
" />
<path d="M156.8643 101.3892
L157.1143 101.6392
" />
<path d="M159.7470 91.7500
L157.7536 91.7500
" />
<path d="M157.3643 117.6392
L157.3643 122.2642
" />
<path d="M157.3643 122.2642
L157.3643 122.2642
" />
<path d="M157.1143 107.6392
L157.1143 111.3892
" />
<path d="M157.7536 91.7500
L156.8643 92.6392
" />
<path d="M157.1143 111.3892
L157.3643 111.6392
" />
<path d="M166.6143 98.8892
L166.3643 98.6392
" />
<path d="M166.6143 111.7642
L166.6143 107.6392
" />
<path d="M168.0036 91.0000
L166.3643 92.6392
" />
<path d="M166.6143 101.6392
L166.6143 98.8892
" />
<path d="M169.0000 91.0000
L168.0036 91.0000
" />
<path d="M166.6143 122.2642
L166.6143 117.7642
" />
<path d="M175.8643 98.5142
L175.8643 101.6392
" />
<path d="M178.5000 90.4000
L177.9786 90.4000
" />
<path d="M177.9786 90.4000
L175.8643 92.5142
" />
<path d="M175.8643 107.6392
L175.8643 111.8892
" />
<path d="M185.8643 107.8892
L185.8643 111.8892
" />
<path d="M185.8643 117.8892
L185.8643 122.1392
" />
<path d="M186.9858 92.5142
L185.6143 92.5142
" />
<path d="M185.6143 98.5142
L185.6143 101.6392
" />
<path d="M185.6143 101.6392
L185.8643 101.8892
" />
<path d="M188.2500 91.2500
L186.9858 92.5142
" />
<path d="M211.8294 95.4608
L212.9608 95.4608
" />
<path d="M209.5201 97.7701
L211.8294 95.4608
" />
<path d="M211.5000 99.7500
L214.0000 99.7500
" />
<path d="M214.0000 99.7500
L214.5000 100.2500
" />
<path d="M204.9239 102.3663
L204.6114 102.6788
" />
<path d="M204.6114 103.8937
L208.9677 108.2500
" />
<path d="M204.6114 102.6788
L204.6114 103.8937
" />
<path d="M208.9677 108.2500
L211.2500 108.2500
" />
<path d="M214.2500 95.0000
L214.2500 95.0201
" />
<path d="M214.2500 95.0201
L210.5101 98.7600
" />
<path d="M215.2500 94.0000
L214.2500 95.0000
" />
<path d="M206.6210 102.6491
L207.0466 102.6491
" />
<path d="M207.0466 102.6491
L214.0000 109.6025
" />
<path d="M214.0000 109.6025
L214.0000 136.2500
" />
<path d="M205.9139 103.3562
L206.6210 102.6491
" />
<path d="M208.5576 106.0000
L209.0000 106.0000
" />
<path d="M206.9038 104.3462
L208.5576 106.0000
" />
</g> 
</svg>
