<?xml version="1.0" standalone="no"?>
 <!DOCTYPE svg PUBLIC "-//W3C//DTD SVG 1.1//EN" 
 "http://www.w3.org/Graphics/SVG/1.1/DTD/svg11.dtd"> 
<svg
  xmlns:svg="http://www.w3.org/2000/svg"
  xmlns="http://www.w3.org/2000/svg"
  xmlns:xlink="http://www.w3.org/1999/xlink"
  version="1.1"
  width="297.0022mm" height="210.0072mm" viewBox="0.0000 0.0000 297.0022 210.0072">
<title>SVG Image created as brownberryKeeb-F_Paste.svg date 2025/04/23 13:35:45 </title>
  <desc>Image generated by PCBNEW </desc>
<g style="fill:#000000; fill-opacity:1.0000;stroke:#000000; stroke-opacity:1.0000;
stroke-linecap:round; stroke-linejoin:round;"
 transform="translate(0 0) scale(1 1)">
<path style="fill:#000000; fill-opacity:1.0000; stroke:none;fill-rule:evenodd;"
d="M 137.9893,123.1392
137.2393,123.1392
137.2393,122.1392
137.9893,122.1392
Z" /> 
<path style="fill:#000000; fill-opacity:1.0000; stroke:none;fill-rule:evenodd;"
d="M 137.9893,129.1392
137.2393,129.1392
137.2393,128.1392
137.9893,128.1392
Z" /> 
<path style="fill:#000000; fill-opacity:1.0000; stroke:none;fill-rule:evenodd;"
d="M 141.7393,123.1392
140.9893,123.1392
140.9893,122.1392
141.7393,122.1392
Z" /> 
<path style="fill:#000000; fill-opacity:1.0000; stroke:none;fill-rule:evenodd;"
d="M 141.7393,129.1392
140.9893,129.1392
140.9893,128.1392
141.7393,128.1392
Z" /> 
<path style="fill:#000000; fill-opacity:1.0000; stroke:none;fill-rule:evenodd;"
d="M 166.9893,112.2642
166.2393,112.2642
166.2393,111.2642
166.9893,111.2642
Z" /> 
<path style="fill:#000000; fill-opacity:1.0000; stroke:none;fill-rule:evenodd;"
d="M 166.9893,118.2642
166.2393,118.2642
166.2393,117.2642
166.9893,117.2642
Z" /> 
<path style="fill:#000000; fill-opacity:1.0000; stroke:none;fill-rule:evenodd;"
d="M 170.7393,112.2642
169.9893,112.2642
169.9893,111.2642
170.7393,111.2642
Z" /> 
<path style="fill:#000000; fill-opacity:1.0000; stroke:none;fill-rule:evenodd;"
d="M 170.7393,118.2642
169.9893,118.2642
169.9893,117.2642
170.7393,117.2642
Z" /> 
<path style="fill:#000000; fill-opacity:1.0000; stroke:none;fill-rule:evenodd;"
d="M 147.9893,122.8892
147.2393,122.8892
147.2393,121.8892
147.9893,121.8892
Z" /> 
<path style="fill:#000000; fill-opacity:1.0000; stroke:none;fill-rule:evenodd;"
d="M 147.9893,128.8892
147.2393,128.8892
147.2393,127.8892
147.9893,127.8892
Z" /> 
<path style="fill:#000000; fill-opacity:1.0000; stroke:none;fill-rule:evenodd;"
d="M 151.7393,122.8892
150.9893,122.8892
150.9893,121.8892
151.7393,121.8892
Z" /> 
<path style="fill:#000000; fill-opacity:1.0000; stroke:none;fill-rule:evenodd;"
d="M 151.7393,128.8892
150.9893,128.8892
150.9893,127.8892
151.7393,127.8892
Z" /> 
<path style="fill:#000000; fill-opacity:1.0000; stroke:none;fill-rule:evenodd;"
d="M 166.7393,93.1392
165.9893,93.1392
165.9893,92.1392
166.7393,92.1392
Z" /> 
<path style="fill:#000000; fill-opacity:1.0000; stroke:none;fill-rule:evenodd;"
d="M 166.7393,99.1392
165.9893,99.1392
165.9893,98.1392
166.7393,98.1392
Z" /> 
<path style="fill:#000000; fill-opacity:1.0000; stroke:none;fill-rule:evenodd;"
d="M 170.4893,93.1392
169.7393,93.1392
169.7393,92.1392
170.4893,92.1392
Z" /> 
<path style="fill:#000000; fill-opacity:1.0000; stroke:none;fill-rule:evenodd;"
d="M 170.4893,99.1392
169.7393,99.1392
169.7393,98.1392
170.4893,98.1392
Z" /> 
<path style="fill:#000000; fill-opacity:1.0000; stroke:none;fill-rule:evenodd;"
d="M 176.2393,93.0142
175.4893,93.0142
175.4893,92.0142
176.2393,92.0142
Z" /> 
<path style="fill:#000000; fill-opacity:1.0000; stroke:none;fill-rule:evenodd;"
d="M 176.2393,99.0142
175.4893,99.0142
175.4893,98.0142
176.2393,98.0142
Z" /> 
<path style="fill:#000000; fill-opacity:1.0000; stroke:none;fill-rule:evenodd;"
d="M 179.9893,93.0142
179.2393,93.0142
179.2393,92.0142
179.9893,92.0142
Z" /> 
<path style="fill:#000000; fill-opacity:1.0000; stroke:none;fill-rule:evenodd;"
d="M 179.9893,99.0142
179.2393,99.0142
179.2393,98.0142
179.9893,98.0142
Z" /> 
<path style="fill:#000000; fill-opacity:1.0000; stroke:none;fill-rule:evenodd;"
d="M 176.2393,102.1392
175.4893,102.1392
175.4893,101.1392
176.2393,101.1392
Z" /> 
<path style="fill:#000000; fill-opacity:1.0000; stroke:none;fill-rule:evenodd;"
d="M 176.2393,108.1392
175.4893,108.1392
175.4893,107.1392
176.2393,107.1392
Z" /> 
<path style="fill:#000000; fill-opacity:1.0000; stroke:none;fill-rule:evenodd;"
d="M 179.9893,102.1392
179.2393,102.1392
179.2393,101.1392
179.9893,101.1392
Z" /> 
<path style="fill:#000000; fill-opacity:1.0000; stroke:none;fill-rule:evenodd;"
d="M 179.9893,108.1392
179.2393,108.1392
179.2393,107.1392
179.9893,107.1392
Z" /> 
<path style="fill:#000000; fill-opacity:1.0000; stroke:none;fill-rule:evenodd;"
d="M 137.9893,112.5142
137.2393,112.5142
137.2393,111.5142
137.9893,111.5142
Z" /> 
<path style="fill:#000000; fill-opacity:1.0000; stroke:none;fill-rule:evenodd;"
d="M 137.9893,118.5142
137.2393,118.5142
137.2393,117.5142
137.9893,117.5142
Z" /> 
<path style="fill:#000000; fill-opacity:1.0000; stroke:none;fill-rule:evenodd;"
d="M 141.7393,112.5142
140.9893,112.5142
140.9893,111.5142
141.7393,111.5142
Z" /> 
<path style="fill:#000000; fill-opacity:1.0000; stroke:none;fill-rule:evenodd;"
d="M 141.7393,118.5142
140.9893,118.5142
140.9893,117.5142
141.7393,117.5142
Z" /> 
<path style="fill:#000000; fill-opacity:1.0000; stroke:none;fill-rule:evenodd;"
d="M 107.4893,93.5142
106.7393,93.5142
106.7393,92.5142
107.4893,92.5142
Z" /> 
<path style="fill:#000000; fill-opacity:1.0000; stroke:none;fill-rule:evenodd;"
d="M 107.4893,99.5142
106.7393,99.5142
106.7393,98.5142
107.4893,98.5142
Z" /> 
<path style="fill:#000000; fill-opacity:1.0000; stroke:none;fill-rule:evenodd;"
d="M 111.2393,93.5142
110.4893,93.5142
110.4893,92.5142
111.2393,92.5142
Z" /> 
<path style="fill:#000000; fill-opacity:1.0000; stroke:none;fill-rule:evenodd;"
d="M 111.2393,99.5142
110.4893,99.5142
110.4893,98.5142
111.2393,98.5142
Z" /> 
<path style="fill:#000000; fill-opacity:1.0000; stroke:none;fill-rule:evenodd;"
d="M 96.9893,113.2642
96.2393,113.2642
96.2393,112.2642
96.9893,112.2642
Z" /> 
<path style="fill:#000000; fill-opacity:1.0000; stroke:none;fill-rule:evenodd;"
d="M 96.9893,119.2642
96.2393,119.2642
96.2393,118.2642
96.9893,118.2642
Z" /> 
<path style="fill:#000000; fill-opacity:1.0000; stroke:none;fill-rule:evenodd;"
d="M 100.7393,113.2642
99.9893,113.2642
99.9893,112.2642
100.7393,112.2642
Z" /> 
<path style="fill:#000000; fill-opacity:1.0000; stroke:none;fill-rule:evenodd;"
d="M 100.7393,119.2642
99.9893,119.2642
99.9893,118.2642
100.7393,118.2642
Z" /> 
<path style="fill:#000000; fill-opacity:1.0000; stroke:none;fill-rule:evenodd;"
d="M 147.9893,112.3892
147.2393,112.3892
147.2393,111.3892
147.9893,111.3892
Z" /> 
<path style="fill:#000000; fill-opacity:1.0000; stroke:none;fill-rule:evenodd;"
d="M 147.9893,118.3892
147.2393,118.3892
147.2393,117.3892
147.9893,117.3892
Z" /> 
<path style="fill:#000000; fill-opacity:1.0000; stroke:none;fill-rule:evenodd;"
d="M 151.7393,112.3892
150.9893,112.3892
150.9893,111.3892
151.7393,111.3892
Z" /> 
<path style="fill:#000000; fill-opacity:1.0000; stroke:none;fill-rule:evenodd;"
d="M 151.7393,118.3892
150.9893,118.3892
150.9893,117.3892
151.7393,117.3892
Z" /> 
<path style="fill:#000000; fill-opacity:1.0000; stroke:none;fill-rule:evenodd;"
d="M 127.7393,123.1392
126.9893,123.1392
126.9893,122.1392
127.7393,122.1392
Z" /> 
<path style="fill:#000000; fill-opacity:1.0000; stroke:none;fill-rule:evenodd;"
d="M 127.7393,129.1392
126.9893,129.1392
126.9893,128.1392
127.7393,128.1392
Z" /> 
<path style="fill:#000000; fill-opacity:1.0000; stroke:none;fill-rule:evenodd;"
d="M 131.4893,123.1392
130.7393,123.1392
130.7393,122.1392
131.4893,122.1392
Z" /> 
<path style="fill:#000000; fill-opacity:1.0000; stroke:none;fill-rule:evenodd;"
d="M 131.4893,129.1392
130.7393,129.1392
130.7393,128.1392
131.4893,128.1392
Z" /> 
<path style="fill:#000000; fill-opacity:1.0000; stroke:none;fill-rule:evenodd;"
d="M 186.2393,102.3892
185.4893,102.3892
185.4893,101.3892
186.2393,101.3892
Z" /> 
<path style="fill:#000000; fill-opacity:1.0000; stroke:none;fill-rule:evenodd;"
d="M 186.2393,108.3892
185.4893,108.3892
185.4893,107.3892
186.2393,107.3892
Z" /> 
<path style="fill:#000000; fill-opacity:1.0000; stroke:none;fill-rule:evenodd;"
d="M 189.9893,102.3892
189.2393,102.3892
189.2393,101.3892
189.9893,101.3892
Z" /> 
<path style="fill:#000000; fill-opacity:1.0000; stroke:none;fill-rule:evenodd;"
d="M 189.9893,108.3892
189.2393,108.3892
189.2393,107.3892
189.9893,107.3892
Z" /> 
<path style="fill:#000000; fill-opacity:1.0000; stroke:none;fill-rule:evenodd;"
d="M 185.9893,93.0142
185.2393,93.0142
185.2393,92.0142
185.9893,92.0142
Z" /> 
<path style="fill:#000000; fill-opacity:1.0000; stroke:none;fill-rule:evenodd;"
d="M 185.9893,99.0142
185.2393,99.0142
185.2393,98.0142
185.9893,98.0142
Z" /> 
<path style="fill:#000000; fill-opacity:1.0000; stroke:none;fill-rule:evenodd;"
d="M 189.7393,93.0142
188.9893,93.0142
188.9893,92.0142
189.7393,92.0142
Z" /> 
<path style="fill:#000000; fill-opacity:1.0000; stroke:none;fill-rule:evenodd;"
d="M 189.7393,99.0142
188.9893,99.0142
188.9893,98.0142
189.7393,98.0142
Z" /> 
<path style="fill:#000000; fill-opacity:1.0000; stroke:none;fill-rule:evenodd;"
d="M 137.7393,93.3892
136.9893,93.3892
136.9893,92.3892
137.7393,92.3892
Z" /> 
<path style="fill:#000000; fill-opacity:1.0000; stroke:none;fill-rule:evenodd;"
d="M 137.7393,99.3892
136.9893,99.3892
136.9893,98.3892
137.7393,98.3892
Z" /> 
<path style="fill:#000000; fill-opacity:1.0000; stroke:none;fill-rule:evenodd;"
d="M 141.4893,93.3892
140.7393,93.3892
140.7393,92.3892
141.4893,92.3892
Z" /> 
<path style="fill:#000000; fill-opacity:1.0000; stroke:none;fill-rule:evenodd;"
d="M 141.4893,99.3892
140.7393,99.3892
140.7393,98.3892
141.4893,98.3892
Z" /> 
<path style="fill:#000000; fill-opacity:1.0000; stroke:none;fill-rule:evenodd;"
d="M 176.2393,112.3892
175.4893,112.3892
175.4893,111.3892
176.2393,111.3892
Z" /> 
<path style="fill:#000000; fill-opacity:1.0000; stroke:none;fill-rule:evenodd;"
d="M 176.2393,118.3892
175.4893,118.3892
175.4893,117.3892
176.2393,117.3892
Z" /> 
<path style="fill:#000000; fill-opacity:1.0000; stroke:none;fill-rule:evenodd;"
d="M 179.9893,112.3892
179.2393,112.3892
179.2393,111.3892
179.9893,111.3892
Z" /> 
<path style="fill:#000000; fill-opacity:1.0000; stroke:none;fill-rule:evenodd;"
d="M 179.9893,118.3892
179.2393,118.3892
179.2393,117.3892
179.9893,117.3892
Z" /> 
<path style="fill:#000000; fill-opacity:1.0000; stroke:none;fill-rule:evenodd;"
d="M 157.7393,112.1392
156.9893,112.1392
156.9893,111.1392
157.7393,111.1392
Z" /> 
<path style="fill:#000000; fill-opacity:1.0000; stroke:none;fill-rule:evenodd;"
d="M 157.7393,118.1392
156.9893,118.1392
156.9893,117.1392
157.7393,117.1392
Z" /> 
<path style="fill:#000000; fill-opacity:1.0000; stroke:none;fill-rule:evenodd;"
d="M 161.4893,112.1392
160.7393,112.1392
160.7393,111.1392
161.4893,111.1392
Z" /> 
<path style="fill:#000000; fill-opacity:1.0000; stroke:none;fill-rule:evenodd;"
d="M 161.4893,118.1392
160.7393,118.1392
160.7393,117.1392
161.4893,117.1392
Z" /> 
<path style="fill:#000000; fill-opacity:1.0000; stroke:none;fill-rule:evenodd;"
d="M 127.4893,112.6392
126.7393,112.6392
126.7393,111.6392
127.4893,111.6392
Z" /> 
<path style="fill:#000000; fill-opacity:1.0000; stroke:none;fill-rule:evenodd;"
d="M 127.4893,118.6392
126.7393,118.6392
126.7393,117.6392
127.4893,117.6392
Z" /> 
<path style="fill:#000000; fill-opacity:1.0000; stroke:none;fill-rule:evenodd;"
d="M 131.2393,112.6392
130.4893,112.6392
130.4893,111.6392
131.2393,111.6392
Z" /> 
<path style="fill:#000000; fill-opacity:1.0000; stroke:none;fill-rule:evenodd;"
d="M 131.2393,118.6392
130.4893,118.6392
130.4893,117.6392
131.2393,117.6392
Z" /> 
<path style="fill:#000000; fill-opacity:1.0000; stroke:none;fill-rule:evenodd;"
d="M 176.4893,122.6392
175.7393,122.6392
175.7393,121.6392
176.4893,121.6392
Z" /> 
<path style="fill:#000000; fill-opacity:1.0000; stroke:none;fill-rule:evenodd;"
d="M 176.4893,128.6392
175.7393,128.6392
175.7393,127.6392
176.4893,127.6392
Z" /> 
<path style="fill:#000000; fill-opacity:1.0000; stroke:none;fill-rule:evenodd;"
d="M 180.2393,122.6392
179.4893,122.6392
179.4893,121.6392
180.2393,121.6392
Z" /> 
<path style="fill:#000000; fill-opacity:1.0000; stroke:none;fill-rule:evenodd;"
d="M 180.2393,128.6392
179.4893,128.6392
179.4893,127.6392
180.2393,127.6392
Z" /> 
<path style="fill:#000000; fill-opacity:1.0000; stroke:none;fill-rule:evenodd;"
d="M 137.7393,102.6392
136.9893,102.6392
136.9893,101.6392
137.7393,101.6392
Z" /> 
<path style="fill:#000000; fill-opacity:1.0000; stroke:none;fill-rule:evenodd;"
d="M 137.7393,108.6392
136.9893,108.6392
136.9893,107.6392
137.7393,107.6392
Z" /> 
<path style="fill:#000000; fill-opacity:1.0000; stroke:none;fill-rule:evenodd;"
d="M 141.4893,102.6392
140.7393,102.6392
140.7393,101.6392
141.4893,101.6392
Z" /> 
<path style="fill:#000000; fill-opacity:1.0000; stroke:none;fill-rule:evenodd;"
d="M 141.4893,108.6392
140.7393,108.6392
140.7393,107.6392
141.4893,107.6392
Z" /> 
<path style="fill:#000000; fill-opacity:1.0000; stroke:none;fill-rule:evenodd;"
d="M 147.4893,102.3892
146.7393,102.3892
146.7393,101.3892
147.4893,101.3892
Z" /> 
<path style="fill:#000000; fill-opacity:1.0000; stroke:none;fill-rule:evenodd;"
d="M 147.4893,108.3892
146.7393,108.3892
146.7393,107.3892
147.4893,107.3892
Z" /> 
<path style="fill:#000000; fill-opacity:1.0000; stroke:none;fill-rule:evenodd;"
d="M 151.2393,102.3892
150.4893,102.3892
150.4893,101.3892
151.2393,101.3892
Z" /> 
<path style="fill:#000000; fill-opacity:1.0000; stroke:none;fill-rule:evenodd;"
d="M 151.2393,108.3892
150.4893,108.3892
150.4893,107.3892
151.2393,107.3892
Z" /> 
<path style="fill:#000000; fill-opacity:1.0000; stroke:none;fill-rule:evenodd;"
d="M 107.4893,113.2642
106.7393,113.2642
106.7393,112.2642
107.4893,112.2642
Z" /> 
<path style="fill:#000000; fill-opacity:1.0000; stroke:none;fill-rule:evenodd;"
d="M 107.4893,119.2642
106.7393,119.2642
106.7393,118.2642
107.4893,118.2642
Z" /> 
<path style="fill:#000000; fill-opacity:1.0000; stroke:none;fill-rule:evenodd;"
d="M 111.2393,113.2642
110.4893,113.2642
110.4893,112.2642
111.2393,112.2642
Z" /> 
<path style="fill:#000000; fill-opacity:1.0000; stroke:none;fill-rule:evenodd;"
d="M 111.2393,119.2642
110.4893,119.2642
110.4893,118.2642
111.2393,118.2642
Z" /> 
<path style="fill:#000000; fill-opacity:1.0000; stroke:none;fill-rule:evenodd;"
d="M 166.9893,122.7642
166.2393,122.7642
166.2393,121.7642
166.9893,121.7642
Z" /> 
<path style="fill:#000000; fill-opacity:1.0000; stroke:none;fill-rule:evenodd;"
d="M 166.9893,128.7642
166.2393,128.7642
166.2393,127.7642
166.9893,127.7642
Z" /> 
<path style="fill:#000000; fill-opacity:1.0000; stroke:none;fill-rule:evenodd;"
d="M 170.7393,122.7642
169.9893,122.7642
169.9893,121.7642
170.7393,121.7642
Z" /> 
<path style="fill:#000000; fill-opacity:1.0000; stroke:none;fill-rule:evenodd;"
d="M 170.7393,128.7642
169.9893,128.7642
169.9893,127.7642
170.7393,127.7642
Z" /> 
<path style="fill:#000000; fill-opacity:1.0000; stroke:none;fill-rule:evenodd;"
d="M 147.4893,93.1392
146.7393,93.1392
146.7393,92.1392
147.4893,92.1392
Z" /> 
<path style="fill:#000000; fill-opacity:1.0000; stroke:none;fill-rule:evenodd;"
d="M 147.4893,99.1392
146.7393,99.1392
146.7393,98.1392
147.4893,98.1392
Z" /> 
<path style="fill:#000000; fill-opacity:1.0000; stroke:none;fill-rule:evenodd;"
d="M 151.2393,93.1392
150.4893,93.1392
150.4893,92.1392
151.2393,92.1392
Z" /> 
<path style="fill:#000000; fill-opacity:1.0000; stroke:none;fill-rule:evenodd;"
d="M 151.2393,99.1392
150.4893,99.1392
150.4893,98.1392
151.2393,98.1392
Z" /> 
<path style="fill:#000000; fill-opacity:1.0000; stroke:none;fill-rule:evenodd;"
d="M 96.9893,103.7642
96.2393,103.7642
96.2393,102.7642
96.9893,102.7642
Z" /> 
<path style="fill:#000000; fill-opacity:1.0000; stroke:none;fill-rule:evenodd;"
d="M 96.9893,109.7642
96.2393,109.7642
96.2393,108.7642
96.9893,108.7642
Z" /> 
<path style="fill:#000000; fill-opacity:1.0000; stroke:none;fill-rule:evenodd;"
d="M 100.7393,103.7642
99.9893,103.7642
99.9893,102.7642
100.7393,102.7642
Z" /> 
<path style="fill:#000000; fill-opacity:1.0000; stroke:none;fill-rule:evenodd;"
d="M 100.7393,109.7642
99.9893,109.7642
99.9893,108.7642
100.7393,108.7642
Z" /> 
<path style="fill:#000000; fill-opacity:1.0000; stroke:none;fill-rule:evenodd;"
d="M 107.4893,123.1392
106.7393,123.1392
106.7393,122.1392
107.4893,122.1392
Z" /> 
<path style="fill:#000000; fill-opacity:1.0000; stroke:none;fill-rule:evenodd;"
d="M 107.4893,129.1392
106.7393,129.1392
106.7393,128.1392
107.4893,128.1392
Z" /> 
<path style="fill:#000000; fill-opacity:1.0000; stroke:none;fill-rule:evenodd;"
d="M 111.2393,123.1392
110.4893,123.1392
110.4893,122.1392
111.2393,122.1392
Z" /> 
<path style="fill:#000000; fill-opacity:1.0000; stroke:none;fill-rule:evenodd;"
d="M 111.2393,129.1392
110.4893,129.1392
110.4893,128.1392
111.2393,128.1392
Z" /> 
<path style="fill:#000000; fill-opacity:1.0000; stroke:none;fill-rule:evenodd;"
d="M 96.9893,122.7642
96.2393,122.7642
96.2393,121.7642
96.9893,121.7642
Z" /> 
<path style="fill:#000000; fill-opacity:1.0000; stroke:none;fill-rule:evenodd;"
d="M 96.9893,128.7642
96.2393,128.7642
96.2393,127.7642
96.9893,127.7642
Z" /> 
<path style="fill:#000000; fill-opacity:1.0000; stroke:none;fill-rule:evenodd;"
d="M 100.7393,122.7642
99.9893,122.7642
99.9893,121.7642
100.7393,121.7642
Z" /> 
<path style="fill:#000000; fill-opacity:1.0000; stroke:none;fill-rule:evenodd;"
d="M 100.7393,128.7642
99.9893,128.7642
99.9893,127.7642
100.7393,127.7642
Z" /> 
<path style="fill:#000000; fill-opacity:1.0000; stroke:none;fill-rule:evenodd;"
d="M 157.2393,93.1392
156.4893,93.1392
156.4893,92.1392
157.2393,92.1392
Z" /> 
<path style="fill:#000000; fill-opacity:1.0000; stroke:none;fill-rule:evenodd;"
d="M 157.2393,99.1392
156.4893,99.1392
156.4893,98.1392
157.2393,98.1392
Z" /> 
<path style="fill:#000000; fill-opacity:1.0000; stroke:none;fill-rule:evenodd;"
d="M 160.9893,93.1392
160.2393,93.1392
160.2393,92.1392
160.9893,92.1392
Z" /> 
<path style="fill:#000000; fill-opacity:1.0000; stroke:none;fill-rule:evenodd;"
d="M 160.9893,99.1392
160.2393,99.1392
160.2393,98.1392
160.9893,98.1392
Z" /> 
<path style="fill:#000000; fill-opacity:1.0000; stroke:none;fill-rule:evenodd;"
d="M 117.7393,112.6392
116.9893,112.6392
116.9893,111.6392
117.7393,111.6392
Z" /> 
<path style="fill:#000000; fill-opacity:1.0000; stroke:none;fill-rule:evenodd;"
d="M 117.7393,118.6392
116.9893,118.6392
116.9893,117.6392
117.7393,117.6392
Z" /> 
<path style="fill:#000000; fill-opacity:1.0000; stroke:none;fill-rule:evenodd;"
d="M 121.4893,112.6392
120.7393,112.6392
120.7393,111.6392
121.4893,111.6392
Z" /> 
<path style="fill:#000000; fill-opacity:1.0000; stroke:none;fill-rule:evenodd;"
d="M 121.4893,118.6392
120.7393,118.6392
120.7393,117.6392
121.4893,117.6392
Z" /> 
<path style="fill:#000000; fill-opacity:1.0000; stroke:none;fill-rule:evenodd;"
d="M 117.7393,123.1392
116.9893,123.1392
116.9893,122.1392
117.7393,122.1392
Z" /> 
<path style="fill:#000000; fill-opacity:1.0000; stroke:none;fill-rule:evenodd;"
d="M 117.7393,129.1392
116.9893,129.1392
116.9893,128.1392
117.7393,128.1392
Z" /> 
<path style="fill:#000000; fill-opacity:1.0000; stroke:none;fill-rule:evenodd;"
d="M 121.4893,123.1392
120.7393,123.1392
120.7393,122.1392
121.4893,122.1392
Z" /> 
<path style="fill:#000000; fill-opacity:1.0000; stroke:none;fill-rule:evenodd;"
d="M 121.4893,129.1392
120.7393,129.1392
120.7393,128.1392
121.4893,128.1392
Z" /> 
<path style="fill:#000000; fill-opacity:1.0000; stroke:none;fill-rule:evenodd;"
d="M 117.7393,103.1392
116.9893,103.1392
116.9893,102.1392
117.7393,102.1392
Z" /> 
<path style="fill:#000000; fill-opacity:1.0000; stroke:none;fill-rule:evenodd;"
d="M 117.7393,109.1392
116.9893,109.1392
116.9893,108.1392
117.7393,108.1392
Z" /> 
<path style="fill:#000000; fill-opacity:1.0000; stroke:none;fill-rule:evenodd;"
d="M 121.4893,103.1392
120.7393,103.1392
120.7393,102.1392
121.4893,102.1392
Z" /> 
<path style="fill:#000000; fill-opacity:1.0000; stroke:none;fill-rule:evenodd;"
d="M 121.4893,109.1392
120.7393,109.1392
120.7393,108.1392
121.4893,108.1392
Z" /> 
<path style="fill:#000000; fill-opacity:1.0000; stroke:none;fill-rule:evenodd;"
d="M 186.2393,122.6392
185.4893,122.6392
185.4893,121.6392
186.2393,121.6392
Z" /> 
<path style="fill:#000000; fill-opacity:1.0000; stroke:none;fill-rule:evenodd;"
d="M 186.2393,128.6392
185.4893,128.6392
185.4893,127.6392
186.2393,127.6392
Z" /> 
<path style="fill:#000000; fill-opacity:1.0000; stroke:none;fill-rule:evenodd;"
d="M 189.9893,122.6392
189.2393,122.6392
189.2393,121.6392
189.9893,121.6392
Z" /> 
<path style="fill:#000000; fill-opacity:1.0000; stroke:none;fill-rule:evenodd;"
d="M 189.9893,128.6392
189.2393,128.6392
189.2393,127.6392
189.9893,127.6392
Z" /> 
<path style="fill:#000000; fill-opacity:1.0000; stroke:none;fill-rule:evenodd;"
d="M 157.7393,122.7642
156.9893,122.7642
156.9893,121.7642
157.7393,121.7642
Z" /> 
<path style="fill:#000000; fill-opacity:1.0000; stroke:none;fill-rule:evenodd;"
d="M 157.7393,128.7642
156.9893,128.7642
156.9893,127.7642
157.7393,127.7642
Z" /> 
<path style="fill:#000000; fill-opacity:1.0000; stroke:none;fill-rule:evenodd;"
d="M 161.4893,122.7642
160.7393,122.7642
160.7393,121.7642
161.4893,121.7642
Z" /> 
<path style="fill:#000000; fill-opacity:1.0000; stroke:none;fill-rule:evenodd;"
d="M 161.4893,128.7642
160.7393,128.7642
160.7393,127.7642
161.4893,127.7642
Z" /> 
<path style="fill:#000000; fill-opacity:1.0000; stroke:none;fill-rule:evenodd;"
d="M 127.7393,93.5142
126.9893,93.5142
126.9893,92.5142
127.7393,92.5142
Z" /> 
<path style="fill:#000000; fill-opacity:1.0000; stroke:none;fill-rule:evenodd;"
d="M 127.7393,99.5142
126.9893,99.5142
126.9893,98.5142
127.7393,98.5142
Z" /> 
<path style="fill:#000000; fill-opacity:1.0000; stroke:none;fill-rule:evenodd;"
d="M 131.4893,93.5142
130.7393,93.5142
130.7393,92.5142
131.4893,92.5142
Z" /> 
<path style="fill:#000000; fill-opacity:1.0000; stroke:none;fill-rule:evenodd;"
d="M 131.4893,99.5142
130.7393,99.5142
130.7393,98.5142
131.4893,98.5142
Z" /> 
<path style="fill:#000000; fill-opacity:1.0000; stroke:none;fill-rule:evenodd;"
d="M 96.9893,93.5142
96.2393,93.5142
96.2393,92.5142
96.9893,92.5142
Z" /> 
<path style="fill:#000000; fill-opacity:1.0000; stroke:none;fill-rule:evenodd;"
d="M 96.9893,99.5142
96.2393,99.5142
96.2393,98.5142
96.9893,98.5142
Z" /> 
<path style="fill:#000000; fill-opacity:1.0000; stroke:none;fill-rule:evenodd;"
d="M 100.7393,93.5142
99.9893,93.5142
99.9893,92.5142
100.7393,92.5142
Z" /> 
<path style="fill:#000000; fill-opacity:1.0000; stroke:none;fill-rule:evenodd;"
d="M 100.7393,99.5142
99.9893,99.5142
99.9893,98.5142
100.7393,98.5142
Z" /> 
<path style="fill:#000000; fill-opacity:1.0000; stroke:none;fill-rule:evenodd;"
d="M 157.4893,102.1392
156.7393,102.1392
156.7393,101.1392
157.4893,101.1392
Z" /> 
<path style="fill:#000000; fill-opacity:1.0000; stroke:none;fill-rule:evenodd;"
d="M 157.4893,108.1392
156.7393,108.1392
156.7393,107.1392
157.4893,107.1392
Z" /> 
<path style="fill:#000000; fill-opacity:1.0000; stroke:none;fill-rule:evenodd;"
d="M 161.2393,102.1392
160.4893,102.1392
160.4893,101.1392
161.2393,101.1392
Z" /> 
<path style="fill:#000000; fill-opacity:1.0000; stroke:none;fill-rule:evenodd;"
d="M 161.2393,108.1392
160.4893,108.1392
160.4893,107.1392
161.2393,107.1392
Z" /> 
<path style="fill:#000000; fill-opacity:1.0000; stroke:none;fill-rule:evenodd;"
d="M 117.7393,93.3892
116.9893,93.3892
116.9893,92.3892
117.7393,92.3892
Z" /> 
<path style="fill:#000000; fill-opacity:1.0000; stroke:none;fill-rule:evenodd;"
d="M 117.7393,99.3892
116.9893,99.3892
116.9893,98.3892
117.7393,98.3892
Z" /> 
<path style="fill:#000000; fill-opacity:1.0000; stroke:none;fill-rule:evenodd;"
d="M 121.4893,93.3892
120.7393,93.3892
120.7393,92.3892
121.4893,92.3892
Z" /> 
<path style="fill:#000000; fill-opacity:1.0000; stroke:none;fill-rule:evenodd;"
d="M 121.4893,99.3892
120.7393,99.3892
120.7393,98.3892
121.4893,98.3892
Z" /> 
<path style="fill:#000000; fill-opacity:1.0000; stroke:none;fill-rule:evenodd;"
d="M 127.7393,102.8892
126.9893,102.8892
126.9893,101.8892
127.7393,101.8892
Z" /> 
<path style="fill:#000000; fill-opacity:1.0000; stroke:none;fill-rule:evenodd;"
d="M 127.7393,108.8892
126.9893,108.8892
126.9893,107.8892
127.7393,107.8892
Z" /> 
<path style="fill:#000000; fill-opacity:1.0000; stroke:none;fill-rule:evenodd;"
d="M 131.4893,102.8892
130.7393,102.8892
130.7393,101.8892
131.4893,101.8892
Z" /> 
<path style="fill:#000000; fill-opacity:1.0000; stroke:none;fill-rule:evenodd;"
d="M 131.4893,108.8892
130.7393,108.8892
130.7393,107.8892
131.4893,107.8892
Z" /> 
<path style="fill:#000000; fill-opacity:1.0000; stroke:none;fill-rule:evenodd;"
d="M 203.9693,102.8259
203.9368,102.7773
203.9254,102.7198
203.9368,102.6624
203.9693,102.6138
205.1714,101.4117
205.2201,101.3792
205.2775,101.3678
205.3349,101.3792
205.3835,101.4117
205.8785,101.9067
205.9110,101.9553
205.9224,102.0127
205.9110,102.0701
205.8785,102.1188
204.6764,103.3209
204.6278,103.3534
204.5704,103.3648
204.5130,103.3534
204.4643,103.3209
Z" /> 
<path style="fill:#000000; fill-opacity:1.0000; stroke:none;fill-rule:evenodd;"
d="M 204.9593,103.8159
204.9267,103.7672
204.9153,103.7098
204.9267,103.6524
204.9593,103.6037
206.1613,102.4016
206.2100,102.3691
206.2674,102.3577
206.3248,102.3691
206.3735,102.4016
206.8685,102.8966
206.9010,102.9453
206.9124,103.0027
206.9010,103.0601
206.8685,103.1088
205.6664,104.3108
205.6177,104.3434
205.5603,104.3548
205.5029,104.3434
205.4542,104.3108
Z" /> 
<path style="fill:#000000; fill-opacity:1.0000; stroke:none;fill-rule:evenodd;"
d="M 205.9492,104.8058
205.9167,104.7571
205.9053,104.6997
205.9167,104.6423
205.9492,104.5937
207.1513,103.3916
207.2000,103.3591
207.2574,103.3477
207.3148,103.3591
207.3634,103.3916
207.8584,103.8866
207.8909,103.9352
207.9023,103.9926
207.8909,104.0500
207.8584,104.0987
206.6563,105.3008
206.6077,105.3333
206.5503,105.3447
206.4929,105.3333
206.4442,105.3008
Z" /> 
<path style="fill:#000000; fill-opacity:1.0000; stroke:none;fill-rule:evenodd;"
d="M 210.5454,100.2096
210.5129,100.1610
210.5015,100.1036
210.5129,100.0462
210.5454,99.9975
211.7475,98.7954
211.7962,98.7629
211.8536,98.7515
211.9110,98.7629
211.9596,98.7954
212.4546,99.2904
212.4871,99.3390
212.4985,99.3964
212.4871,99.4538
212.4546,99.5025
211.2525,100.7046
211.2038,100.7371
211.1464,100.7485
211.0890,100.7371
211.0404,100.7046
Z" /> 
<path style="fill:#000000; fill-opacity:1.0000; stroke:none;fill-rule:evenodd;"
d="M 209.5555,99.2197
209.5229,99.1710
209.5115,99.1136
209.5229,99.0562
209.5555,99.0075
210.7575,97.8055
210.8062,97.7729
210.8636,97.7615
210.9210,97.7729
210.9697,97.8055
211.4646,98.3004
211.4972,98.3491
211.5086,98.4065
211.4972,98.4639
211.4646,98.5126
210.2626,99.7146
210.2139,99.7472
210.1565,99.7586
210.0991,99.7472
210.0504,99.7146
Z" /> 
<path style="fill:#000000; fill-opacity:1.0000; stroke:none;fill-rule:evenodd;"
d="M 208.5655,98.2297
208.5330,98.1811
208.5216,98.1237
208.5330,98.0663
208.5655,98.0176
209.7676,96.8155
209.8163,96.7830
209.8737,96.7716
209.9311,96.7830
209.9797,96.8155
210.4747,97.3105
210.5072,97.3591
210.5186,97.4165
210.5072,97.4740
210.4747,97.5226
209.2726,98.7247
209.2240,98.7572
209.1665,98.7686
209.1091,98.7572
209.0605,98.7247
Z" /> 
<path style="fill:#000000; fill-opacity:1.0000; stroke:none;fill-rule:evenodd;"
d="M 186.2393,112.3892
185.4893,112.3892
185.4893,111.3892
186.2393,111.3892
Z" /> 
<path style="fill:#000000; fill-opacity:1.0000; stroke:none;fill-rule:evenodd;"
d="M 186.2393,118.3892
185.4893,118.3892
185.4893,117.3892
186.2393,117.3892
Z" /> 
<path style="fill:#000000; fill-opacity:1.0000; stroke:none;fill-rule:evenodd;"
d="M 189.9893,112.3892
189.2393,112.3892
189.2393,111.3892
189.9893,111.3892
Z" /> 
<path style="fill:#000000; fill-opacity:1.0000; stroke:none;fill-rule:evenodd;"
d="M 189.9893,118.3892
189.2393,118.3892
189.2393,117.3892
189.9893,117.3892
Z" /> 
<path style="fill:#000000; fill-opacity:1.0000; stroke:none;fill-rule:evenodd;"
d="M 166.9893,102.1392
166.2393,102.1392
166.2393,101.1392
166.9893,101.1392
Z" /> 
<path style="fill:#000000; fill-opacity:1.0000; stroke:none;fill-rule:evenodd;"
d="M 166.9893,108.1392
166.2393,108.1392
166.2393,107.1392
166.9893,107.1392
Z" /> 
<path style="fill:#000000; fill-opacity:1.0000; stroke:none;fill-rule:evenodd;"
d="M 170.7393,102.1392
169.9893,102.1392
169.9893,101.1392
170.7393,101.1392
Z" /> 
<path style="fill:#000000; fill-opacity:1.0000; stroke:none;fill-rule:evenodd;"
d="M 170.7393,108.1392
169.9893,108.1392
169.9893,107.1392
170.7393,107.1392
Z" /> 
<path style="fill:#000000; fill-opacity:1.0000; stroke:none;fill-rule:evenodd;"
d="M 107.4893,103.7642
106.7393,103.7642
106.7393,102.7642
107.4893,102.7642
Z" /> 
<path style="fill:#000000; fill-opacity:1.0000; stroke:none;fill-rule:evenodd;"
d="M 107.4893,109.7642
106.7393,109.7642
106.7393,108.7642
107.4893,108.7642
Z" /> 
<path style="fill:#000000; fill-opacity:1.0000; stroke:none;fill-rule:evenodd;"
d="M 111.2393,103.7642
110.4893,103.7642
110.4893,102.7642
111.2393,102.7642
Z" /> 
<path style="fill:#000000; fill-opacity:1.0000; stroke:none;fill-rule:evenodd;"
d="M 111.2393,109.7642
110.4893,109.7642
110.4893,108.7642
111.2393,108.7642
Z" /> 
</g> 
</svg>
