M48
; DRILL file {KiCad 9.0.1} date 2025-04-14T11:28:08-0600
; FORMAT={-:-/ absolute / metric / decimal}
; #@! TF.CreationDate,2025-04-14T11:28:08-06:00
; #@! TF.GenerationSoftware,Kicad,Pcbnew,9.0.1
; #@! TF.FileFunction,MixedPlating,1,2
FMAT,2
METRIC
; #@! TA.AperFunction,Plated,PTH,ViaDrill
T1C0.300
; #@! TA.AperFunction,NonPlated,NPTH,ComponentDrill
T2C2.100
%
G90
G05
T1
X98.75Y-94.75
X98.75Y-105.5
X98.75Y-124.0
X99.0Y-114.25
X109.0Y-95.0
X109.25Y-105.5
X109.5Y-114.5
X109.75Y-123.75
X119.5Y-104.5
X119.5Y-124.25
X119.75Y-95.0
X120.25Y-114.0
X129.0Y-105.0
X129.5Y-94.75
X129.5Y-114.0
X129.5Y-124.0
X134.75Y-112.5
X139.25Y-94.75
X139.5Y-104.0
X139.5Y-124.25
X139.75Y-114.0
X149.25Y-94.75
X149.5Y-103.5
X149.5Y-124.0
X149.75Y-114.25
X158.75Y-94.5
X159.5Y-103.5
X159.5Y-123.5
X159.747Y-91.75
X159.75Y-114.0
X168.0Y-95.0
X168.5Y-113.5
X168.75Y-104.0
X169.0Y-91.0
X169.0Y-123.75
X177.25Y-94.75
X177.5Y-123.75
X177.75Y-104.0
X178.25Y-113.75
X178.5Y-90.4
X187.25Y-95.0
X187.75Y-113.75
X187.75Y-123.75
X188.0Y-104.0
X188.25Y-91.25
X191.75Y-105.75
X194.25Y-125.0
X195.0Y-125.5
X195.521Y-126.479
X195.75Y-113.75
X209.0Y-106.0
X211.25Y-108.25
X212.961Y-95.461
X214.0Y-136.25
X214.5Y-100.25
X215.25Y-94.0
T2
X94.0Y-88.5
X94.0Y-136.0
X226.5Y-89.0
X226.5Y-146.0
M30
