%TF.GenerationSoftware,KiCad,Pcbnew,9.0.1*%
%TF.CreationDate,2025-04-23T13:29:54-06:00*%
%TF.ProjectId,brownberryKeeb,62726f77-6e62-4657-9272-794b6565622e,rev?*%
%TF.SameCoordinates,Original*%
%TF.FileFunction,Legend,Bot*%
%TF.FilePolarity,Positive*%
%FSLAX46Y46*%
G04 Gerber Fmt 4.6, Leading zero omitted, Abs format (unit mm)*
G04 Created by KiCad (PCBNEW 9.0.1) date 2025-04-23 13:29:54*
%MOMM*%
%LPD*%
G01*
G04 APERTURE LIST*
%ADD10C,0.150000*%
%ADD11C,0.120000*%
G04 APERTURE END LIST*
D10*
X141064285Y-104954819D02*
X141064285Y-103954819D01*
X141064285Y-103954819D02*
X140826190Y-103954819D01*
X140826190Y-103954819D02*
X140683333Y-104002438D01*
X140683333Y-104002438D02*
X140588095Y-104097676D01*
X140588095Y-104097676D02*
X140540476Y-104192914D01*
X140540476Y-104192914D02*
X140492857Y-104383390D01*
X140492857Y-104383390D02*
X140492857Y-104526247D01*
X140492857Y-104526247D02*
X140540476Y-104716723D01*
X140540476Y-104716723D02*
X140588095Y-104811961D01*
X140588095Y-104811961D02*
X140683333Y-104907200D01*
X140683333Y-104907200D02*
X140826190Y-104954819D01*
X140826190Y-104954819D02*
X141064285Y-104954819D01*
X139540476Y-104954819D02*
X140111904Y-104954819D01*
X139826190Y-104954819D02*
X139826190Y-103954819D01*
X139826190Y-103954819D02*
X139921428Y-104097676D01*
X139921428Y-104097676D02*
X140016666Y-104192914D01*
X140016666Y-104192914D02*
X140111904Y-104240533D01*
X138635714Y-103954819D02*
X139111904Y-103954819D01*
X139111904Y-103954819D02*
X139159523Y-104431009D01*
X139159523Y-104431009D02*
X139111904Y-104383390D01*
X139111904Y-104383390D02*
X139016666Y-104335771D01*
X139016666Y-104335771D02*
X138778571Y-104335771D01*
X138778571Y-104335771D02*
X138683333Y-104383390D01*
X138683333Y-104383390D02*
X138635714Y-104431009D01*
X138635714Y-104431009D02*
X138588095Y-104526247D01*
X138588095Y-104526247D02*
X138588095Y-104764342D01*
X138588095Y-104764342D02*
X138635714Y-104859580D01*
X138635714Y-104859580D02*
X138683333Y-104907200D01*
X138683333Y-104907200D02*
X138778571Y-104954819D01*
X138778571Y-104954819D02*
X139016666Y-104954819D01*
X139016666Y-104954819D02*
X139111904Y-104907200D01*
X139111904Y-104907200D02*
X139159523Y-104859580D01*
X149938094Y-94454819D02*
X149938094Y-93454819D01*
X149938094Y-93454819D02*
X149699999Y-93454819D01*
X149699999Y-93454819D02*
X149557142Y-93502438D01*
X149557142Y-93502438D02*
X149461904Y-93597676D01*
X149461904Y-93597676D02*
X149414285Y-93692914D01*
X149414285Y-93692914D02*
X149366666Y-93883390D01*
X149366666Y-93883390D02*
X149366666Y-94026247D01*
X149366666Y-94026247D02*
X149414285Y-94216723D01*
X149414285Y-94216723D02*
X149461904Y-94311961D01*
X149461904Y-94311961D02*
X149557142Y-94407200D01*
X149557142Y-94407200D02*
X149699999Y-94454819D01*
X149699999Y-94454819D02*
X149938094Y-94454819D01*
X148509523Y-93454819D02*
X148699999Y-93454819D01*
X148699999Y-93454819D02*
X148795237Y-93502438D01*
X148795237Y-93502438D02*
X148842856Y-93550057D01*
X148842856Y-93550057D02*
X148938094Y-93692914D01*
X148938094Y-93692914D02*
X148985713Y-93883390D01*
X148985713Y-93883390D02*
X148985713Y-94264342D01*
X148985713Y-94264342D02*
X148938094Y-94359580D01*
X148938094Y-94359580D02*
X148890475Y-94407200D01*
X148890475Y-94407200D02*
X148795237Y-94454819D01*
X148795237Y-94454819D02*
X148604761Y-94454819D01*
X148604761Y-94454819D02*
X148509523Y-94407200D01*
X148509523Y-94407200D02*
X148461904Y-94359580D01*
X148461904Y-94359580D02*
X148414285Y-94264342D01*
X148414285Y-94264342D02*
X148414285Y-94026247D01*
X148414285Y-94026247D02*
X148461904Y-93931009D01*
X148461904Y-93931009D02*
X148509523Y-93883390D01*
X148509523Y-93883390D02*
X148604761Y-93835771D01*
X148604761Y-93835771D02*
X148795237Y-93835771D01*
X148795237Y-93835771D02*
X148890475Y-93883390D01*
X148890475Y-93883390D02*
X148938094Y-93931009D01*
X148938094Y-93931009D02*
X148985713Y-94026247D01*
X178314285Y-123704819D02*
X178314285Y-122704819D01*
X178314285Y-122704819D02*
X178076190Y-122704819D01*
X178076190Y-122704819D02*
X177933333Y-122752438D01*
X177933333Y-122752438D02*
X177838095Y-122847676D01*
X177838095Y-122847676D02*
X177790476Y-122942914D01*
X177790476Y-122942914D02*
X177742857Y-123133390D01*
X177742857Y-123133390D02*
X177742857Y-123276247D01*
X177742857Y-123276247D02*
X177790476Y-123466723D01*
X177790476Y-123466723D02*
X177838095Y-123561961D01*
X177838095Y-123561961D02*
X177933333Y-123657200D01*
X177933333Y-123657200D02*
X178076190Y-123704819D01*
X178076190Y-123704819D02*
X178314285Y-123704819D01*
X177409523Y-122704819D02*
X176790476Y-122704819D01*
X176790476Y-122704819D02*
X177123809Y-123085771D01*
X177123809Y-123085771D02*
X176980952Y-123085771D01*
X176980952Y-123085771D02*
X176885714Y-123133390D01*
X176885714Y-123133390D02*
X176838095Y-123181009D01*
X176838095Y-123181009D02*
X176790476Y-123276247D01*
X176790476Y-123276247D02*
X176790476Y-123514342D01*
X176790476Y-123514342D02*
X176838095Y-123609580D01*
X176838095Y-123609580D02*
X176885714Y-123657200D01*
X176885714Y-123657200D02*
X176980952Y-123704819D01*
X176980952Y-123704819D02*
X177266666Y-123704819D01*
X177266666Y-123704819D02*
X177361904Y-123657200D01*
X177361904Y-123657200D02*
X177409523Y-123609580D01*
X176314285Y-123704819D02*
X176123809Y-123704819D01*
X176123809Y-123704819D02*
X176028571Y-123657200D01*
X176028571Y-123657200D02*
X175980952Y-123609580D01*
X175980952Y-123609580D02*
X175885714Y-123466723D01*
X175885714Y-123466723D02*
X175838095Y-123276247D01*
X175838095Y-123276247D02*
X175838095Y-122895295D01*
X175838095Y-122895295D02*
X175885714Y-122800057D01*
X175885714Y-122800057D02*
X175933333Y-122752438D01*
X175933333Y-122752438D02*
X176028571Y-122704819D01*
X176028571Y-122704819D02*
X176219047Y-122704819D01*
X176219047Y-122704819D02*
X176314285Y-122752438D01*
X176314285Y-122752438D02*
X176361904Y-122800057D01*
X176361904Y-122800057D02*
X176409523Y-122895295D01*
X176409523Y-122895295D02*
X176409523Y-123133390D01*
X176409523Y-123133390D02*
X176361904Y-123228628D01*
X176361904Y-123228628D02*
X176314285Y-123276247D01*
X176314285Y-123276247D02*
X176219047Y-123323866D01*
X176219047Y-123323866D02*
X176028571Y-123323866D01*
X176028571Y-123323866D02*
X175933333Y-123276247D01*
X175933333Y-123276247D02*
X175885714Y-123228628D01*
X175885714Y-123228628D02*
X175838095Y-123133390D01*
X110514285Y-104954819D02*
X110514285Y-103954819D01*
X110514285Y-103954819D02*
X110276190Y-103954819D01*
X110276190Y-103954819D02*
X110133333Y-104002438D01*
X110133333Y-104002438D02*
X110038095Y-104097676D01*
X110038095Y-104097676D02*
X109990476Y-104192914D01*
X109990476Y-104192914D02*
X109942857Y-104383390D01*
X109942857Y-104383390D02*
X109942857Y-104526247D01*
X109942857Y-104526247D02*
X109990476Y-104716723D01*
X109990476Y-104716723D02*
X110038095Y-104811961D01*
X110038095Y-104811961D02*
X110133333Y-104907200D01*
X110133333Y-104907200D02*
X110276190Y-104954819D01*
X110276190Y-104954819D02*
X110514285Y-104954819D01*
X108990476Y-104954819D02*
X109561904Y-104954819D01*
X109276190Y-104954819D02*
X109276190Y-103954819D01*
X109276190Y-103954819D02*
X109371428Y-104097676D01*
X109371428Y-104097676D02*
X109466666Y-104192914D01*
X109466666Y-104192914D02*
X109561904Y-104240533D01*
X108609523Y-104050057D02*
X108561904Y-104002438D01*
X108561904Y-104002438D02*
X108466666Y-103954819D01*
X108466666Y-103954819D02*
X108228571Y-103954819D01*
X108228571Y-103954819D02*
X108133333Y-104002438D01*
X108133333Y-104002438D02*
X108085714Y-104050057D01*
X108085714Y-104050057D02*
X108038095Y-104145295D01*
X108038095Y-104145295D02*
X108038095Y-104240533D01*
X108038095Y-104240533D02*
X108085714Y-104383390D01*
X108085714Y-104383390D02*
X108657142Y-104954819D01*
X108657142Y-104954819D02*
X108038095Y-104954819D01*
X161014285Y-113954819D02*
X161014285Y-112954819D01*
X161014285Y-112954819D02*
X160776190Y-112954819D01*
X160776190Y-112954819D02*
X160633333Y-113002438D01*
X160633333Y-113002438D02*
X160538095Y-113097676D01*
X160538095Y-113097676D02*
X160490476Y-113192914D01*
X160490476Y-113192914D02*
X160442857Y-113383390D01*
X160442857Y-113383390D02*
X160442857Y-113526247D01*
X160442857Y-113526247D02*
X160490476Y-113716723D01*
X160490476Y-113716723D02*
X160538095Y-113811961D01*
X160538095Y-113811961D02*
X160633333Y-113907200D01*
X160633333Y-113907200D02*
X160776190Y-113954819D01*
X160776190Y-113954819D02*
X161014285Y-113954819D01*
X160061904Y-113050057D02*
X160014285Y-113002438D01*
X160014285Y-113002438D02*
X159919047Y-112954819D01*
X159919047Y-112954819D02*
X159680952Y-112954819D01*
X159680952Y-112954819D02*
X159585714Y-113002438D01*
X159585714Y-113002438D02*
X159538095Y-113050057D01*
X159538095Y-113050057D02*
X159490476Y-113145295D01*
X159490476Y-113145295D02*
X159490476Y-113240533D01*
X159490476Y-113240533D02*
X159538095Y-113383390D01*
X159538095Y-113383390D02*
X160109523Y-113954819D01*
X160109523Y-113954819D02*
X159490476Y-113954819D01*
X159157142Y-112954819D02*
X158490476Y-112954819D01*
X158490476Y-112954819D02*
X158919047Y-113954819D01*
X100014285Y-104954819D02*
X100014285Y-103954819D01*
X100014285Y-103954819D02*
X99776190Y-103954819D01*
X99776190Y-103954819D02*
X99633333Y-104002438D01*
X99633333Y-104002438D02*
X99538095Y-104097676D01*
X99538095Y-104097676D02*
X99490476Y-104192914D01*
X99490476Y-104192914D02*
X99442857Y-104383390D01*
X99442857Y-104383390D02*
X99442857Y-104526247D01*
X99442857Y-104526247D02*
X99490476Y-104716723D01*
X99490476Y-104716723D02*
X99538095Y-104811961D01*
X99538095Y-104811961D02*
X99633333Y-104907200D01*
X99633333Y-104907200D02*
X99776190Y-104954819D01*
X99776190Y-104954819D02*
X100014285Y-104954819D01*
X98490476Y-104954819D02*
X99061904Y-104954819D01*
X98776190Y-104954819D02*
X98776190Y-103954819D01*
X98776190Y-103954819D02*
X98871428Y-104097676D01*
X98871428Y-104097676D02*
X98966666Y-104192914D01*
X98966666Y-104192914D02*
X99061904Y-104240533D01*
X97538095Y-104954819D02*
X98109523Y-104954819D01*
X97823809Y-104954819D02*
X97823809Y-103954819D01*
X97823809Y-103954819D02*
X97919047Y-104097676D01*
X97919047Y-104097676D02*
X98014285Y-104192914D01*
X98014285Y-104192914D02*
X98109523Y-104240533D01*
X170064285Y-104954819D02*
X170064285Y-103954819D01*
X170064285Y-103954819D02*
X169826190Y-103954819D01*
X169826190Y-103954819D02*
X169683333Y-104002438D01*
X169683333Y-104002438D02*
X169588095Y-104097676D01*
X169588095Y-104097676D02*
X169540476Y-104192914D01*
X169540476Y-104192914D02*
X169492857Y-104383390D01*
X169492857Y-104383390D02*
X169492857Y-104526247D01*
X169492857Y-104526247D02*
X169540476Y-104716723D01*
X169540476Y-104716723D02*
X169588095Y-104811961D01*
X169588095Y-104811961D02*
X169683333Y-104907200D01*
X169683333Y-104907200D02*
X169826190Y-104954819D01*
X169826190Y-104954819D02*
X170064285Y-104954819D01*
X168540476Y-104954819D02*
X169111904Y-104954819D01*
X168826190Y-104954819D02*
X168826190Y-103954819D01*
X168826190Y-103954819D02*
X168921428Y-104097676D01*
X168921428Y-104097676D02*
X169016666Y-104192914D01*
X169016666Y-104192914D02*
X169111904Y-104240533D01*
X167969047Y-104383390D02*
X168064285Y-104335771D01*
X168064285Y-104335771D02*
X168111904Y-104288152D01*
X168111904Y-104288152D02*
X168159523Y-104192914D01*
X168159523Y-104192914D02*
X168159523Y-104145295D01*
X168159523Y-104145295D02*
X168111904Y-104050057D01*
X168111904Y-104050057D02*
X168064285Y-104002438D01*
X168064285Y-104002438D02*
X167969047Y-103954819D01*
X167969047Y-103954819D02*
X167778571Y-103954819D01*
X167778571Y-103954819D02*
X167683333Y-104002438D01*
X167683333Y-104002438D02*
X167635714Y-104050057D01*
X167635714Y-104050057D02*
X167588095Y-104145295D01*
X167588095Y-104145295D02*
X167588095Y-104192914D01*
X167588095Y-104192914D02*
X167635714Y-104288152D01*
X167635714Y-104288152D02*
X167683333Y-104335771D01*
X167683333Y-104335771D02*
X167778571Y-104383390D01*
X167778571Y-104383390D02*
X167969047Y-104383390D01*
X167969047Y-104383390D02*
X168064285Y-104431009D01*
X168064285Y-104431009D02*
X168111904Y-104478628D01*
X168111904Y-104478628D02*
X168159523Y-104573866D01*
X168159523Y-104573866D02*
X168159523Y-104764342D01*
X168159523Y-104764342D02*
X168111904Y-104859580D01*
X168111904Y-104859580D02*
X168064285Y-104907200D01*
X168064285Y-104907200D02*
X167969047Y-104954819D01*
X167969047Y-104954819D02*
X167778571Y-104954819D01*
X167778571Y-104954819D02*
X167683333Y-104907200D01*
X167683333Y-104907200D02*
X167635714Y-104859580D01*
X167635714Y-104859580D02*
X167588095Y-104764342D01*
X167588095Y-104764342D02*
X167588095Y-104573866D01*
X167588095Y-104573866D02*
X167635714Y-104478628D01*
X167635714Y-104478628D02*
X167683333Y-104431009D01*
X167683333Y-104431009D02*
X167778571Y-104383390D01*
X178014285Y-104954819D02*
X178014285Y-103954819D01*
X178014285Y-103954819D02*
X177776190Y-103954819D01*
X177776190Y-103954819D02*
X177633333Y-104002438D01*
X177633333Y-104002438D02*
X177538095Y-104097676D01*
X177538095Y-104097676D02*
X177490476Y-104192914D01*
X177490476Y-104192914D02*
X177442857Y-104383390D01*
X177442857Y-104383390D02*
X177442857Y-104526247D01*
X177442857Y-104526247D02*
X177490476Y-104716723D01*
X177490476Y-104716723D02*
X177538095Y-104811961D01*
X177538095Y-104811961D02*
X177633333Y-104907200D01*
X177633333Y-104907200D02*
X177776190Y-104954819D01*
X177776190Y-104954819D02*
X178014285Y-104954819D01*
X176490476Y-104954819D02*
X177061904Y-104954819D01*
X176776190Y-104954819D02*
X176776190Y-103954819D01*
X176776190Y-103954819D02*
X176871428Y-104097676D01*
X176871428Y-104097676D02*
X176966666Y-104192914D01*
X176966666Y-104192914D02*
X177061904Y-104240533D01*
X176014285Y-104954819D02*
X175823809Y-104954819D01*
X175823809Y-104954819D02*
X175728571Y-104907200D01*
X175728571Y-104907200D02*
X175680952Y-104859580D01*
X175680952Y-104859580D02*
X175585714Y-104716723D01*
X175585714Y-104716723D02*
X175538095Y-104526247D01*
X175538095Y-104526247D02*
X175538095Y-104145295D01*
X175538095Y-104145295D02*
X175585714Y-104050057D01*
X175585714Y-104050057D02*
X175633333Y-104002438D01*
X175633333Y-104002438D02*
X175728571Y-103954819D01*
X175728571Y-103954819D02*
X175919047Y-103954819D01*
X175919047Y-103954819D02*
X176014285Y-104002438D01*
X176014285Y-104002438D02*
X176061904Y-104050057D01*
X176061904Y-104050057D02*
X176109523Y-104145295D01*
X176109523Y-104145295D02*
X176109523Y-104383390D01*
X176109523Y-104383390D02*
X176061904Y-104478628D01*
X176061904Y-104478628D02*
X176014285Y-104526247D01*
X176014285Y-104526247D02*
X175919047Y-104573866D01*
X175919047Y-104573866D02*
X175728571Y-104573866D01*
X175728571Y-104573866D02*
X175633333Y-104526247D01*
X175633333Y-104526247D02*
X175585714Y-104478628D01*
X175585714Y-104478628D02*
X175538095Y-104383390D01*
X150564285Y-123704819D02*
X150564285Y-122704819D01*
X150564285Y-122704819D02*
X150326190Y-122704819D01*
X150326190Y-122704819D02*
X150183333Y-122752438D01*
X150183333Y-122752438D02*
X150088095Y-122847676D01*
X150088095Y-122847676D02*
X150040476Y-122942914D01*
X150040476Y-122942914D02*
X149992857Y-123133390D01*
X149992857Y-123133390D02*
X149992857Y-123276247D01*
X149992857Y-123276247D02*
X150040476Y-123466723D01*
X150040476Y-123466723D02*
X150088095Y-123561961D01*
X150088095Y-123561961D02*
X150183333Y-123657200D01*
X150183333Y-123657200D02*
X150326190Y-123704819D01*
X150326190Y-123704819D02*
X150564285Y-123704819D01*
X149659523Y-122704819D02*
X149040476Y-122704819D01*
X149040476Y-122704819D02*
X149373809Y-123085771D01*
X149373809Y-123085771D02*
X149230952Y-123085771D01*
X149230952Y-123085771D02*
X149135714Y-123133390D01*
X149135714Y-123133390D02*
X149088095Y-123181009D01*
X149088095Y-123181009D02*
X149040476Y-123276247D01*
X149040476Y-123276247D02*
X149040476Y-123514342D01*
X149040476Y-123514342D02*
X149088095Y-123609580D01*
X149088095Y-123609580D02*
X149135714Y-123657200D01*
X149135714Y-123657200D02*
X149230952Y-123704819D01*
X149230952Y-123704819D02*
X149516666Y-123704819D01*
X149516666Y-123704819D02*
X149611904Y-123657200D01*
X149611904Y-123657200D02*
X149659523Y-123609580D01*
X148183333Y-122704819D02*
X148373809Y-122704819D01*
X148373809Y-122704819D02*
X148469047Y-122752438D01*
X148469047Y-122752438D02*
X148516666Y-122800057D01*
X148516666Y-122800057D02*
X148611904Y-122942914D01*
X148611904Y-122942914D02*
X148659523Y-123133390D01*
X148659523Y-123133390D02*
X148659523Y-123514342D01*
X148659523Y-123514342D02*
X148611904Y-123609580D01*
X148611904Y-123609580D02*
X148564285Y-123657200D01*
X148564285Y-123657200D02*
X148469047Y-123704819D01*
X148469047Y-123704819D02*
X148278571Y-123704819D01*
X148278571Y-123704819D02*
X148183333Y-123657200D01*
X148183333Y-123657200D02*
X148135714Y-123609580D01*
X148135714Y-123609580D02*
X148088095Y-123514342D01*
X148088095Y-123514342D02*
X148088095Y-123276247D01*
X148088095Y-123276247D02*
X148135714Y-123181009D01*
X148135714Y-123181009D02*
X148183333Y-123133390D01*
X148183333Y-123133390D02*
X148278571Y-123085771D01*
X148278571Y-123085771D02*
X148469047Y-123085771D01*
X148469047Y-123085771D02*
X148564285Y-123133390D01*
X148564285Y-123133390D02*
X148611904Y-123181009D01*
X148611904Y-123181009D02*
X148659523Y-123276247D01*
X121064285Y-123704819D02*
X121064285Y-122704819D01*
X121064285Y-122704819D02*
X120826190Y-122704819D01*
X120826190Y-122704819D02*
X120683333Y-122752438D01*
X120683333Y-122752438D02*
X120588095Y-122847676D01*
X120588095Y-122847676D02*
X120540476Y-122942914D01*
X120540476Y-122942914D02*
X120492857Y-123133390D01*
X120492857Y-123133390D02*
X120492857Y-123276247D01*
X120492857Y-123276247D02*
X120540476Y-123466723D01*
X120540476Y-123466723D02*
X120588095Y-123561961D01*
X120588095Y-123561961D02*
X120683333Y-123657200D01*
X120683333Y-123657200D02*
X120826190Y-123704819D01*
X120826190Y-123704819D02*
X121064285Y-123704819D01*
X120159523Y-122704819D02*
X119540476Y-122704819D01*
X119540476Y-122704819D02*
X119873809Y-123085771D01*
X119873809Y-123085771D02*
X119730952Y-123085771D01*
X119730952Y-123085771D02*
X119635714Y-123133390D01*
X119635714Y-123133390D02*
X119588095Y-123181009D01*
X119588095Y-123181009D02*
X119540476Y-123276247D01*
X119540476Y-123276247D02*
X119540476Y-123514342D01*
X119540476Y-123514342D02*
X119588095Y-123609580D01*
X119588095Y-123609580D02*
X119635714Y-123657200D01*
X119635714Y-123657200D02*
X119730952Y-123704819D01*
X119730952Y-123704819D02*
X120016666Y-123704819D01*
X120016666Y-123704819D02*
X120111904Y-123657200D01*
X120111904Y-123657200D02*
X120159523Y-123609580D01*
X119207142Y-122704819D02*
X118588095Y-122704819D01*
X118588095Y-122704819D02*
X118921428Y-123085771D01*
X118921428Y-123085771D02*
X118778571Y-123085771D01*
X118778571Y-123085771D02*
X118683333Y-123133390D01*
X118683333Y-123133390D02*
X118635714Y-123181009D01*
X118635714Y-123181009D02*
X118588095Y-123276247D01*
X118588095Y-123276247D02*
X118588095Y-123514342D01*
X118588095Y-123514342D02*
X118635714Y-123609580D01*
X118635714Y-123609580D02*
X118683333Y-123657200D01*
X118683333Y-123657200D02*
X118778571Y-123704819D01*
X118778571Y-123704819D02*
X119064285Y-123704819D01*
X119064285Y-123704819D02*
X119159523Y-123657200D01*
X119159523Y-123657200D02*
X119207142Y-123609580D01*
X170064285Y-123704819D02*
X170064285Y-122704819D01*
X170064285Y-122704819D02*
X169826190Y-122704819D01*
X169826190Y-122704819D02*
X169683333Y-122752438D01*
X169683333Y-122752438D02*
X169588095Y-122847676D01*
X169588095Y-122847676D02*
X169540476Y-122942914D01*
X169540476Y-122942914D02*
X169492857Y-123133390D01*
X169492857Y-123133390D02*
X169492857Y-123276247D01*
X169492857Y-123276247D02*
X169540476Y-123466723D01*
X169540476Y-123466723D02*
X169588095Y-123561961D01*
X169588095Y-123561961D02*
X169683333Y-123657200D01*
X169683333Y-123657200D02*
X169826190Y-123704819D01*
X169826190Y-123704819D02*
X170064285Y-123704819D01*
X169159523Y-122704819D02*
X168540476Y-122704819D01*
X168540476Y-122704819D02*
X168873809Y-123085771D01*
X168873809Y-123085771D02*
X168730952Y-123085771D01*
X168730952Y-123085771D02*
X168635714Y-123133390D01*
X168635714Y-123133390D02*
X168588095Y-123181009D01*
X168588095Y-123181009D02*
X168540476Y-123276247D01*
X168540476Y-123276247D02*
X168540476Y-123514342D01*
X168540476Y-123514342D02*
X168588095Y-123609580D01*
X168588095Y-123609580D02*
X168635714Y-123657200D01*
X168635714Y-123657200D02*
X168730952Y-123704819D01*
X168730952Y-123704819D02*
X169016666Y-123704819D01*
X169016666Y-123704819D02*
X169111904Y-123657200D01*
X169111904Y-123657200D02*
X169159523Y-123609580D01*
X167969047Y-123133390D02*
X168064285Y-123085771D01*
X168064285Y-123085771D02*
X168111904Y-123038152D01*
X168111904Y-123038152D02*
X168159523Y-122942914D01*
X168159523Y-122942914D02*
X168159523Y-122895295D01*
X168159523Y-122895295D02*
X168111904Y-122800057D01*
X168111904Y-122800057D02*
X168064285Y-122752438D01*
X168064285Y-122752438D02*
X167969047Y-122704819D01*
X167969047Y-122704819D02*
X167778571Y-122704819D01*
X167778571Y-122704819D02*
X167683333Y-122752438D01*
X167683333Y-122752438D02*
X167635714Y-122800057D01*
X167635714Y-122800057D02*
X167588095Y-122895295D01*
X167588095Y-122895295D02*
X167588095Y-122942914D01*
X167588095Y-122942914D02*
X167635714Y-123038152D01*
X167635714Y-123038152D02*
X167683333Y-123085771D01*
X167683333Y-123085771D02*
X167778571Y-123133390D01*
X167778571Y-123133390D02*
X167969047Y-123133390D01*
X167969047Y-123133390D02*
X168064285Y-123181009D01*
X168064285Y-123181009D02*
X168111904Y-123228628D01*
X168111904Y-123228628D02*
X168159523Y-123323866D01*
X168159523Y-123323866D02*
X168159523Y-123514342D01*
X168159523Y-123514342D02*
X168111904Y-123609580D01*
X168111904Y-123609580D02*
X168064285Y-123657200D01*
X168064285Y-123657200D02*
X167969047Y-123704819D01*
X167969047Y-123704819D02*
X167778571Y-123704819D01*
X167778571Y-123704819D02*
X167683333Y-123657200D01*
X167683333Y-123657200D02*
X167635714Y-123609580D01*
X167635714Y-123609580D02*
X167588095Y-123514342D01*
X167588095Y-123514342D02*
X167588095Y-123323866D01*
X167588095Y-123323866D02*
X167635714Y-123228628D01*
X167635714Y-123228628D02*
X167683333Y-123181009D01*
X167683333Y-123181009D02*
X167778571Y-123133390D01*
X99088094Y-94454819D02*
X99088094Y-93454819D01*
X99088094Y-93454819D02*
X98849999Y-93454819D01*
X98849999Y-93454819D02*
X98707142Y-93502438D01*
X98707142Y-93502438D02*
X98611904Y-93597676D01*
X98611904Y-93597676D02*
X98564285Y-93692914D01*
X98564285Y-93692914D02*
X98516666Y-93883390D01*
X98516666Y-93883390D02*
X98516666Y-94026247D01*
X98516666Y-94026247D02*
X98564285Y-94216723D01*
X98564285Y-94216723D02*
X98611904Y-94311961D01*
X98611904Y-94311961D02*
X98707142Y-94407200D01*
X98707142Y-94407200D02*
X98849999Y-94454819D01*
X98849999Y-94454819D02*
X99088094Y-94454819D01*
X97564285Y-94454819D02*
X98135713Y-94454819D01*
X97849999Y-94454819D02*
X97849999Y-93454819D01*
X97849999Y-93454819D02*
X97945237Y-93597676D01*
X97945237Y-93597676D02*
X98040475Y-93692914D01*
X98040475Y-93692914D02*
X98135713Y-93740533D01*
X109838094Y-94454819D02*
X109838094Y-93454819D01*
X109838094Y-93454819D02*
X109599999Y-93454819D01*
X109599999Y-93454819D02*
X109457142Y-93502438D01*
X109457142Y-93502438D02*
X109361904Y-93597676D01*
X109361904Y-93597676D02*
X109314285Y-93692914D01*
X109314285Y-93692914D02*
X109266666Y-93883390D01*
X109266666Y-93883390D02*
X109266666Y-94026247D01*
X109266666Y-94026247D02*
X109314285Y-94216723D01*
X109314285Y-94216723D02*
X109361904Y-94311961D01*
X109361904Y-94311961D02*
X109457142Y-94407200D01*
X109457142Y-94407200D02*
X109599999Y-94454819D01*
X109599999Y-94454819D02*
X109838094Y-94454819D01*
X108885713Y-93550057D02*
X108838094Y-93502438D01*
X108838094Y-93502438D02*
X108742856Y-93454819D01*
X108742856Y-93454819D02*
X108504761Y-93454819D01*
X108504761Y-93454819D02*
X108409523Y-93502438D01*
X108409523Y-93502438D02*
X108361904Y-93550057D01*
X108361904Y-93550057D02*
X108314285Y-93645295D01*
X108314285Y-93645295D02*
X108314285Y-93740533D01*
X108314285Y-93740533D02*
X108361904Y-93883390D01*
X108361904Y-93883390D02*
X108933332Y-94454819D01*
X108933332Y-94454819D02*
X108314285Y-94454819D01*
X170064285Y-113954819D02*
X170064285Y-112954819D01*
X170064285Y-112954819D02*
X169826190Y-112954819D01*
X169826190Y-112954819D02*
X169683333Y-113002438D01*
X169683333Y-113002438D02*
X169588095Y-113097676D01*
X169588095Y-113097676D02*
X169540476Y-113192914D01*
X169540476Y-113192914D02*
X169492857Y-113383390D01*
X169492857Y-113383390D02*
X169492857Y-113526247D01*
X169492857Y-113526247D02*
X169540476Y-113716723D01*
X169540476Y-113716723D02*
X169588095Y-113811961D01*
X169588095Y-113811961D02*
X169683333Y-113907200D01*
X169683333Y-113907200D02*
X169826190Y-113954819D01*
X169826190Y-113954819D02*
X170064285Y-113954819D01*
X169111904Y-113050057D02*
X169064285Y-113002438D01*
X169064285Y-113002438D02*
X168969047Y-112954819D01*
X168969047Y-112954819D02*
X168730952Y-112954819D01*
X168730952Y-112954819D02*
X168635714Y-113002438D01*
X168635714Y-113002438D02*
X168588095Y-113050057D01*
X168588095Y-113050057D02*
X168540476Y-113145295D01*
X168540476Y-113145295D02*
X168540476Y-113240533D01*
X168540476Y-113240533D02*
X168588095Y-113383390D01*
X168588095Y-113383390D02*
X169159523Y-113954819D01*
X169159523Y-113954819D02*
X168540476Y-113954819D01*
X167969047Y-113383390D02*
X168064285Y-113335771D01*
X168064285Y-113335771D02*
X168111904Y-113288152D01*
X168111904Y-113288152D02*
X168159523Y-113192914D01*
X168159523Y-113192914D02*
X168159523Y-113145295D01*
X168159523Y-113145295D02*
X168111904Y-113050057D01*
X168111904Y-113050057D02*
X168064285Y-113002438D01*
X168064285Y-113002438D02*
X167969047Y-112954819D01*
X167969047Y-112954819D02*
X167778571Y-112954819D01*
X167778571Y-112954819D02*
X167683333Y-113002438D01*
X167683333Y-113002438D02*
X167635714Y-113050057D01*
X167635714Y-113050057D02*
X167588095Y-113145295D01*
X167588095Y-113145295D02*
X167588095Y-113192914D01*
X167588095Y-113192914D02*
X167635714Y-113288152D01*
X167635714Y-113288152D02*
X167683333Y-113335771D01*
X167683333Y-113335771D02*
X167778571Y-113383390D01*
X167778571Y-113383390D02*
X167969047Y-113383390D01*
X167969047Y-113383390D02*
X168064285Y-113431009D01*
X168064285Y-113431009D02*
X168111904Y-113478628D01*
X168111904Y-113478628D02*
X168159523Y-113573866D01*
X168159523Y-113573866D02*
X168159523Y-113764342D01*
X168159523Y-113764342D02*
X168111904Y-113859580D01*
X168111904Y-113859580D02*
X168064285Y-113907200D01*
X168064285Y-113907200D02*
X167969047Y-113954819D01*
X167969047Y-113954819D02*
X167778571Y-113954819D01*
X167778571Y-113954819D02*
X167683333Y-113907200D01*
X167683333Y-113907200D02*
X167635714Y-113859580D01*
X167635714Y-113859580D02*
X167588095Y-113764342D01*
X167588095Y-113764342D02*
X167588095Y-113573866D01*
X167588095Y-113573866D02*
X167635714Y-113478628D01*
X167635714Y-113478628D02*
X167683333Y-113431009D01*
X167683333Y-113431009D02*
X167778571Y-113383390D01*
X188764285Y-113954819D02*
X188764285Y-112954819D01*
X188764285Y-112954819D02*
X188526190Y-112954819D01*
X188526190Y-112954819D02*
X188383333Y-113002438D01*
X188383333Y-113002438D02*
X188288095Y-113097676D01*
X188288095Y-113097676D02*
X188240476Y-113192914D01*
X188240476Y-113192914D02*
X188192857Y-113383390D01*
X188192857Y-113383390D02*
X188192857Y-113526247D01*
X188192857Y-113526247D02*
X188240476Y-113716723D01*
X188240476Y-113716723D02*
X188288095Y-113811961D01*
X188288095Y-113811961D02*
X188383333Y-113907200D01*
X188383333Y-113907200D02*
X188526190Y-113954819D01*
X188526190Y-113954819D02*
X188764285Y-113954819D01*
X187859523Y-112954819D02*
X187240476Y-112954819D01*
X187240476Y-112954819D02*
X187573809Y-113335771D01*
X187573809Y-113335771D02*
X187430952Y-113335771D01*
X187430952Y-113335771D02*
X187335714Y-113383390D01*
X187335714Y-113383390D02*
X187288095Y-113431009D01*
X187288095Y-113431009D02*
X187240476Y-113526247D01*
X187240476Y-113526247D02*
X187240476Y-113764342D01*
X187240476Y-113764342D02*
X187288095Y-113859580D01*
X187288095Y-113859580D02*
X187335714Y-113907200D01*
X187335714Y-113907200D02*
X187430952Y-113954819D01*
X187430952Y-113954819D02*
X187716666Y-113954819D01*
X187716666Y-113954819D02*
X187811904Y-113907200D01*
X187811904Y-113907200D02*
X187859523Y-113859580D01*
X186621428Y-112954819D02*
X186526190Y-112954819D01*
X186526190Y-112954819D02*
X186430952Y-113002438D01*
X186430952Y-113002438D02*
X186383333Y-113050057D01*
X186383333Y-113050057D02*
X186335714Y-113145295D01*
X186335714Y-113145295D02*
X186288095Y-113335771D01*
X186288095Y-113335771D02*
X186288095Y-113573866D01*
X186288095Y-113573866D02*
X186335714Y-113764342D01*
X186335714Y-113764342D02*
X186383333Y-113859580D01*
X186383333Y-113859580D02*
X186430952Y-113907200D01*
X186430952Y-113907200D02*
X186526190Y-113954819D01*
X186526190Y-113954819D02*
X186621428Y-113954819D01*
X186621428Y-113954819D02*
X186716666Y-113907200D01*
X186716666Y-113907200D02*
X186764285Y-113859580D01*
X186764285Y-113859580D02*
X186811904Y-113764342D01*
X186811904Y-113764342D02*
X186859523Y-113573866D01*
X186859523Y-113573866D02*
X186859523Y-113335771D01*
X186859523Y-113335771D02*
X186811904Y-113145295D01*
X186811904Y-113145295D02*
X186764285Y-113050057D01*
X186764285Y-113050057D02*
X186716666Y-113002438D01*
X186716666Y-113002438D02*
X186621428Y-112954819D01*
X141064285Y-123704819D02*
X141064285Y-122704819D01*
X141064285Y-122704819D02*
X140826190Y-122704819D01*
X140826190Y-122704819D02*
X140683333Y-122752438D01*
X140683333Y-122752438D02*
X140588095Y-122847676D01*
X140588095Y-122847676D02*
X140540476Y-122942914D01*
X140540476Y-122942914D02*
X140492857Y-123133390D01*
X140492857Y-123133390D02*
X140492857Y-123276247D01*
X140492857Y-123276247D02*
X140540476Y-123466723D01*
X140540476Y-123466723D02*
X140588095Y-123561961D01*
X140588095Y-123561961D02*
X140683333Y-123657200D01*
X140683333Y-123657200D02*
X140826190Y-123704819D01*
X140826190Y-123704819D02*
X141064285Y-123704819D01*
X140159523Y-122704819D02*
X139540476Y-122704819D01*
X139540476Y-122704819D02*
X139873809Y-123085771D01*
X139873809Y-123085771D02*
X139730952Y-123085771D01*
X139730952Y-123085771D02*
X139635714Y-123133390D01*
X139635714Y-123133390D02*
X139588095Y-123181009D01*
X139588095Y-123181009D02*
X139540476Y-123276247D01*
X139540476Y-123276247D02*
X139540476Y-123514342D01*
X139540476Y-123514342D02*
X139588095Y-123609580D01*
X139588095Y-123609580D02*
X139635714Y-123657200D01*
X139635714Y-123657200D02*
X139730952Y-123704819D01*
X139730952Y-123704819D02*
X140016666Y-123704819D01*
X140016666Y-123704819D02*
X140111904Y-123657200D01*
X140111904Y-123657200D02*
X140159523Y-123609580D01*
X138635714Y-122704819D02*
X139111904Y-122704819D01*
X139111904Y-122704819D02*
X139159523Y-123181009D01*
X139159523Y-123181009D02*
X139111904Y-123133390D01*
X139111904Y-123133390D02*
X139016666Y-123085771D01*
X139016666Y-123085771D02*
X138778571Y-123085771D01*
X138778571Y-123085771D02*
X138683333Y-123133390D01*
X138683333Y-123133390D02*
X138635714Y-123181009D01*
X138635714Y-123181009D02*
X138588095Y-123276247D01*
X138588095Y-123276247D02*
X138588095Y-123514342D01*
X138588095Y-123514342D02*
X138635714Y-123609580D01*
X138635714Y-123609580D02*
X138683333Y-123657200D01*
X138683333Y-123657200D02*
X138778571Y-123704819D01*
X138778571Y-123704819D02*
X139016666Y-123704819D01*
X139016666Y-123704819D02*
X139111904Y-123657200D01*
X139111904Y-123657200D02*
X139159523Y-123609580D01*
X129938094Y-94454819D02*
X129938094Y-93454819D01*
X129938094Y-93454819D02*
X129699999Y-93454819D01*
X129699999Y-93454819D02*
X129557142Y-93502438D01*
X129557142Y-93502438D02*
X129461904Y-93597676D01*
X129461904Y-93597676D02*
X129414285Y-93692914D01*
X129414285Y-93692914D02*
X129366666Y-93883390D01*
X129366666Y-93883390D02*
X129366666Y-94026247D01*
X129366666Y-94026247D02*
X129414285Y-94216723D01*
X129414285Y-94216723D02*
X129461904Y-94311961D01*
X129461904Y-94311961D02*
X129557142Y-94407200D01*
X129557142Y-94407200D02*
X129699999Y-94454819D01*
X129699999Y-94454819D02*
X129938094Y-94454819D01*
X128509523Y-93788152D02*
X128509523Y-94454819D01*
X128747618Y-93407200D02*
X128985713Y-94121485D01*
X128985713Y-94121485D02*
X128366666Y-94121485D01*
X159188094Y-94454819D02*
X159188094Y-93454819D01*
X159188094Y-93454819D02*
X158949999Y-93454819D01*
X158949999Y-93454819D02*
X158807142Y-93502438D01*
X158807142Y-93502438D02*
X158711904Y-93597676D01*
X158711904Y-93597676D02*
X158664285Y-93692914D01*
X158664285Y-93692914D02*
X158616666Y-93883390D01*
X158616666Y-93883390D02*
X158616666Y-94026247D01*
X158616666Y-94026247D02*
X158664285Y-94216723D01*
X158664285Y-94216723D02*
X158711904Y-94311961D01*
X158711904Y-94311961D02*
X158807142Y-94407200D01*
X158807142Y-94407200D02*
X158949999Y-94454819D01*
X158949999Y-94454819D02*
X159188094Y-94454819D01*
X158283332Y-93454819D02*
X157616666Y-93454819D01*
X157616666Y-93454819D02*
X158045237Y-94454819D01*
X130814285Y-123704819D02*
X130814285Y-122704819D01*
X130814285Y-122704819D02*
X130576190Y-122704819D01*
X130576190Y-122704819D02*
X130433333Y-122752438D01*
X130433333Y-122752438D02*
X130338095Y-122847676D01*
X130338095Y-122847676D02*
X130290476Y-122942914D01*
X130290476Y-122942914D02*
X130242857Y-123133390D01*
X130242857Y-123133390D02*
X130242857Y-123276247D01*
X130242857Y-123276247D02*
X130290476Y-123466723D01*
X130290476Y-123466723D02*
X130338095Y-123561961D01*
X130338095Y-123561961D02*
X130433333Y-123657200D01*
X130433333Y-123657200D02*
X130576190Y-123704819D01*
X130576190Y-123704819D02*
X130814285Y-123704819D01*
X129909523Y-122704819D02*
X129290476Y-122704819D01*
X129290476Y-122704819D02*
X129623809Y-123085771D01*
X129623809Y-123085771D02*
X129480952Y-123085771D01*
X129480952Y-123085771D02*
X129385714Y-123133390D01*
X129385714Y-123133390D02*
X129338095Y-123181009D01*
X129338095Y-123181009D02*
X129290476Y-123276247D01*
X129290476Y-123276247D02*
X129290476Y-123514342D01*
X129290476Y-123514342D02*
X129338095Y-123609580D01*
X129338095Y-123609580D02*
X129385714Y-123657200D01*
X129385714Y-123657200D02*
X129480952Y-123704819D01*
X129480952Y-123704819D02*
X129766666Y-123704819D01*
X129766666Y-123704819D02*
X129861904Y-123657200D01*
X129861904Y-123657200D02*
X129909523Y-123609580D01*
X128433333Y-123038152D02*
X128433333Y-123704819D01*
X128671428Y-122657200D02*
X128909523Y-123371485D01*
X128909523Y-123371485D02*
X128290476Y-123371485D01*
X110564285Y-123704819D02*
X110564285Y-122704819D01*
X110564285Y-122704819D02*
X110326190Y-122704819D01*
X110326190Y-122704819D02*
X110183333Y-122752438D01*
X110183333Y-122752438D02*
X110088095Y-122847676D01*
X110088095Y-122847676D02*
X110040476Y-122942914D01*
X110040476Y-122942914D02*
X109992857Y-123133390D01*
X109992857Y-123133390D02*
X109992857Y-123276247D01*
X109992857Y-123276247D02*
X110040476Y-123466723D01*
X110040476Y-123466723D02*
X110088095Y-123561961D01*
X110088095Y-123561961D02*
X110183333Y-123657200D01*
X110183333Y-123657200D02*
X110326190Y-123704819D01*
X110326190Y-123704819D02*
X110564285Y-123704819D01*
X109659523Y-122704819D02*
X109040476Y-122704819D01*
X109040476Y-122704819D02*
X109373809Y-123085771D01*
X109373809Y-123085771D02*
X109230952Y-123085771D01*
X109230952Y-123085771D02*
X109135714Y-123133390D01*
X109135714Y-123133390D02*
X109088095Y-123181009D01*
X109088095Y-123181009D02*
X109040476Y-123276247D01*
X109040476Y-123276247D02*
X109040476Y-123514342D01*
X109040476Y-123514342D02*
X109088095Y-123609580D01*
X109088095Y-123609580D02*
X109135714Y-123657200D01*
X109135714Y-123657200D02*
X109230952Y-123704819D01*
X109230952Y-123704819D02*
X109516666Y-123704819D01*
X109516666Y-123704819D02*
X109611904Y-123657200D01*
X109611904Y-123657200D02*
X109659523Y-123609580D01*
X108659523Y-122800057D02*
X108611904Y-122752438D01*
X108611904Y-122752438D02*
X108516666Y-122704819D01*
X108516666Y-122704819D02*
X108278571Y-122704819D01*
X108278571Y-122704819D02*
X108183333Y-122752438D01*
X108183333Y-122752438D02*
X108135714Y-122800057D01*
X108135714Y-122800057D02*
X108088095Y-122895295D01*
X108088095Y-122895295D02*
X108088095Y-122990533D01*
X108088095Y-122990533D02*
X108135714Y-123133390D01*
X108135714Y-123133390D02*
X108707142Y-123704819D01*
X108707142Y-123704819D02*
X108088095Y-123704819D01*
X110564285Y-113954819D02*
X110564285Y-112954819D01*
X110564285Y-112954819D02*
X110326190Y-112954819D01*
X110326190Y-112954819D02*
X110183333Y-113002438D01*
X110183333Y-113002438D02*
X110088095Y-113097676D01*
X110088095Y-113097676D02*
X110040476Y-113192914D01*
X110040476Y-113192914D02*
X109992857Y-113383390D01*
X109992857Y-113383390D02*
X109992857Y-113526247D01*
X109992857Y-113526247D02*
X110040476Y-113716723D01*
X110040476Y-113716723D02*
X110088095Y-113811961D01*
X110088095Y-113811961D02*
X110183333Y-113907200D01*
X110183333Y-113907200D02*
X110326190Y-113954819D01*
X110326190Y-113954819D02*
X110564285Y-113954819D01*
X109611904Y-113050057D02*
X109564285Y-113002438D01*
X109564285Y-113002438D02*
X109469047Y-112954819D01*
X109469047Y-112954819D02*
X109230952Y-112954819D01*
X109230952Y-112954819D02*
X109135714Y-113002438D01*
X109135714Y-113002438D02*
X109088095Y-113050057D01*
X109088095Y-113050057D02*
X109040476Y-113145295D01*
X109040476Y-113145295D02*
X109040476Y-113240533D01*
X109040476Y-113240533D02*
X109088095Y-113383390D01*
X109088095Y-113383390D02*
X109659523Y-113954819D01*
X109659523Y-113954819D02*
X109040476Y-113954819D01*
X108659523Y-113050057D02*
X108611904Y-113002438D01*
X108611904Y-113002438D02*
X108516666Y-112954819D01*
X108516666Y-112954819D02*
X108278571Y-112954819D01*
X108278571Y-112954819D02*
X108183333Y-113002438D01*
X108183333Y-113002438D02*
X108135714Y-113050057D01*
X108135714Y-113050057D02*
X108088095Y-113145295D01*
X108088095Y-113145295D02*
X108088095Y-113240533D01*
X108088095Y-113240533D02*
X108135714Y-113383390D01*
X108135714Y-113383390D02*
X108707142Y-113954819D01*
X108707142Y-113954819D02*
X108088095Y-113954819D01*
X178064285Y-113954819D02*
X178064285Y-112954819D01*
X178064285Y-112954819D02*
X177826190Y-112954819D01*
X177826190Y-112954819D02*
X177683333Y-113002438D01*
X177683333Y-113002438D02*
X177588095Y-113097676D01*
X177588095Y-113097676D02*
X177540476Y-113192914D01*
X177540476Y-113192914D02*
X177492857Y-113383390D01*
X177492857Y-113383390D02*
X177492857Y-113526247D01*
X177492857Y-113526247D02*
X177540476Y-113716723D01*
X177540476Y-113716723D02*
X177588095Y-113811961D01*
X177588095Y-113811961D02*
X177683333Y-113907200D01*
X177683333Y-113907200D02*
X177826190Y-113954819D01*
X177826190Y-113954819D02*
X178064285Y-113954819D01*
X177111904Y-113050057D02*
X177064285Y-113002438D01*
X177064285Y-113002438D02*
X176969047Y-112954819D01*
X176969047Y-112954819D02*
X176730952Y-112954819D01*
X176730952Y-112954819D02*
X176635714Y-113002438D01*
X176635714Y-113002438D02*
X176588095Y-113050057D01*
X176588095Y-113050057D02*
X176540476Y-113145295D01*
X176540476Y-113145295D02*
X176540476Y-113240533D01*
X176540476Y-113240533D02*
X176588095Y-113383390D01*
X176588095Y-113383390D02*
X177159523Y-113954819D01*
X177159523Y-113954819D02*
X176540476Y-113954819D01*
X176064285Y-113954819D02*
X175873809Y-113954819D01*
X175873809Y-113954819D02*
X175778571Y-113907200D01*
X175778571Y-113907200D02*
X175730952Y-113859580D01*
X175730952Y-113859580D02*
X175635714Y-113716723D01*
X175635714Y-113716723D02*
X175588095Y-113526247D01*
X175588095Y-113526247D02*
X175588095Y-113145295D01*
X175588095Y-113145295D02*
X175635714Y-113050057D01*
X175635714Y-113050057D02*
X175683333Y-113002438D01*
X175683333Y-113002438D02*
X175778571Y-112954819D01*
X175778571Y-112954819D02*
X175969047Y-112954819D01*
X175969047Y-112954819D02*
X176064285Y-113002438D01*
X176064285Y-113002438D02*
X176111904Y-113050057D01*
X176111904Y-113050057D02*
X176159523Y-113145295D01*
X176159523Y-113145295D02*
X176159523Y-113383390D01*
X176159523Y-113383390D02*
X176111904Y-113478628D01*
X176111904Y-113478628D02*
X176064285Y-113526247D01*
X176064285Y-113526247D02*
X175969047Y-113573866D01*
X175969047Y-113573866D02*
X175778571Y-113573866D01*
X175778571Y-113573866D02*
X175683333Y-113526247D01*
X175683333Y-113526247D02*
X175635714Y-113478628D01*
X175635714Y-113478628D02*
X175588095Y-113383390D01*
X188564285Y-123704819D02*
X188564285Y-122704819D01*
X188564285Y-122704819D02*
X188326190Y-122704819D01*
X188326190Y-122704819D02*
X188183333Y-122752438D01*
X188183333Y-122752438D02*
X188088095Y-122847676D01*
X188088095Y-122847676D02*
X188040476Y-122942914D01*
X188040476Y-122942914D02*
X187992857Y-123133390D01*
X187992857Y-123133390D02*
X187992857Y-123276247D01*
X187992857Y-123276247D02*
X188040476Y-123466723D01*
X188040476Y-123466723D02*
X188088095Y-123561961D01*
X188088095Y-123561961D02*
X188183333Y-123657200D01*
X188183333Y-123657200D02*
X188326190Y-123704819D01*
X188326190Y-123704819D02*
X188564285Y-123704819D01*
X187135714Y-123038152D02*
X187135714Y-123704819D01*
X187373809Y-122657200D02*
X187611904Y-123371485D01*
X187611904Y-123371485D02*
X186992857Y-123371485D01*
X186421428Y-122704819D02*
X186326190Y-122704819D01*
X186326190Y-122704819D02*
X186230952Y-122752438D01*
X186230952Y-122752438D02*
X186183333Y-122800057D01*
X186183333Y-122800057D02*
X186135714Y-122895295D01*
X186135714Y-122895295D02*
X186088095Y-123085771D01*
X186088095Y-123085771D02*
X186088095Y-123323866D01*
X186088095Y-123323866D02*
X186135714Y-123514342D01*
X186135714Y-123514342D02*
X186183333Y-123609580D01*
X186183333Y-123609580D02*
X186230952Y-123657200D01*
X186230952Y-123657200D02*
X186326190Y-123704819D01*
X186326190Y-123704819D02*
X186421428Y-123704819D01*
X186421428Y-123704819D02*
X186516666Y-123657200D01*
X186516666Y-123657200D02*
X186564285Y-123609580D01*
X186564285Y-123609580D02*
X186611904Y-123514342D01*
X186611904Y-123514342D02*
X186659523Y-123323866D01*
X186659523Y-123323866D02*
X186659523Y-123085771D01*
X186659523Y-123085771D02*
X186611904Y-122895295D01*
X186611904Y-122895295D02*
X186564285Y-122800057D01*
X186564285Y-122800057D02*
X186516666Y-122752438D01*
X186516666Y-122752438D02*
X186421428Y-122704819D01*
X141014285Y-113954819D02*
X141014285Y-112954819D01*
X141014285Y-112954819D02*
X140776190Y-112954819D01*
X140776190Y-112954819D02*
X140633333Y-113002438D01*
X140633333Y-113002438D02*
X140538095Y-113097676D01*
X140538095Y-113097676D02*
X140490476Y-113192914D01*
X140490476Y-113192914D02*
X140442857Y-113383390D01*
X140442857Y-113383390D02*
X140442857Y-113526247D01*
X140442857Y-113526247D02*
X140490476Y-113716723D01*
X140490476Y-113716723D02*
X140538095Y-113811961D01*
X140538095Y-113811961D02*
X140633333Y-113907200D01*
X140633333Y-113907200D02*
X140776190Y-113954819D01*
X140776190Y-113954819D02*
X141014285Y-113954819D01*
X140061904Y-113050057D02*
X140014285Y-113002438D01*
X140014285Y-113002438D02*
X139919047Y-112954819D01*
X139919047Y-112954819D02*
X139680952Y-112954819D01*
X139680952Y-112954819D02*
X139585714Y-113002438D01*
X139585714Y-113002438D02*
X139538095Y-113050057D01*
X139538095Y-113050057D02*
X139490476Y-113145295D01*
X139490476Y-113145295D02*
X139490476Y-113240533D01*
X139490476Y-113240533D02*
X139538095Y-113383390D01*
X139538095Y-113383390D02*
X140109523Y-113954819D01*
X140109523Y-113954819D02*
X139490476Y-113954819D01*
X138585714Y-112954819D02*
X139061904Y-112954819D01*
X139061904Y-112954819D02*
X139109523Y-113431009D01*
X139109523Y-113431009D02*
X139061904Y-113383390D01*
X139061904Y-113383390D02*
X138966666Y-113335771D01*
X138966666Y-113335771D02*
X138728571Y-113335771D01*
X138728571Y-113335771D02*
X138633333Y-113383390D01*
X138633333Y-113383390D02*
X138585714Y-113431009D01*
X138585714Y-113431009D02*
X138538095Y-113526247D01*
X138538095Y-113526247D02*
X138538095Y-113764342D01*
X138538095Y-113764342D02*
X138585714Y-113859580D01*
X138585714Y-113859580D02*
X138633333Y-113907200D01*
X138633333Y-113907200D02*
X138728571Y-113954819D01*
X138728571Y-113954819D02*
X138966666Y-113954819D01*
X138966666Y-113954819D02*
X139061904Y-113907200D01*
X139061904Y-113907200D02*
X139109523Y-113859580D01*
X188814285Y-104954819D02*
X188814285Y-103954819D01*
X188814285Y-103954819D02*
X188576190Y-103954819D01*
X188576190Y-103954819D02*
X188433333Y-104002438D01*
X188433333Y-104002438D02*
X188338095Y-104097676D01*
X188338095Y-104097676D02*
X188290476Y-104192914D01*
X188290476Y-104192914D02*
X188242857Y-104383390D01*
X188242857Y-104383390D02*
X188242857Y-104526247D01*
X188242857Y-104526247D02*
X188290476Y-104716723D01*
X188290476Y-104716723D02*
X188338095Y-104811961D01*
X188338095Y-104811961D02*
X188433333Y-104907200D01*
X188433333Y-104907200D02*
X188576190Y-104954819D01*
X188576190Y-104954819D02*
X188814285Y-104954819D01*
X187861904Y-104050057D02*
X187814285Y-104002438D01*
X187814285Y-104002438D02*
X187719047Y-103954819D01*
X187719047Y-103954819D02*
X187480952Y-103954819D01*
X187480952Y-103954819D02*
X187385714Y-104002438D01*
X187385714Y-104002438D02*
X187338095Y-104050057D01*
X187338095Y-104050057D02*
X187290476Y-104145295D01*
X187290476Y-104145295D02*
X187290476Y-104240533D01*
X187290476Y-104240533D02*
X187338095Y-104383390D01*
X187338095Y-104383390D02*
X187909523Y-104954819D01*
X187909523Y-104954819D02*
X187290476Y-104954819D01*
X186671428Y-103954819D02*
X186576190Y-103954819D01*
X186576190Y-103954819D02*
X186480952Y-104002438D01*
X186480952Y-104002438D02*
X186433333Y-104050057D01*
X186433333Y-104050057D02*
X186385714Y-104145295D01*
X186385714Y-104145295D02*
X186338095Y-104335771D01*
X186338095Y-104335771D02*
X186338095Y-104573866D01*
X186338095Y-104573866D02*
X186385714Y-104764342D01*
X186385714Y-104764342D02*
X186433333Y-104859580D01*
X186433333Y-104859580D02*
X186480952Y-104907200D01*
X186480952Y-104907200D02*
X186576190Y-104954819D01*
X186576190Y-104954819D02*
X186671428Y-104954819D01*
X186671428Y-104954819D02*
X186766666Y-104907200D01*
X186766666Y-104907200D02*
X186814285Y-104859580D01*
X186814285Y-104859580D02*
X186861904Y-104764342D01*
X186861904Y-104764342D02*
X186909523Y-104573866D01*
X186909523Y-104573866D02*
X186909523Y-104335771D01*
X186909523Y-104335771D02*
X186861904Y-104145295D01*
X186861904Y-104145295D02*
X186814285Y-104050057D01*
X186814285Y-104050057D02*
X186766666Y-104002438D01*
X186766666Y-104002438D02*
X186671428Y-103954819D01*
X120338094Y-94454819D02*
X120338094Y-93454819D01*
X120338094Y-93454819D02*
X120099999Y-93454819D01*
X120099999Y-93454819D02*
X119957142Y-93502438D01*
X119957142Y-93502438D02*
X119861904Y-93597676D01*
X119861904Y-93597676D02*
X119814285Y-93692914D01*
X119814285Y-93692914D02*
X119766666Y-93883390D01*
X119766666Y-93883390D02*
X119766666Y-94026247D01*
X119766666Y-94026247D02*
X119814285Y-94216723D01*
X119814285Y-94216723D02*
X119861904Y-94311961D01*
X119861904Y-94311961D02*
X119957142Y-94407200D01*
X119957142Y-94407200D02*
X120099999Y-94454819D01*
X120099999Y-94454819D02*
X120338094Y-94454819D01*
X119433332Y-93454819D02*
X118814285Y-93454819D01*
X118814285Y-93454819D02*
X119147618Y-93835771D01*
X119147618Y-93835771D02*
X119004761Y-93835771D01*
X119004761Y-93835771D02*
X118909523Y-93883390D01*
X118909523Y-93883390D02*
X118861904Y-93931009D01*
X118861904Y-93931009D02*
X118814285Y-94026247D01*
X118814285Y-94026247D02*
X118814285Y-94264342D01*
X118814285Y-94264342D02*
X118861904Y-94359580D01*
X118861904Y-94359580D02*
X118909523Y-94407200D01*
X118909523Y-94407200D02*
X119004761Y-94454819D01*
X119004761Y-94454819D02*
X119290475Y-94454819D01*
X119290475Y-94454819D02*
X119385713Y-94407200D01*
X119385713Y-94407200D02*
X119433332Y-94359580D01*
X130814285Y-113954819D02*
X130814285Y-112954819D01*
X130814285Y-112954819D02*
X130576190Y-112954819D01*
X130576190Y-112954819D02*
X130433333Y-113002438D01*
X130433333Y-113002438D02*
X130338095Y-113097676D01*
X130338095Y-113097676D02*
X130290476Y-113192914D01*
X130290476Y-113192914D02*
X130242857Y-113383390D01*
X130242857Y-113383390D02*
X130242857Y-113526247D01*
X130242857Y-113526247D02*
X130290476Y-113716723D01*
X130290476Y-113716723D02*
X130338095Y-113811961D01*
X130338095Y-113811961D02*
X130433333Y-113907200D01*
X130433333Y-113907200D02*
X130576190Y-113954819D01*
X130576190Y-113954819D02*
X130814285Y-113954819D01*
X129861904Y-113050057D02*
X129814285Y-113002438D01*
X129814285Y-113002438D02*
X129719047Y-112954819D01*
X129719047Y-112954819D02*
X129480952Y-112954819D01*
X129480952Y-112954819D02*
X129385714Y-113002438D01*
X129385714Y-113002438D02*
X129338095Y-113050057D01*
X129338095Y-113050057D02*
X129290476Y-113145295D01*
X129290476Y-113145295D02*
X129290476Y-113240533D01*
X129290476Y-113240533D02*
X129338095Y-113383390D01*
X129338095Y-113383390D02*
X129909523Y-113954819D01*
X129909523Y-113954819D02*
X129290476Y-113954819D01*
X128433333Y-113288152D02*
X128433333Y-113954819D01*
X128671428Y-112907200D02*
X128909523Y-113621485D01*
X128909523Y-113621485D02*
X128290476Y-113621485D01*
X177788094Y-94454819D02*
X177788094Y-93454819D01*
X177788094Y-93454819D02*
X177549999Y-93454819D01*
X177549999Y-93454819D02*
X177407142Y-93502438D01*
X177407142Y-93502438D02*
X177311904Y-93597676D01*
X177311904Y-93597676D02*
X177264285Y-93692914D01*
X177264285Y-93692914D02*
X177216666Y-93883390D01*
X177216666Y-93883390D02*
X177216666Y-94026247D01*
X177216666Y-94026247D02*
X177264285Y-94216723D01*
X177264285Y-94216723D02*
X177311904Y-94311961D01*
X177311904Y-94311961D02*
X177407142Y-94407200D01*
X177407142Y-94407200D02*
X177549999Y-94454819D01*
X177549999Y-94454819D02*
X177788094Y-94454819D01*
X176740475Y-94454819D02*
X176549999Y-94454819D01*
X176549999Y-94454819D02*
X176454761Y-94407200D01*
X176454761Y-94407200D02*
X176407142Y-94359580D01*
X176407142Y-94359580D02*
X176311904Y-94216723D01*
X176311904Y-94216723D02*
X176264285Y-94026247D01*
X176264285Y-94026247D02*
X176264285Y-93645295D01*
X176264285Y-93645295D02*
X176311904Y-93550057D01*
X176311904Y-93550057D02*
X176359523Y-93502438D01*
X176359523Y-93502438D02*
X176454761Y-93454819D01*
X176454761Y-93454819D02*
X176645237Y-93454819D01*
X176645237Y-93454819D02*
X176740475Y-93502438D01*
X176740475Y-93502438D02*
X176788094Y-93550057D01*
X176788094Y-93550057D02*
X176835713Y-93645295D01*
X176835713Y-93645295D02*
X176835713Y-93883390D01*
X176835713Y-93883390D02*
X176788094Y-93978628D01*
X176788094Y-93978628D02*
X176740475Y-94026247D01*
X176740475Y-94026247D02*
X176645237Y-94073866D01*
X176645237Y-94073866D02*
X176454761Y-94073866D01*
X176454761Y-94073866D02*
X176359523Y-94026247D01*
X176359523Y-94026247D02*
X176311904Y-93978628D01*
X176311904Y-93978628D02*
X176264285Y-93883390D01*
X160814285Y-104954819D02*
X160814285Y-103954819D01*
X160814285Y-103954819D02*
X160576190Y-103954819D01*
X160576190Y-103954819D02*
X160433333Y-104002438D01*
X160433333Y-104002438D02*
X160338095Y-104097676D01*
X160338095Y-104097676D02*
X160290476Y-104192914D01*
X160290476Y-104192914D02*
X160242857Y-104383390D01*
X160242857Y-104383390D02*
X160242857Y-104526247D01*
X160242857Y-104526247D02*
X160290476Y-104716723D01*
X160290476Y-104716723D02*
X160338095Y-104811961D01*
X160338095Y-104811961D02*
X160433333Y-104907200D01*
X160433333Y-104907200D02*
X160576190Y-104954819D01*
X160576190Y-104954819D02*
X160814285Y-104954819D01*
X159290476Y-104954819D02*
X159861904Y-104954819D01*
X159576190Y-104954819D02*
X159576190Y-103954819D01*
X159576190Y-103954819D02*
X159671428Y-104097676D01*
X159671428Y-104097676D02*
X159766666Y-104192914D01*
X159766666Y-104192914D02*
X159861904Y-104240533D01*
X158957142Y-103954819D02*
X158290476Y-103954819D01*
X158290476Y-103954819D02*
X158719047Y-104954819D01*
X150664285Y-113954819D02*
X150664285Y-112954819D01*
X150664285Y-112954819D02*
X150426190Y-112954819D01*
X150426190Y-112954819D02*
X150283333Y-113002438D01*
X150283333Y-113002438D02*
X150188095Y-113097676D01*
X150188095Y-113097676D02*
X150140476Y-113192914D01*
X150140476Y-113192914D02*
X150092857Y-113383390D01*
X150092857Y-113383390D02*
X150092857Y-113526247D01*
X150092857Y-113526247D02*
X150140476Y-113716723D01*
X150140476Y-113716723D02*
X150188095Y-113811961D01*
X150188095Y-113811961D02*
X150283333Y-113907200D01*
X150283333Y-113907200D02*
X150426190Y-113954819D01*
X150426190Y-113954819D02*
X150664285Y-113954819D01*
X149711904Y-113050057D02*
X149664285Y-113002438D01*
X149664285Y-113002438D02*
X149569047Y-112954819D01*
X149569047Y-112954819D02*
X149330952Y-112954819D01*
X149330952Y-112954819D02*
X149235714Y-113002438D01*
X149235714Y-113002438D02*
X149188095Y-113050057D01*
X149188095Y-113050057D02*
X149140476Y-113145295D01*
X149140476Y-113145295D02*
X149140476Y-113240533D01*
X149140476Y-113240533D02*
X149188095Y-113383390D01*
X149188095Y-113383390D02*
X149759523Y-113954819D01*
X149759523Y-113954819D02*
X149140476Y-113954819D01*
X148283333Y-112954819D02*
X148473809Y-112954819D01*
X148473809Y-112954819D02*
X148569047Y-113002438D01*
X148569047Y-113002438D02*
X148616666Y-113050057D01*
X148616666Y-113050057D02*
X148711904Y-113192914D01*
X148711904Y-113192914D02*
X148759523Y-113383390D01*
X148759523Y-113383390D02*
X148759523Y-113764342D01*
X148759523Y-113764342D02*
X148711904Y-113859580D01*
X148711904Y-113859580D02*
X148664285Y-113907200D01*
X148664285Y-113907200D02*
X148569047Y-113954819D01*
X148569047Y-113954819D02*
X148378571Y-113954819D01*
X148378571Y-113954819D02*
X148283333Y-113907200D01*
X148283333Y-113907200D02*
X148235714Y-113859580D01*
X148235714Y-113859580D02*
X148188095Y-113764342D01*
X148188095Y-113764342D02*
X148188095Y-113526247D01*
X148188095Y-113526247D02*
X148235714Y-113431009D01*
X148235714Y-113431009D02*
X148283333Y-113383390D01*
X148283333Y-113383390D02*
X148378571Y-113335771D01*
X148378571Y-113335771D02*
X148569047Y-113335771D01*
X148569047Y-113335771D02*
X148664285Y-113383390D01*
X148664285Y-113383390D02*
X148711904Y-113431009D01*
X148711904Y-113431009D02*
X148759523Y-113526247D01*
X150814285Y-104954819D02*
X150814285Y-103954819D01*
X150814285Y-103954819D02*
X150576190Y-103954819D01*
X150576190Y-103954819D02*
X150433333Y-104002438D01*
X150433333Y-104002438D02*
X150338095Y-104097676D01*
X150338095Y-104097676D02*
X150290476Y-104192914D01*
X150290476Y-104192914D02*
X150242857Y-104383390D01*
X150242857Y-104383390D02*
X150242857Y-104526247D01*
X150242857Y-104526247D02*
X150290476Y-104716723D01*
X150290476Y-104716723D02*
X150338095Y-104811961D01*
X150338095Y-104811961D02*
X150433333Y-104907200D01*
X150433333Y-104907200D02*
X150576190Y-104954819D01*
X150576190Y-104954819D02*
X150814285Y-104954819D01*
X149290476Y-104954819D02*
X149861904Y-104954819D01*
X149576190Y-104954819D02*
X149576190Y-103954819D01*
X149576190Y-103954819D02*
X149671428Y-104097676D01*
X149671428Y-104097676D02*
X149766666Y-104192914D01*
X149766666Y-104192914D02*
X149861904Y-104240533D01*
X148433333Y-103954819D02*
X148623809Y-103954819D01*
X148623809Y-103954819D02*
X148719047Y-104002438D01*
X148719047Y-104002438D02*
X148766666Y-104050057D01*
X148766666Y-104050057D02*
X148861904Y-104192914D01*
X148861904Y-104192914D02*
X148909523Y-104383390D01*
X148909523Y-104383390D02*
X148909523Y-104764342D01*
X148909523Y-104764342D02*
X148861904Y-104859580D01*
X148861904Y-104859580D02*
X148814285Y-104907200D01*
X148814285Y-104907200D02*
X148719047Y-104954819D01*
X148719047Y-104954819D02*
X148528571Y-104954819D01*
X148528571Y-104954819D02*
X148433333Y-104907200D01*
X148433333Y-104907200D02*
X148385714Y-104859580D01*
X148385714Y-104859580D02*
X148338095Y-104764342D01*
X148338095Y-104764342D02*
X148338095Y-104526247D01*
X148338095Y-104526247D02*
X148385714Y-104431009D01*
X148385714Y-104431009D02*
X148433333Y-104383390D01*
X148433333Y-104383390D02*
X148528571Y-104335771D01*
X148528571Y-104335771D02*
X148719047Y-104335771D01*
X148719047Y-104335771D02*
X148814285Y-104383390D01*
X148814285Y-104383390D02*
X148861904Y-104431009D01*
X148861904Y-104431009D02*
X148909523Y-104526247D01*
X120914285Y-104954819D02*
X120914285Y-103954819D01*
X120914285Y-103954819D02*
X120676190Y-103954819D01*
X120676190Y-103954819D02*
X120533333Y-104002438D01*
X120533333Y-104002438D02*
X120438095Y-104097676D01*
X120438095Y-104097676D02*
X120390476Y-104192914D01*
X120390476Y-104192914D02*
X120342857Y-104383390D01*
X120342857Y-104383390D02*
X120342857Y-104526247D01*
X120342857Y-104526247D02*
X120390476Y-104716723D01*
X120390476Y-104716723D02*
X120438095Y-104811961D01*
X120438095Y-104811961D02*
X120533333Y-104907200D01*
X120533333Y-104907200D02*
X120676190Y-104954819D01*
X120676190Y-104954819D02*
X120914285Y-104954819D01*
X119390476Y-104954819D02*
X119961904Y-104954819D01*
X119676190Y-104954819D02*
X119676190Y-103954819D01*
X119676190Y-103954819D02*
X119771428Y-104097676D01*
X119771428Y-104097676D02*
X119866666Y-104192914D01*
X119866666Y-104192914D02*
X119961904Y-104240533D01*
X119057142Y-103954819D02*
X118438095Y-103954819D01*
X118438095Y-103954819D02*
X118771428Y-104335771D01*
X118771428Y-104335771D02*
X118628571Y-104335771D01*
X118628571Y-104335771D02*
X118533333Y-104383390D01*
X118533333Y-104383390D02*
X118485714Y-104431009D01*
X118485714Y-104431009D02*
X118438095Y-104526247D01*
X118438095Y-104526247D02*
X118438095Y-104764342D01*
X118438095Y-104764342D02*
X118485714Y-104859580D01*
X118485714Y-104859580D02*
X118533333Y-104907200D01*
X118533333Y-104907200D02*
X118628571Y-104954819D01*
X118628571Y-104954819D02*
X118914285Y-104954819D01*
X118914285Y-104954819D02*
X119009523Y-104907200D01*
X119009523Y-104907200D02*
X119057142Y-104859580D01*
X220394279Y-92420180D02*
X220394279Y-91610657D01*
X220394279Y-91610657D02*
X220441898Y-91515419D01*
X220441898Y-91515419D02*
X220489517Y-91467800D01*
X220489517Y-91467800D02*
X220584755Y-91420180D01*
X220584755Y-91420180D02*
X220775231Y-91420180D01*
X220775231Y-91420180D02*
X220870469Y-91467800D01*
X220870469Y-91467800D02*
X220918088Y-91515419D01*
X220918088Y-91515419D02*
X220965707Y-91610657D01*
X220965707Y-91610657D02*
X220965707Y-92420180D01*
X221965707Y-91420180D02*
X221394279Y-91420180D01*
X221679993Y-91420180D02*
X221679993Y-92420180D01*
X221679993Y-92420180D02*
X221584755Y-92277323D01*
X221584755Y-92277323D02*
X221489517Y-92182085D01*
X221489517Y-92182085D02*
X221394279Y-92134466D01*
X223787592Y-134998584D02*
X223437406Y-134648398D01*
X223437406Y-134648398D02*
X223410468Y-135052459D01*
X223410468Y-135052459D02*
X223329656Y-134971646D01*
X223329656Y-134971646D02*
X223248844Y-134944709D01*
X223248844Y-134944709D02*
X223194969Y-134944709D01*
X223194969Y-134944709D02*
X223114157Y-134971646D01*
X223114157Y-134971646D02*
X222979470Y-135106333D01*
X222979470Y-135106333D02*
X222952532Y-135187146D01*
X222952532Y-135187146D02*
X222952532Y-135241020D01*
X222952532Y-135241020D02*
X222979470Y-135321833D01*
X222979470Y-135321833D02*
X223141094Y-135483457D01*
X223141094Y-135483457D02*
X223221906Y-135510394D01*
X223221906Y-135510394D02*
X223275781Y-135510394D01*
X223275781Y-134486773D02*
X222521534Y-134863897D01*
X222521534Y-134863897D02*
X222898657Y-134109649D01*
X222763971Y-133974963D02*
X222413784Y-133624776D01*
X222413784Y-133624776D02*
X222386847Y-134028837D01*
X222386847Y-134028837D02*
X222306035Y-133948025D01*
X222306035Y-133948025D02*
X222225223Y-133921088D01*
X222225223Y-133921088D02*
X222171348Y-133921088D01*
X222171348Y-133921088D02*
X222090535Y-133948025D01*
X222090535Y-133948025D02*
X221955848Y-134082712D01*
X221955848Y-134082712D02*
X221928911Y-134163524D01*
X221928911Y-134163524D02*
X221928911Y-134217399D01*
X221928911Y-134217399D02*
X221955848Y-134298211D01*
X221955848Y-134298211D02*
X222117473Y-134459836D01*
X222117473Y-134459836D02*
X222198285Y-134486773D01*
X222198285Y-134486773D02*
X222252160Y-134486773D01*
X221686474Y-134136587D02*
X221255476Y-133705588D01*
X221470975Y-133220715D02*
X221282413Y-133032153D01*
X220905290Y-133247652D02*
X221174664Y-133517026D01*
X221174664Y-133517026D02*
X221740349Y-132951341D01*
X221740349Y-132951341D02*
X221470975Y-132681967D01*
X220662853Y-133005215D02*
X221228538Y-132439530D01*
X221228538Y-132439530D02*
X220339604Y-132681967D01*
X220339604Y-132681967D02*
X220905289Y-132116281D01*
X196166001Y-95440868D02*
X196246814Y-95467805D01*
X196246814Y-95467805D02*
X196327626Y-95548618D01*
X196327626Y-95548618D02*
X196381501Y-95656367D01*
X196381501Y-95656367D02*
X196381501Y-95764117D01*
X196381501Y-95764117D02*
X196354563Y-95844929D01*
X196354563Y-95844929D02*
X196273751Y-95979616D01*
X196273751Y-95979616D02*
X196192939Y-96060428D01*
X196192939Y-96060428D02*
X196058252Y-96141241D01*
X196058252Y-96141241D02*
X195977439Y-96168178D01*
X195977439Y-96168178D02*
X195869690Y-96168178D01*
X195869690Y-96168178D02*
X195761940Y-96114303D01*
X195761940Y-96114303D02*
X195708065Y-96060428D01*
X195708065Y-96060428D02*
X195654191Y-95952679D01*
X195654191Y-95952679D02*
X195654191Y-95898804D01*
X195654191Y-95898804D02*
X195842752Y-95710242D01*
X195842752Y-95710242D02*
X195950502Y-95817992D01*
X195357879Y-95710242D02*
X195923565Y-95144557D01*
X195923565Y-95144557D02*
X195708065Y-94929057D01*
X195708065Y-94929057D02*
X195627253Y-94902120D01*
X195627253Y-94902120D02*
X195573378Y-94902120D01*
X195573378Y-94902120D02*
X195492566Y-94929057D01*
X195492566Y-94929057D02*
X195411754Y-95009870D01*
X195411754Y-95009870D02*
X195384817Y-95090682D01*
X195384817Y-95090682D02*
X195384817Y-95144557D01*
X195384817Y-95144557D02*
X195411754Y-95225369D01*
X195411754Y-95225369D02*
X195627253Y-95440868D01*
X194495882Y-94848245D02*
X194819131Y-95171494D01*
X194657507Y-95009870D02*
X195223192Y-94444184D01*
X195223192Y-94444184D02*
X195196255Y-94578871D01*
X195196255Y-94578871D02*
X195196255Y-94686621D01*
X195196255Y-94686621D02*
X195223192Y-94767433D01*
X194388133Y-93986248D02*
X194011009Y-94363372D01*
X194738319Y-93905436D02*
X194468945Y-94444184D01*
X194468945Y-94444184D02*
X194118759Y-94093998D01*
X222320001Y-95440868D02*
X222400814Y-95467805D01*
X222400814Y-95467805D02*
X222481626Y-95548618D01*
X222481626Y-95548618D02*
X222535501Y-95656367D01*
X222535501Y-95656367D02*
X222535501Y-95764117D01*
X222535501Y-95764117D02*
X222508563Y-95844929D01*
X222508563Y-95844929D02*
X222427751Y-95979616D01*
X222427751Y-95979616D02*
X222346939Y-96060428D01*
X222346939Y-96060428D02*
X222212252Y-96141241D01*
X222212252Y-96141241D02*
X222131439Y-96168178D01*
X222131439Y-96168178D02*
X222023690Y-96168178D01*
X222023690Y-96168178D02*
X221915940Y-96114303D01*
X221915940Y-96114303D02*
X221862065Y-96060428D01*
X221862065Y-96060428D02*
X221808191Y-95952679D01*
X221808191Y-95952679D02*
X221808191Y-95898804D01*
X221808191Y-95898804D02*
X221996752Y-95710242D01*
X221996752Y-95710242D02*
X222104502Y-95817992D01*
X221511879Y-95710242D02*
X222077565Y-95144557D01*
X222077565Y-95144557D02*
X221862065Y-94929057D01*
X221862065Y-94929057D02*
X221781253Y-94902120D01*
X221781253Y-94902120D02*
X221727378Y-94902120D01*
X221727378Y-94902120D02*
X221646566Y-94929057D01*
X221646566Y-94929057D02*
X221565754Y-95009870D01*
X221565754Y-95009870D02*
X221538817Y-95090682D01*
X221538817Y-95090682D02*
X221538817Y-95144557D01*
X221538817Y-95144557D02*
X221565754Y-95225369D01*
X221565754Y-95225369D02*
X221781253Y-95440868D01*
X220649882Y-94848245D02*
X220973131Y-95171494D01*
X220811507Y-95009870D02*
X221377192Y-94444184D01*
X221377192Y-94444184D02*
X221350255Y-94578871D01*
X221350255Y-94578871D02*
X221350255Y-94686621D01*
X221350255Y-94686621D02*
X221377192Y-94767433D01*
X221027006Y-94093998D02*
X220649882Y-93716874D01*
X220649882Y-93716874D02*
X220326633Y-94524996D01*
X222320001Y-105600868D02*
X222400814Y-105627805D01*
X222400814Y-105627805D02*
X222481626Y-105708618D01*
X222481626Y-105708618D02*
X222535501Y-105816367D01*
X222535501Y-105816367D02*
X222535501Y-105924117D01*
X222535501Y-105924117D02*
X222508563Y-106004929D01*
X222508563Y-106004929D02*
X222427751Y-106139616D01*
X222427751Y-106139616D02*
X222346939Y-106220428D01*
X222346939Y-106220428D02*
X222212252Y-106301241D01*
X222212252Y-106301241D02*
X222131439Y-106328178D01*
X222131439Y-106328178D02*
X222023690Y-106328178D01*
X222023690Y-106328178D02*
X221915940Y-106274303D01*
X221915940Y-106274303D02*
X221862065Y-106220428D01*
X221862065Y-106220428D02*
X221808191Y-106112679D01*
X221808191Y-106112679D02*
X221808191Y-106058804D01*
X221808191Y-106058804D02*
X221996752Y-105870242D01*
X221996752Y-105870242D02*
X222104502Y-105977992D01*
X221511879Y-105870242D02*
X222077565Y-105304557D01*
X222077565Y-105304557D02*
X221862065Y-105089057D01*
X221862065Y-105089057D02*
X221781253Y-105062120D01*
X221781253Y-105062120D02*
X221727378Y-105062120D01*
X221727378Y-105062120D02*
X221646566Y-105089057D01*
X221646566Y-105089057D02*
X221565754Y-105169870D01*
X221565754Y-105169870D02*
X221538817Y-105250682D01*
X221538817Y-105250682D02*
X221538817Y-105304557D01*
X221538817Y-105304557D02*
X221565754Y-105385369D01*
X221565754Y-105385369D02*
X221781253Y-105600868D01*
X221484942Y-104819683D02*
X221484942Y-104765809D01*
X221484942Y-104765809D02*
X221458004Y-104684996D01*
X221458004Y-104684996D02*
X221323317Y-104550309D01*
X221323317Y-104550309D02*
X221242505Y-104523372D01*
X221242505Y-104523372D02*
X221188630Y-104523372D01*
X221188630Y-104523372D02*
X221107818Y-104550309D01*
X221107818Y-104550309D02*
X221053943Y-104604184D01*
X221053943Y-104604184D02*
X221000069Y-104711934D01*
X221000069Y-104711934D02*
X221000069Y-105358431D01*
X221000069Y-105358431D02*
X220649882Y-105008245D01*
X220865381Y-104092373D02*
X220811507Y-104038499D01*
X220811507Y-104038499D02*
X220730694Y-104011561D01*
X220730694Y-104011561D02*
X220676820Y-104011561D01*
X220676820Y-104011561D02*
X220596007Y-104038499D01*
X220596007Y-104038499D02*
X220461320Y-104119311D01*
X220461320Y-104119311D02*
X220326633Y-104253998D01*
X220326633Y-104253998D02*
X220245821Y-104388685D01*
X220245821Y-104388685D02*
X220218884Y-104469497D01*
X220218884Y-104469497D02*
X220218884Y-104523372D01*
X220218884Y-104523372D02*
X220245821Y-104604184D01*
X220245821Y-104604184D02*
X220299696Y-104658059D01*
X220299696Y-104658059D02*
X220380508Y-104684996D01*
X220380508Y-104684996D02*
X220434383Y-104684996D01*
X220434383Y-104684996D02*
X220515195Y-104658059D01*
X220515195Y-104658059D02*
X220649882Y-104577247D01*
X220649882Y-104577247D02*
X220784569Y-104442560D01*
X220784569Y-104442560D02*
X220865381Y-104307873D01*
X220865381Y-104307873D02*
X220892319Y-104227060D01*
X220892319Y-104227060D02*
X220892319Y-104173186D01*
X220892319Y-104173186D02*
X220865381Y-104092373D01*
X196196627Y-120571494D02*
X196277439Y-120598431D01*
X196277439Y-120598431D02*
X196358251Y-120679243D01*
X196358251Y-120679243D02*
X196412126Y-120786993D01*
X196412126Y-120786993D02*
X196412126Y-120894742D01*
X196412126Y-120894742D02*
X196385189Y-120975555D01*
X196385189Y-120975555D02*
X196304376Y-121110242D01*
X196304376Y-121110242D02*
X196223564Y-121191054D01*
X196223564Y-121191054D02*
X196088877Y-121271866D01*
X196088877Y-121271866D02*
X196008065Y-121298803D01*
X196008065Y-121298803D02*
X195900315Y-121298803D01*
X195900315Y-121298803D02*
X195792566Y-121244929D01*
X195792566Y-121244929D02*
X195738691Y-121191054D01*
X195738691Y-121191054D02*
X195684816Y-121083304D01*
X195684816Y-121083304D02*
X195684816Y-121029429D01*
X195684816Y-121029429D02*
X195873378Y-120840868D01*
X195873378Y-120840868D02*
X195981128Y-120948617D01*
X195388505Y-120840868D02*
X195954190Y-120275182D01*
X195954190Y-120275182D02*
X195738691Y-120059683D01*
X195738691Y-120059683D02*
X195657879Y-120032746D01*
X195657879Y-120032746D02*
X195604004Y-120032746D01*
X195604004Y-120032746D02*
X195523192Y-120059683D01*
X195523192Y-120059683D02*
X195442380Y-120140495D01*
X195442380Y-120140495D02*
X195415442Y-120221307D01*
X195415442Y-120221307D02*
X195415442Y-120275182D01*
X195415442Y-120275182D02*
X195442380Y-120355994D01*
X195442380Y-120355994D02*
X195657879Y-120571494D01*
X195146068Y-119467060D02*
X195253818Y-119574810D01*
X195253818Y-119574810D02*
X195280755Y-119655622D01*
X195280755Y-119655622D02*
X195280755Y-119709497D01*
X195280755Y-119709497D02*
X195253818Y-119844184D01*
X195253818Y-119844184D02*
X195173006Y-119978871D01*
X195173006Y-119978871D02*
X194957506Y-120194370D01*
X194957506Y-120194370D02*
X194876694Y-120221307D01*
X194876694Y-120221307D02*
X194822819Y-120221307D01*
X194822819Y-120221307D02*
X194742007Y-120194370D01*
X194742007Y-120194370D02*
X194634258Y-120086620D01*
X194634258Y-120086620D02*
X194607320Y-120005808D01*
X194607320Y-120005808D02*
X194607320Y-119951933D01*
X194607320Y-119951933D02*
X194634258Y-119871121D01*
X194634258Y-119871121D02*
X194768945Y-119736434D01*
X194768945Y-119736434D02*
X194849757Y-119709497D01*
X194849757Y-119709497D02*
X194903632Y-119709497D01*
X194903632Y-119709497D02*
X194984444Y-119736434D01*
X194984444Y-119736434D02*
X195092193Y-119844184D01*
X195092193Y-119844184D02*
X195119131Y-119924996D01*
X195119131Y-119924996D02*
X195119131Y-119978871D01*
X195119131Y-119978871D02*
X195092193Y-120059683D01*
X196212001Y-100520868D02*
X196292814Y-100547805D01*
X196292814Y-100547805D02*
X196373626Y-100628618D01*
X196373626Y-100628618D02*
X196427501Y-100736367D01*
X196427501Y-100736367D02*
X196427501Y-100844117D01*
X196427501Y-100844117D02*
X196400563Y-100924929D01*
X196400563Y-100924929D02*
X196319751Y-101059616D01*
X196319751Y-101059616D02*
X196238939Y-101140428D01*
X196238939Y-101140428D02*
X196104252Y-101221241D01*
X196104252Y-101221241D02*
X196023439Y-101248178D01*
X196023439Y-101248178D02*
X195915690Y-101248178D01*
X195915690Y-101248178D02*
X195807940Y-101194303D01*
X195807940Y-101194303D02*
X195754065Y-101140428D01*
X195754065Y-101140428D02*
X195700191Y-101032679D01*
X195700191Y-101032679D02*
X195700191Y-100978804D01*
X195700191Y-100978804D02*
X195888752Y-100790242D01*
X195888752Y-100790242D02*
X195996502Y-100897992D01*
X195403879Y-100790242D02*
X195969565Y-100224557D01*
X195969565Y-100224557D02*
X195754065Y-100009057D01*
X195754065Y-100009057D02*
X195673253Y-99982120D01*
X195673253Y-99982120D02*
X195619378Y-99982120D01*
X195619378Y-99982120D02*
X195538566Y-100009057D01*
X195538566Y-100009057D02*
X195457754Y-100089870D01*
X195457754Y-100089870D02*
X195430817Y-100170682D01*
X195430817Y-100170682D02*
X195430817Y-100224557D01*
X195430817Y-100224557D02*
X195457754Y-100305369D01*
X195457754Y-100305369D02*
X195673253Y-100520868D01*
X194541882Y-99928245D02*
X194865131Y-100251494D01*
X194703507Y-100089870D02*
X195269192Y-99524184D01*
X195269192Y-99524184D02*
X195242255Y-99658871D01*
X195242255Y-99658871D02*
X195242255Y-99766621D01*
X195242255Y-99766621D02*
X195269192Y-99847433D01*
X194919006Y-99173998D02*
X194568820Y-98823812D01*
X194568820Y-98823812D02*
X194541882Y-99227873D01*
X194541882Y-99227873D02*
X194461070Y-99147060D01*
X194461070Y-99147060D02*
X194380258Y-99120123D01*
X194380258Y-99120123D02*
X194326383Y-99120123D01*
X194326383Y-99120123D02*
X194245571Y-99147060D01*
X194245571Y-99147060D02*
X194110884Y-99281747D01*
X194110884Y-99281747D02*
X194083946Y-99362560D01*
X194083946Y-99362560D02*
X194083946Y-99416434D01*
X194083946Y-99416434D02*
X194110884Y-99497247D01*
X194110884Y-99497247D02*
X194272508Y-99658871D01*
X194272508Y-99658871D02*
X194353320Y-99685808D01*
X194353320Y-99685808D02*
X194407195Y-99685808D01*
X196196627Y-140891494D02*
X196277439Y-140918431D01*
X196277439Y-140918431D02*
X196358251Y-140999243D01*
X196358251Y-140999243D02*
X196412126Y-141106993D01*
X196412126Y-141106993D02*
X196412126Y-141214742D01*
X196412126Y-141214742D02*
X196385189Y-141295555D01*
X196385189Y-141295555D02*
X196304376Y-141430242D01*
X196304376Y-141430242D02*
X196223564Y-141511054D01*
X196223564Y-141511054D02*
X196088877Y-141591866D01*
X196088877Y-141591866D02*
X196008065Y-141618803D01*
X196008065Y-141618803D02*
X195900315Y-141618803D01*
X195900315Y-141618803D02*
X195792566Y-141564929D01*
X195792566Y-141564929D02*
X195738691Y-141511054D01*
X195738691Y-141511054D02*
X195684816Y-141403304D01*
X195684816Y-141403304D02*
X195684816Y-141349429D01*
X195684816Y-141349429D02*
X195873378Y-141160868D01*
X195873378Y-141160868D02*
X195981128Y-141268617D01*
X195388505Y-141160868D02*
X195954190Y-140595182D01*
X195954190Y-140595182D02*
X195738691Y-140379683D01*
X195738691Y-140379683D02*
X195657879Y-140352746D01*
X195657879Y-140352746D02*
X195604004Y-140352746D01*
X195604004Y-140352746D02*
X195523192Y-140379683D01*
X195523192Y-140379683D02*
X195442380Y-140460495D01*
X195442380Y-140460495D02*
X195415442Y-140541307D01*
X195415442Y-140541307D02*
X195415442Y-140595182D01*
X195415442Y-140595182D02*
X195442380Y-140675994D01*
X195442380Y-140675994D02*
X195657879Y-140891494D01*
X195280755Y-139921747D02*
X195226880Y-139867872D01*
X195226880Y-139867872D02*
X195146068Y-139840935D01*
X195146068Y-139840935D02*
X195092193Y-139840935D01*
X195092193Y-139840935D02*
X195011381Y-139867872D01*
X195011381Y-139867872D02*
X194876694Y-139948685D01*
X194876694Y-139948685D02*
X194742007Y-140083372D01*
X194742007Y-140083372D02*
X194661195Y-140218059D01*
X194661195Y-140218059D02*
X194634258Y-140298871D01*
X194634258Y-140298871D02*
X194634258Y-140352746D01*
X194634258Y-140352746D02*
X194661195Y-140433558D01*
X194661195Y-140433558D02*
X194715070Y-140487433D01*
X194715070Y-140487433D02*
X194795882Y-140514370D01*
X194795882Y-140514370D02*
X194849757Y-140514370D01*
X194849757Y-140514370D02*
X194930569Y-140487433D01*
X194930569Y-140487433D02*
X195065256Y-140406620D01*
X195065256Y-140406620D02*
X195199943Y-140271933D01*
X195199943Y-140271933D02*
X195280755Y-140137246D01*
X195280755Y-140137246D02*
X195307693Y-140056434D01*
X195307693Y-140056434D02*
X195307693Y-140002559D01*
X195307693Y-140002559D02*
X195280755Y-139921747D01*
X222789250Y-138890242D02*
X222035003Y-139267366D01*
X222035003Y-139267366D02*
X222412126Y-138513118D01*
X221711754Y-138890242D02*
X221604004Y-138836367D01*
X221604004Y-138836367D02*
X221469317Y-138701680D01*
X221469317Y-138701680D02*
X221442380Y-138620868D01*
X221442380Y-138620868D02*
X221442380Y-138566993D01*
X221442380Y-138566993D02*
X221469317Y-138486181D01*
X221469317Y-138486181D02*
X221523192Y-138432306D01*
X221523192Y-138432306D02*
X221604004Y-138405369D01*
X221604004Y-138405369D02*
X221657879Y-138405369D01*
X221657879Y-138405369D02*
X221738691Y-138432306D01*
X221738691Y-138432306D02*
X221873378Y-138513118D01*
X221873378Y-138513118D02*
X221954191Y-138540056D01*
X221954191Y-138540056D02*
X222008065Y-138540056D01*
X222008065Y-138540056D02*
X222088878Y-138513118D01*
X222088878Y-138513118D02*
X222142752Y-138459244D01*
X222142752Y-138459244D02*
X222169690Y-138378431D01*
X222169690Y-138378431D02*
X222169690Y-138324557D01*
X222169690Y-138324557D02*
X222142752Y-138243744D01*
X222142752Y-138243744D02*
X222008065Y-138109057D01*
X222008065Y-138109057D02*
X221900316Y-138055183D01*
X221280755Y-137974370D02*
X221011381Y-138243744D01*
X221765629Y-137866621D02*
X221280755Y-137974370D01*
X221280755Y-137974370D02*
X221388505Y-137489497D01*
X220688133Y-137866621D02*
X220580383Y-137812746D01*
X220580383Y-137812746D02*
X220445696Y-137678059D01*
X220445696Y-137678059D02*
X220418759Y-137597247D01*
X220418759Y-137597247D02*
X220418759Y-137543372D01*
X220418759Y-137543372D02*
X220445696Y-137462560D01*
X220445696Y-137462560D02*
X220499571Y-137408685D01*
X220499571Y-137408685D02*
X220580383Y-137381748D01*
X220580383Y-137381748D02*
X220634258Y-137381748D01*
X220634258Y-137381748D02*
X220715070Y-137408685D01*
X220715070Y-137408685D02*
X220849757Y-137489497D01*
X220849757Y-137489497D02*
X220930569Y-137516435D01*
X220930569Y-137516435D02*
X220984444Y-137516435D01*
X220984444Y-137516435D02*
X221065256Y-137489497D01*
X221065256Y-137489497D02*
X221119131Y-137435622D01*
X221119131Y-137435622D02*
X221146069Y-137354810D01*
X221146069Y-137354810D02*
X221146069Y-137300935D01*
X221146069Y-137300935D02*
X221119131Y-137220123D01*
X221119131Y-137220123D02*
X220984444Y-137085436D01*
X220984444Y-137085436D02*
X220876695Y-137031561D01*
X222320001Y-120830868D02*
X222400814Y-120857805D01*
X222400814Y-120857805D02*
X222481626Y-120938618D01*
X222481626Y-120938618D02*
X222535501Y-121046367D01*
X222535501Y-121046367D02*
X222535501Y-121154117D01*
X222535501Y-121154117D02*
X222508563Y-121234929D01*
X222508563Y-121234929D02*
X222427751Y-121369616D01*
X222427751Y-121369616D02*
X222346939Y-121450428D01*
X222346939Y-121450428D02*
X222212252Y-121531241D01*
X222212252Y-121531241D02*
X222131439Y-121558178D01*
X222131439Y-121558178D02*
X222023690Y-121558178D01*
X222023690Y-121558178D02*
X221915940Y-121504303D01*
X221915940Y-121504303D02*
X221862065Y-121450428D01*
X221862065Y-121450428D02*
X221808191Y-121342679D01*
X221808191Y-121342679D02*
X221808191Y-121288804D01*
X221808191Y-121288804D02*
X221996752Y-121100242D01*
X221996752Y-121100242D02*
X222104502Y-121207992D01*
X221511879Y-121100242D02*
X222077565Y-120534557D01*
X222077565Y-120534557D02*
X221862065Y-120319057D01*
X221862065Y-120319057D02*
X221781253Y-120292120D01*
X221781253Y-120292120D02*
X221727378Y-120292120D01*
X221727378Y-120292120D02*
X221646566Y-120319057D01*
X221646566Y-120319057D02*
X221565754Y-120399870D01*
X221565754Y-120399870D02*
X221538817Y-120480682D01*
X221538817Y-120480682D02*
X221538817Y-120534557D01*
X221538817Y-120534557D02*
X221565754Y-120615369D01*
X221565754Y-120615369D02*
X221781253Y-120830868D01*
X221484942Y-120049683D02*
X221484942Y-119995809D01*
X221484942Y-119995809D02*
X221458004Y-119914996D01*
X221458004Y-119914996D02*
X221323317Y-119780309D01*
X221323317Y-119780309D02*
X221242505Y-119753372D01*
X221242505Y-119753372D02*
X221188630Y-119753372D01*
X221188630Y-119753372D02*
X221107818Y-119780309D01*
X221107818Y-119780309D02*
X221053943Y-119834184D01*
X221053943Y-119834184D02*
X221000069Y-119941934D01*
X221000069Y-119941934D02*
X221000069Y-120588431D01*
X221000069Y-120588431D02*
X220649882Y-120238245D01*
X221027006Y-119483998D02*
X220649882Y-119106874D01*
X220649882Y-119106874D02*
X220326633Y-119914996D01*
X222320001Y-100520868D02*
X222400814Y-100547805D01*
X222400814Y-100547805D02*
X222481626Y-100628618D01*
X222481626Y-100628618D02*
X222535501Y-100736367D01*
X222535501Y-100736367D02*
X222535501Y-100844117D01*
X222535501Y-100844117D02*
X222508563Y-100924929D01*
X222508563Y-100924929D02*
X222427751Y-101059616D01*
X222427751Y-101059616D02*
X222346939Y-101140428D01*
X222346939Y-101140428D02*
X222212252Y-101221241D01*
X222212252Y-101221241D02*
X222131439Y-101248178D01*
X222131439Y-101248178D02*
X222023690Y-101248178D01*
X222023690Y-101248178D02*
X221915940Y-101194303D01*
X221915940Y-101194303D02*
X221862065Y-101140428D01*
X221862065Y-101140428D02*
X221808191Y-101032679D01*
X221808191Y-101032679D02*
X221808191Y-100978804D01*
X221808191Y-100978804D02*
X221996752Y-100790242D01*
X221996752Y-100790242D02*
X222104502Y-100897992D01*
X221511879Y-100790242D02*
X222077565Y-100224557D01*
X222077565Y-100224557D02*
X221862065Y-100009057D01*
X221862065Y-100009057D02*
X221781253Y-99982120D01*
X221781253Y-99982120D02*
X221727378Y-99982120D01*
X221727378Y-99982120D02*
X221646566Y-100009057D01*
X221646566Y-100009057D02*
X221565754Y-100089870D01*
X221565754Y-100089870D02*
X221538817Y-100170682D01*
X221538817Y-100170682D02*
X221538817Y-100224557D01*
X221538817Y-100224557D02*
X221565754Y-100305369D01*
X221565754Y-100305369D02*
X221781253Y-100520868D01*
X220649882Y-99928245D02*
X220973131Y-100251494D01*
X220811507Y-100089870D02*
X221377192Y-99524184D01*
X221377192Y-99524184D02*
X221350255Y-99658871D01*
X221350255Y-99658871D02*
X221350255Y-99766621D01*
X221350255Y-99766621D02*
X221377192Y-99847433D01*
X220649882Y-99281747D02*
X220730694Y-99308685D01*
X220730694Y-99308685D02*
X220784569Y-99308685D01*
X220784569Y-99308685D02*
X220865381Y-99281747D01*
X220865381Y-99281747D02*
X220892319Y-99254810D01*
X220892319Y-99254810D02*
X220919256Y-99173998D01*
X220919256Y-99173998D02*
X220919256Y-99120123D01*
X220919256Y-99120123D02*
X220892319Y-99039311D01*
X220892319Y-99039311D02*
X220784569Y-98931561D01*
X220784569Y-98931561D02*
X220703757Y-98904624D01*
X220703757Y-98904624D02*
X220649882Y-98904624D01*
X220649882Y-98904624D02*
X220569070Y-98931561D01*
X220569070Y-98931561D02*
X220542133Y-98958499D01*
X220542133Y-98958499D02*
X220515195Y-99039311D01*
X220515195Y-99039311D02*
X220515195Y-99093186D01*
X220515195Y-99093186D02*
X220542133Y-99173998D01*
X220542133Y-99173998D02*
X220649882Y-99281747D01*
X220649882Y-99281747D02*
X220676820Y-99362560D01*
X220676820Y-99362560D02*
X220676820Y-99416434D01*
X220676820Y-99416434D02*
X220649882Y-99497247D01*
X220649882Y-99497247D02*
X220542133Y-99604996D01*
X220542133Y-99604996D02*
X220461320Y-99631934D01*
X220461320Y-99631934D02*
X220407446Y-99631934D01*
X220407446Y-99631934D02*
X220326633Y-99604996D01*
X220326633Y-99604996D02*
X220218884Y-99497247D01*
X220218884Y-99497247D02*
X220191946Y-99416434D01*
X220191946Y-99416434D02*
X220191946Y-99362560D01*
X220191946Y-99362560D02*
X220218884Y-99281747D01*
X220218884Y-99281747D02*
X220326633Y-99173998D01*
X220326633Y-99173998D02*
X220407446Y-99147060D01*
X220407446Y-99147060D02*
X220461320Y-99147060D01*
X220461320Y-99147060D02*
X220542133Y-99173998D01*
X222266126Y-124081240D02*
X221996752Y-123811866D01*
X222158376Y-124296739D02*
X222535500Y-123542492D01*
X222535500Y-123542492D02*
X221781253Y-123919615D01*
X221835128Y-122895994D02*
X221915940Y-122922932D01*
X221915940Y-122922932D02*
X221996752Y-123003744D01*
X221996752Y-123003744D02*
X222050627Y-123111494D01*
X222050627Y-123111494D02*
X222050627Y-123219243D01*
X222050627Y-123219243D02*
X222023689Y-123300055D01*
X222023689Y-123300055D02*
X221942877Y-123434742D01*
X221942877Y-123434742D02*
X221862065Y-123515555D01*
X221862065Y-123515555D02*
X221727378Y-123596367D01*
X221727378Y-123596367D02*
X221646566Y-123623304D01*
X221646566Y-123623304D02*
X221538816Y-123623304D01*
X221538816Y-123623304D02*
X221431067Y-123569429D01*
X221431067Y-123569429D02*
X221377192Y-123515555D01*
X221377192Y-123515555D02*
X221323317Y-123407805D01*
X221323317Y-123407805D02*
X221323317Y-123353930D01*
X221323317Y-123353930D02*
X221511879Y-123165368D01*
X221511879Y-123165368D02*
X221619628Y-123273118D01*
X221027006Y-123165368D02*
X221592691Y-122599683D01*
X221592691Y-122599683D02*
X220703757Y-122842120D01*
X220703757Y-122842120D02*
X221269442Y-122276434D01*
X220434383Y-122572746D02*
X221000068Y-122007060D01*
X221000068Y-122007060D02*
X220865381Y-121872373D01*
X220865381Y-121872373D02*
X220757632Y-121818498D01*
X220757632Y-121818498D02*
X220649882Y-121818498D01*
X220649882Y-121818498D02*
X220569070Y-121845436D01*
X220569070Y-121845436D02*
X220434383Y-121926248D01*
X220434383Y-121926248D02*
X220353571Y-122007060D01*
X220353571Y-122007060D02*
X220272758Y-122141747D01*
X220272758Y-122141747D02*
X220245821Y-122222560D01*
X220245821Y-122222560D02*
X220245821Y-122330309D01*
X220245821Y-122330309D02*
X220299696Y-122438059D01*
X220299696Y-122438059D02*
X220434383Y-122572746D01*
X222219876Y-130930868D02*
X221869690Y-130580682D01*
X221869690Y-130580682D02*
X221842752Y-130984743D01*
X221842752Y-130984743D02*
X221761940Y-130903931D01*
X221761940Y-130903931D02*
X221681128Y-130876993D01*
X221681128Y-130876993D02*
X221627253Y-130876993D01*
X221627253Y-130876993D02*
X221546441Y-130903931D01*
X221546441Y-130903931D02*
X221411754Y-131038618D01*
X221411754Y-131038618D02*
X221384817Y-131119430D01*
X221384817Y-131119430D02*
X221384817Y-131173305D01*
X221384817Y-131173305D02*
X221411754Y-131254117D01*
X221411754Y-131254117D02*
X221573378Y-131415741D01*
X221573378Y-131415741D02*
X221654191Y-131442679D01*
X221654191Y-131442679D02*
X221708065Y-131442679D01*
X221708065Y-130419057D02*
X220953818Y-130796181D01*
X220953818Y-130796181D02*
X221330942Y-130041934D01*
X221196255Y-129907247D02*
X220846069Y-129557061D01*
X220846069Y-129557061D02*
X220819131Y-129961122D01*
X220819131Y-129961122D02*
X220738319Y-129880309D01*
X220738319Y-129880309D02*
X220657507Y-129853372D01*
X220657507Y-129853372D02*
X220603632Y-129853372D01*
X220603632Y-129853372D02*
X220522820Y-129880309D01*
X220522820Y-129880309D02*
X220388133Y-130014996D01*
X220388133Y-130014996D02*
X220361195Y-130095809D01*
X220361195Y-130095809D02*
X220361195Y-130149683D01*
X220361195Y-130149683D02*
X220388133Y-130230496D01*
X220388133Y-130230496D02*
X220549757Y-130392120D01*
X220549757Y-130392120D02*
X220630569Y-130419057D01*
X220630569Y-130419057D02*
X220684444Y-130419057D01*
X196212001Y-92900868D02*
X196292814Y-92927805D01*
X196292814Y-92927805D02*
X196373626Y-93008618D01*
X196373626Y-93008618D02*
X196427501Y-93116367D01*
X196427501Y-93116367D02*
X196427501Y-93224117D01*
X196427501Y-93224117D02*
X196400563Y-93304929D01*
X196400563Y-93304929D02*
X196319751Y-93439616D01*
X196319751Y-93439616D02*
X196238939Y-93520428D01*
X196238939Y-93520428D02*
X196104252Y-93601241D01*
X196104252Y-93601241D02*
X196023439Y-93628178D01*
X196023439Y-93628178D02*
X195915690Y-93628178D01*
X195915690Y-93628178D02*
X195807940Y-93574303D01*
X195807940Y-93574303D02*
X195754065Y-93520428D01*
X195754065Y-93520428D02*
X195700191Y-93412679D01*
X195700191Y-93412679D02*
X195700191Y-93358804D01*
X195700191Y-93358804D02*
X195888752Y-93170242D01*
X195888752Y-93170242D02*
X195996502Y-93277992D01*
X195403879Y-93170242D02*
X195969565Y-92604557D01*
X195969565Y-92604557D02*
X195754065Y-92389057D01*
X195754065Y-92389057D02*
X195673253Y-92362120D01*
X195673253Y-92362120D02*
X195619378Y-92362120D01*
X195619378Y-92362120D02*
X195538566Y-92389057D01*
X195538566Y-92389057D02*
X195457754Y-92469870D01*
X195457754Y-92469870D02*
X195430817Y-92550682D01*
X195430817Y-92550682D02*
X195430817Y-92604557D01*
X195430817Y-92604557D02*
X195457754Y-92685369D01*
X195457754Y-92685369D02*
X195673253Y-92900868D01*
X194541882Y-92308245D02*
X194865131Y-92631494D01*
X194703507Y-92469870D02*
X195269192Y-91904184D01*
X195269192Y-91904184D02*
X195242255Y-92038871D01*
X195242255Y-92038871D02*
X195242255Y-92146621D01*
X195242255Y-92146621D02*
X195269192Y-92227433D01*
X194595757Y-91230749D02*
X194865131Y-91500123D01*
X194865131Y-91500123D02*
X194622694Y-91796434D01*
X194622694Y-91796434D02*
X194622694Y-91742560D01*
X194622694Y-91742560D02*
X194595757Y-91661747D01*
X194595757Y-91661747D02*
X194461070Y-91527060D01*
X194461070Y-91527060D02*
X194380258Y-91500123D01*
X194380258Y-91500123D02*
X194326383Y-91500123D01*
X194326383Y-91500123D02*
X194245571Y-91527060D01*
X194245571Y-91527060D02*
X194110884Y-91661747D01*
X194110884Y-91661747D02*
X194083946Y-91742560D01*
X194083946Y-91742560D02*
X194083946Y-91796434D01*
X194083946Y-91796434D02*
X194110884Y-91877247D01*
X194110884Y-91877247D02*
X194245571Y-92011934D01*
X194245571Y-92011934D02*
X194326383Y-92038871D01*
X194326383Y-92038871D02*
X194380258Y-92038871D01*
X215605238Y-90764200D02*
X215490952Y-90802295D01*
X215490952Y-90802295D02*
X215300476Y-90802295D01*
X215300476Y-90802295D02*
X215224285Y-90764200D01*
X215224285Y-90764200D02*
X215186190Y-90726104D01*
X215186190Y-90726104D02*
X215148095Y-90649914D01*
X215148095Y-90649914D02*
X215148095Y-90573723D01*
X215148095Y-90573723D02*
X215186190Y-90497533D01*
X215186190Y-90497533D02*
X215224285Y-90459438D01*
X215224285Y-90459438D02*
X215300476Y-90421342D01*
X215300476Y-90421342D02*
X215452857Y-90383247D01*
X215452857Y-90383247D02*
X215529047Y-90345152D01*
X215529047Y-90345152D02*
X215567142Y-90307057D01*
X215567142Y-90307057D02*
X215605238Y-90230866D01*
X215605238Y-90230866D02*
X215605238Y-90154676D01*
X215605238Y-90154676D02*
X215567142Y-90078485D01*
X215567142Y-90078485D02*
X215529047Y-90040390D01*
X215529047Y-90040390D02*
X215452857Y-90002295D01*
X215452857Y-90002295D02*
X215262380Y-90002295D01*
X215262380Y-90002295D02*
X215148095Y-90040390D01*
X214881428Y-90002295D02*
X214690952Y-90802295D01*
X214690952Y-90802295D02*
X214538571Y-90230866D01*
X214538571Y-90230866D02*
X214386190Y-90802295D01*
X214386190Y-90802295D02*
X214195714Y-90002295D01*
X213890951Y-90802295D02*
X213890951Y-90002295D01*
X213890951Y-90002295D02*
X213700475Y-90002295D01*
X213700475Y-90002295D02*
X213586189Y-90040390D01*
X213586189Y-90040390D02*
X213509999Y-90116580D01*
X213509999Y-90116580D02*
X213471904Y-90192771D01*
X213471904Y-90192771D02*
X213433808Y-90345152D01*
X213433808Y-90345152D02*
X213433808Y-90459438D01*
X213433808Y-90459438D02*
X213471904Y-90611819D01*
X213471904Y-90611819D02*
X213509999Y-90688009D01*
X213509999Y-90688009D02*
X213586189Y-90764200D01*
X213586189Y-90764200D02*
X213700475Y-90802295D01*
X213700475Y-90802295D02*
X213890951Y-90802295D01*
X213090951Y-90802295D02*
X213090951Y-90002295D01*
X212557618Y-90002295D02*
X212405237Y-90002295D01*
X212405237Y-90002295D02*
X212329047Y-90040390D01*
X212329047Y-90040390D02*
X212252856Y-90116580D01*
X212252856Y-90116580D02*
X212214761Y-90268961D01*
X212214761Y-90268961D02*
X212214761Y-90535628D01*
X212214761Y-90535628D02*
X212252856Y-90688009D01*
X212252856Y-90688009D02*
X212329047Y-90764200D01*
X212329047Y-90764200D02*
X212405237Y-90802295D01*
X212405237Y-90802295D02*
X212557618Y-90802295D01*
X212557618Y-90802295D02*
X212633809Y-90764200D01*
X212633809Y-90764200D02*
X212709999Y-90688009D01*
X212709999Y-90688009D02*
X212748095Y-90535628D01*
X212748095Y-90535628D02*
X212748095Y-90268961D01*
X212748095Y-90268961D02*
X212709999Y-90116580D01*
X212709999Y-90116580D02*
X212633809Y-90040390D01*
X212633809Y-90040390D02*
X212557618Y-90002295D01*
X222320001Y-103060868D02*
X222400814Y-103087805D01*
X222400814Y-103087805D02*
X222481626Y-103168618D01*
X222481626Y-103168618D02*
X222535501Y-103276367D01*
X222535501Y-103276367D02*
X222535501Y-103384117D01*
X222535501Y-103384117D02*
X222508563Y-103464929D01*
X222508563Y-103464929D02*
X222427751Y-103599616D01*
X222427751Y-103599616D02*
X222346939Y-103680428D01*
X222346939Y-103680428D02*
X222212252Y-103761241D01*
X222212252Y-103761241D02*
X222131439Y-103788178D01*
X222131439Y-103788178D02*
X222023690Y-103788178D01*
X222023690Y-103788178D02*
X221915940Y-103734303D01*
X221915940Y-103734303D02*
X221862065Y-103680428D01*
X221862065Y-103680428D02*
X221808191Y-103572679D01*
X221808191Y-103572679D02*
X221808191Y-103518804D01*
X221808191Y-103518804D02*
X221996752Y-103330242D01*
X221996752Y-103330242D02*
X222104502Y-103437992D01*
X221511879Y-103330242D02*
X222077565Y-102764557D01*
X222077565Y-102764557D02*
X221862065Y-102549057D01*
X221862065Y-102549057D02*
X221781253Y-102522120D01*
X221781253Y-102522120D02*
X221727378Y-102522120D01*
X221727378Y-102522120D02*
X221646566Y-102549057D01*
X221646566Y-102549057D02*
X221565754Y-102629870D01*
X221565754Y-102629870D02*
X221538817Y-102710682D01*
X221538817Y-102710682D02*
X221538817Y-102764557D01*
X221538817Y-102764557D02*
X221565754Y-102845369D01*
X221565754Y-102845369D02*
X221781253Y-103060868D01*
X220649882Y-102468245D02*
X220973131Y-102791494D01*
X220811507Y-102629870D02*
X221377192Y-102064184D01*
X221377192Y-102064184D02*
X221350255Y-102198871D01*
X221350255Y-102198871D02*
X221350255Y-102306621D01*
X221350255Y-102306621D02*
X221377192Y-102387433D01*
X220380508Y-102198871D02*
X220272759Y-102091121D01*
X220272759Y-102091121D02*
X220245821Y-102010309D01*
X220245821Y-102010309D02*
X220245821Y-101956434D01*
X220245821Y-101956434D02*
X220272759Y-101821747D01*
X220272759Y-101821747D02*
X220353571Y-101687060D01*
X220353571Y-101687060D02*
X220569070Y-101471561D01*
X220569070Y-101471561D02*
X220649882Y-101444624D01*
X220649882Y-101444624D02*
X220703757Y-101444624D01*
X220703757Y-101444624D02*
X220784569Y-101471561D01*
X220784569Y-101471561D02*
X220892319Y-101579311D01*
X220892319Y-101579311D02*
X220919256Y-101660123D01*
X220919256Y-101660123D02*
X220919256Y-101713998D01*
X220919256Y-101713998D02*
X220892319Y-101794810D01*
X220892319Y-101794810D02*
X220757632Y-101929497D01*
X220757632Y-101929497D02*
X220676820Y-101956434D01*
X220676820Y-101956434D02*
X220622945Y-101956434D01*
X220622945Y-101956434D02*
X220542133Y-101929497D01*
X220542133Y-101929497D02*
X220434383Y-101821747D01*
X220434383Y-101821747D02*
X220407446Y-101740935D01*
X220407446Y-101740935D02*
X220407446Y-101687060D01*
X220407446Y-101687060D02*
X220434383Y-101606248D01*
X196212001Y-108140868D02*
X196292814Y-108167805D01*
X196292814Y-108167805D02*
X196373626Y-108248618D01*
X196373626Y-108248618D02*
X196427501Y-108356367D01*
X196427501Y-108356367D02*
X196427501Y-108464117D01*
X196427501Y-108464117D02*
X196400563Y-108544929D01*
X196400563Y-108544929D02*
X196319751Y-108679616D01*
X196319751Y-108679616D02*
X196238939Y-108760428D01*
X196238939Y-108760428D02*
X196104252Y-108841241D01*
X196104252Y-108841241D02*
X196023439Y-108868178D01*
X196023439Y-108868178D02*
X195915690Y-108868178D01*
X195915690Y-108868178D02*
X195807940Y-108814303D01*
X195807940Y-108814303D02*
X195754065Y-108760428D01*
X195754065Y-108760428D02*
X195700191Y-108652679D01*
X195700191Y-108652679D02*
X195700191Y-108598804D01*
X195700191Y-108598804D02*
X195888752Y-108410242D01*
X195888752Y-108410242D02*
X195996502Y-108517992D01*
X195403879Y-108410242D02*
X195969565Y-107844557D01*
X195969565Y-107844557D02*
X195754065Y-107629057D01*
X195754065Y-107629057D02*
X195673253Y-107602120D01*
X195673253Y-107602120D02*
X195619378Y-107602120D01*
X195619378Y-107602120D02*
X195538566Y-107629057D01*
X195538566Y-107629057D02*
X195457754Y-107709870D01*
X195457754Y-107709870D02*
X195430817Y-107790682D01*
X195430817Y-107790682D02*
X195430817Y-107844557D01*
X195430817Y-107844557D02*
X195457754Y-107925369D01*
X195457754Y-107925369D02*
X195673253Y-108140868D01*
X194541882Y-107548245D02*
X194865131Y-107871494D01*
X194703507Y-107709870D02*
X195269192Y-107144184D01*
X195269192Y-107144184D02*
X195242255Y-107278871D01*
X195242255Y-107278871D02*
X195242255Y-107386621D01*
X195242255Y-107386621D02*
X195269192Y-107467433D01*
X194757381Y-106632373D02*
X194703507Y-106578499D01*
X194703507Y-106578499D02*
X194622694Y-106551561D01*
X194622694Y-106551561D02*
X194568820Y-106551561D01*
X194568820Y-106551561D02*
X194488007Y-106578499D01*
X194488007Y-106578499D02*
X194353320Y-106659311D01*
X194353320Y-106659311D02*
X194218633Y-106793998D01*
X194218633Y-106793998D02*
X194137821Y-106928685D01*
X194137821Y-106928685D02*
X194110884Y-107009497D01*
X194110884Y-107009497D02*
X194110884Y-107063372D01*
X194110884Y-107063372D02*
X194137821Y-107144184D01*
X194137821Y-107144184D02*
X194191696Y-107198059D01*
X194191696Y-107198059D02*
X194272508Y-107224996D01*
X194272508Y-107224996D02*
X194326383Y-107224996D01*
X194326383Y-107224996D02*
X194407195Y-107198059D01*
X194407195Y-107198059D02*
X194541882Y-107117247D01*
X194541882Y-107117247D02*
X194676569Y-106982560D01*
X194676569Y-106982560D02*
X194757381Y-106847873D01*
X194757381Y-106847873D02*
X194784319Y-106767060D01*
X194784319Y-106767060D02*
X194784319Y-106713186D01*
X194784319Y-106713186D02*
X194757381Y-106632373D01*
X196096627Y-133271494D02*
X196177439Y-133298431D01*
X196177439Y-133298431D02*
X196258251Y-133379243D01*
X196258251Y-133379243D02*
X196312126Y-133486993D01*
X196312126Y-133486993D02*
X196312126Y-133594742D01*
X196312126Y-133594742D02*
X196285189Y-133675555D01*
X196285189Y-133675555D02*
X196204376Y-133810242D01*
X196204376Y-133810242D02*
X196123564Y-133891054D01*
X196123564Y-133891054D02*
X195988877Y-133971866D01*
X195988877Y-133971866D02*
X195908065Y-133998803D01*
X195908065Y-133998803D02*
X195800315Y-133998803D01*
X195800315Y-133998803D02*
X195692566Y-133944929D01*
X195692566Y-133944929D02*
X195638691Y-133891054D01*
X195638691Y-133891054D02*
X195584816Y-133783304D01*
X195584816Y-133783304D02*
X195584816Y-133729429D01*
X195584816Y-133729429D02*
X195773378Y-133540868D01*
X195773378Y-133540868D02*
X195881128Y-133648617D01*
X195288505Y-133540868D02*
X195854190Y-132975182D01*
X195854190Y-132975182D02*
X195638691Y-132759683D01*
X195638691Y-132759683D02*
X195557879Y-132732746D01*
X195557879Y-132732746D02*
X195504004Y-132732746D01*
X195504004Y-132732746D02*
X195423192Y-132759683D01*
X195423192Y-132759683D02*
X195342380Y-132840495D01*
X195342380Y-132840495D02*
X195315442Y-132921307D01*
X195315442Y-132921307D02*
X195315442Y-132975182D01*
X195315442Y-132975182D02*
X195342380Y-133055994D01*
X195342380Y-133055994D02*
X195557879Y-133271494D01*
X195261567Y-132490309D02*
X195261567Y-132436434D01*
X195261567Y-132436434D02*
X195234630Y-132355622D01*
X195234630Y-132355622D02*
X195099943Y-132220935D01*
X195099943Y-132220935D02*
X195019131Y-132193998D01*
X195019131Y-132193998D02*
X194965256Y-132193998D01*
X194965256Y-132193998D02*
X194884444Y-132220935D01*
X194884444Y-132220935D02*
X194830569Y-132274810D01*
X194830569Y-132274810D02*
X194776694Y-132382559D01*
X194776694Y-132382559D02*
X194776694Y-133029057D01*
X194776694Y-133029057D02*
X194426508Y-132678871D01*
X196096627Y-138361494D02*
X196177439Y-138388431D01*
X196177439Y-138388431D02*
X196258251Y-138469243D01*
X196258251Y-138469243D02*
X196312126Y-138576993D01*
X196312126Y-138576993D02*
X196312126Y-138684742D01*
X196312126Y-138684742D02*
X196285189Y-138765555D01*
X196285189Y-138765555D02*
X196204376Y-138900242D01*
X196204376Y-138900242D02*
X196123564Y-138981054D01*
X196123564Y-138981054D02*
X195988877Y-139061866D01*
X195988877Y-139061866D02*
X195908065Y-139088803D01*
X195908065Y-139088803D02*
X195800315Y-139088803D01*
X195800315Y-139088803D02*
X195692566Y-139034929D01*
X195692566Y-139034929D02*
X195638691Y-138981054D01*
X195638691Y-138981054D02*
X195584816Y-138873304D01*
X195584816Y-138873304D02*
X195584816Y-138819429D01*
X195584816Y-138819429D02*
X195773378Y-138630868D01*
X195773378Y-138630868D02*
X195881128Y-138738617D01*
X195288505Y-138630868D02*
X195854190Y-138065182D01*
X195854190Y-138065182D02*
X195638691Y-137849683D01*
X195638691Y-137849683D02*
X195557879Y-137822746D01*
X195557879Y-137822746D02*
X195504004Y-137822746D01*
X195504004Y-137822746D02*
X195423192Y-137849683D01*
X195423192Y-137849683D02*
X195342380Y-137930495D01*
X195342380Y-137930495D02*
X195315442Y-138011307D01*
X195315442Y-138011307D02*
X195315442Y-138065182D01*
X195315442Y-138065182D02*
X195342380Y-138145994D01*
X195342380Y-138145994D02*
X195557879Y-138361494D01*
X194426508Y-137768871D02*
X194749757Y-138092120D01*
X194588132Y-137930495D02*
X195153818Y-137364810D01*
X195153818Y-137364810D02*
X195126880Y-137499497D01*
X195126880Y-137499497D02*
X195126880Y-137607246D01*
X195126880Y-137607246D02*
X195153818Y-137688059D01*
X204419524Y-90764200D02*
X204305238Y-90802295D01*
X204305238Y-90802295D02*
X204114762Y-90802295D01*
X204114762Y-90802295D02*
X204038571Y-90764200D01*
X204038571Y-90764200D02*
X204000476Y-90726104D01*
X204000476Y-90726104D02*
X203962381Y-90649914D01*
X203962381Y-90649914D02*
X203962381Y-90573723D01*
X203962381Y-90573723D02*
X204000476Y-90497533D01*
X204000476Y-90497533D02*
X204038571Y-90459438D01*
X204038571Y-90459438D02*
X204114762Y-90421342D01*
X204114762Y-90421342D02*
X204267143Y-90383247D01*
X204267143Y-90383247D02*
X204343333Y-90345152D01*
X204343333Y-90345152D02*
X204381428Y-90307057D01*
X204381428Y-90307057D02*
X204419524Y-90230866D01*
X204419524Y-90230866D02*
X204419524Y-90154676D01*
X204419524Y-90154676D02*
X204381428Y-90078485D01*
X204381428Y-90078485D02*
X204343333Y-90040390D01*
X204343333Y-90040390D02*
X204267143Y-90002295D01*
X204267143Y-90002295D02*
X204076666Y-90002295D01*
X204076666Y-90002295D02*
X203962381Y-90040390D01*
X203695714Y-90002295D02*
X203505238Y-90802295D01*
X203505238Y-90802295D02*
X203352857Y-90230866D01*
X203352857Y-90230866D02*
X203200476Y-90802295D01*
X203200476Y-90802295D02*
X203010000Y-90002295D01*
X202248094Y-90726104D02*
X202286190Y-90764200D01*
X202286190Y-90764200D02*
X202400475Y-90802295D01*
X202400475Y-90802295D02*
X202476666Y-90802295D01*
X202476666Y-90802295D02*
X202590952Y-90764200D01*
X202590952Y-90764200D02*
X202667142Y-90688009D01*
X202667142Y-90688009D02*
X202705237Y-90611819D01*
X202705237Y-90611819D02*
X202743333Y-90459438D01*
X202743333Y-90459438D02*
X202743333Y-90345152D01*
X202743333Y-90345152D02*
X202705237Y-90192771D01*
X202705237Y-90192771D02*
X202667142Y-90116580D01*
X202667142Y-90116580D02*
X202590952Y-90040390D01*
X202590952Y-90040390D02*
X202476666Y-90002295D01*
X202476666Y-90002295D02*
X202400475Y-90002295D01*
X202400475Y-90002295D02*
X202286190Y-90040390D01*
X202286190Y-90040390D02*
X202248094Y-90078485D01*
X201524285Y-90802295D02*
X201905237Y-90802295D01*
X201905237Y-90802295D02*
X201905237Y-90002295D01*
X201257618Y-90802295D02*
X201257618Y-90002295D01*
X200800475Y-90802295D02*
X201143333Y-90345152D01*
X200800475Y-90002295D02*
X201257618Y-90459438D01*
X222320001Y-113220868D02*
X222400814Y-113247805D01*
X222400814Y-113247805D02*
X222481626Y-113328618D01*
X222481626Y-113328618D02*
X222535501Y-113436367D01*
X222535501Y-113436367D02*
X222535501Y-113544117D01*
X222535501Y-113544117D02*
X222508563Y-113624929D01*
X222508563Y-113624929D02*
X222427751Y-113759616D01*
X222427751Y-113759616D02*
X222346939Y-113840428D01*
X222346939Y-113840428D02*
X222212252Y-113921241D01*
X222212252Y-113921241D02*
X222131439Y-113948178D01*
X222131439Y-113948178D02*
X222023690Y-113948178D01*
X222023690Y-113948178D02*
X221915940Y-113894303D01*
X221915940Y-113894303D02*
X221862065Y-113840428D01*
X221862065Y-113840428D02*
X221808191Y-113732679D01*
X221808191Y-113732679D02*
X221808191Y-113678804D01*
X221808191Y-113678804D02*
X221996752Y-113490242D01*
X221996752Y-113490242D02*
X222104502Y-113597992D01*
X221511879Y-113490242D02*
X222077565Y-112924557D01*
X222077565Y-112924557D02*
X221862065Y-112709057D01*
X221862065Y-112709057D02*
X221781253Y-112682120D01*
X221781253Y-112682120D02*
X221727378Y-112682120D01*
X221727378Y-112682120D02*
X221646566Y-112709057D01*
X221646566Y-112709057D02*
X221565754Y-112789870D01*
X221565754Y-112789870D02*
X221538817Y-112870682D01*
X221538817Y-112870682D02*
X221538817Y-112924557D01*
X221538817Y-112924557D02*
X221565754Y-113005369D01*
X221565754Y-113005369D02*
X221781253Y-113220868D01*
X221484942Y-112439683D02*
X221484942Y-112385809D01*
X221484942Y-112385809D02*
X221458004Y-112304996D01*
X221458004Y-112304996D02*
X221323317Y-112170309D01*
X221323317Y-112170309D02*
X221242505Y-112143372D01*
X221242505Y-112143372D02*
X221188630Y-112143372D01*
X221188630Y-112143372D02*
X221107818Y-112170309D01*
X221107818Y-112170309D02*
X221053943Y-112224184D01*
X221053943Y-112224184D02*
X221000069Y-112331934D01*
X221000069Y-112331934D02*
X221000069Y-112978431D01*
X221000069Y-112978431D02*
X220649882Y-112628245D01*
X220946194Y-111900935D02*
X220946194Y-111847060D01*
X220946194Y-111847060D02*
X220919256Y-111766248D01*
X220919256Y-111766248D02*
X220784569Y-111631561D01*
X220784569Y-111631561D02*
X220703757Y-111604624D01*
X220703757Y-111604624D02*
X220649882Y-111604624D01*
X220649882Y-111604624D02*
X220569070Y-111631561D01*
X220569070Y-111631561D02*
X220515195Y-111685436D01*
X220515195Y-111685436D02*
X220461320Y-111793186D01*
X220461320Y-111793186D02*
X220461320Y-112439683D01*
X220461320Y-112439683D02*
X220111134Y-112089497D01*
X221471348Y-116043710D02*
X221929283Y-115962898D01*
X221794596Y-116366959D02*
X222360282Y-115801274D01*
X222360282Y-115801274D02*
X222144783Y-115585775D01*
X222144783Y-115585775D02*
X222063970Y-115558837D01*
X222063970Y-115558837D02*
X222010096Y-115558837D01*
X222010096Y-115558837D02*
X221929283Y-115585775D01*
X221929283Y-115585775D02*
X221848471Y-115666587D01*
X221848471Y-115666587D02*
X221821534Y-115747399D01*
X221821534Y-115747399D02*
X221821534Y-115801274D01*
X221821534Y-115801274D02*
X221848471Y-115882086D01*
X221848471Y-115882086D02*
X222063970Y-116097585D01*
X221794596Y-115235588D02*
X221336661Y-115693524D01*
X221336661Y-115693524D02*
X221255848Y-115720462D01*
X221255848Y-115720462D02*
X221201974Y-115720462D01*
X221201974Y-115720462D02*
X221121161Y-115693524D01*
X221121161Y-115693524D02*
X221013412Y-115585775D01*
X221013412Y-115585775D02*
X220986474Y-115504962D01*
X220986474Y-115504962D02*
X220986474Y-115451088D01*
X220986474Y-115451088D02*
X221013412Y-115370275D01*
X221013412Y-115370275D02*
X221471348Y-114912340D01*
X220636288Y-115208651D02*
X221201974Y-114642966D01*
X221201974Y-114642966D02*
X220313040Y-114885402D01*
X220313040Y-114885402D02*
X220878725Y-114319717D01*
X196196627Y-130731494D02*
X196277439Y-130758431D01*
X196277439Y-130758431D02*
X196358251Y-130839243D01*
X196358251Y-130839243D02*
X196412126Y-130946993D01*
X196412126Y-130946993D02*
X196412126Y-131054742D01*
X196412126Y-131054742D02*
X196385189Y-131135555D01*
X196385189Y-131135555D02*
X196304376Y-131270242D01*
X196304376Y-131270242D02*
X196223564Y-131351054D01*
X196223564Y-131351054D02*
X196088877Y-131431866D01*
X196088877Y-131431866D02*
X196008065Y-131458803D01*
X196008065Y-131458803D02*
X195900315Y-131458803D01*
X195900315Y-131458803D02*
X195792566Y-131404929D01*
X195792566Y-131404929D02*
X195738691Y-131351054D01*
X195738691Y-131351054D02*
X195684816Y-131243304D01*
X195684816Y-131243304D02*
X195684816Y-131189429D01*
X195684816Y-131189429D02*
X195873378Y-131000868D01*
X195873378Y-131000868D02*
X195981128Y-131108617D01*
X195388505Y-131000868D02*
X195954190Y-130435182D01*
X195954190Y-130435182D02*
X195738691Y-130219683D01*
X195738691Y-130219683D02*
X195657879Y-130192746D01*
X195657879Y-130192746D02*
X195604004Y-130192746D01*
X195604004Y-130192746D02*
X195523192Y-130219683D01*
X195523192Y-130219683D02*
X195442380Y-130300495D01*
X195442380Y-130300495D02*
X195415442Y-130381307D01*
X195415442Y-130381307D02*
X195415442Y-130435182D01*
X195415442Y-130435182D02*
X195442380Y-130515994D01*
X195442380Y-130515994D02*
X195657879Y-130731494D01*
X195442380Y-129923372D02*
X195092193Y-129573185D01*
X195092193Y-129573185D02*
X195065256Y-129977246D01*
X195065256Y-129977246D02*
X194984444Y-129896434D01*
X194984444Y-129896434D02*
X194903632Y-129869497D01*
X194903632Y-129869497D02*
X194849757Y-129869497D01*
X194849757Y-129869497D02*
X194768945Y-129896434D01*
X194768945Y-129896434D02*
X194634258Y-130031121D01*
X194634258Y-130031121D02*
X194607320Y-130111933D01*
X194607320Y-130111933D02*
X194607320Y-130165808D01*
X194607320Y-130165808D02*
X194634258Y-130246620D01*
X194634258Y-130246620D02*
X194795882Y-130408245D01*
X194795882Y-130408245D02*
X194876694Y-130435182D01*
X194876694Y-130435182D02*
X194930569Y-130435182D01*
X196196627Y-128191494D02*
X196277439Y-128218431D01*
X196277439Y-128218431D02*
X196358251Y-128299243D01*
X196358251Y-128299243D02*
X196412126Y-128406993D01*
X196412126Y-128406993D02*
X196412126Y-128514742D01*
X196412126Y-128514742D02*
X196385189Y-128595555D01*
X196385189Y-128595555D02*
X196304376Y-128730242D01*
X196304376Y-128730242D02*
X196223564Y-128811054D01*
X196223564Y-128811054D02*
X196088877Y-128891866D01*
X196088877Y-128891866D02*
X196008065Y-128918803D01*
X196008065Y-128918803D02*
X195900315Y-128918803D01*
X195900315Y-128918803D02*
X195792566Y-128864929D01*
X195792566Y-128864929D02*
X195738691Y-128811054D01*
X195738691Y-128811054D02*
X195684816Y-128703304D01*
X195684816Y-128703304D02*
X195684816Y-128649429D01*
X195684816Y-128649429D02*
X195873378Y-128460868D01*
X195873378Y-128460868D02*
X195981128Y-128568617D01*
X195388505Y-128460868D02*
X195954190Y-127895182D01*
X195954190Y-127895182D02*
X195738691Y-127679683D01*
X195738691Y-127679683D02*
X195657879Y-127652746D01*
X195657879Y-127652746D02*
X195604004Y-127652746D01*
X195604004Y-127652746D02*
X195523192Y-127679683D01*
X195523192Y-127679683D02*
X195442380Y-127760495D01*
X195442380Y-127760495D02*
X195415442Y-127841307D01*
X195415442Y-127841307D02*
X195415442Y-127895182D01*
X195415442Y-127895182D02*
X195442380Y-127975994D01*
X195442380Y-127975994D02*
X195657879Y-128191494D01*
X194957506Y-127275622D02*
X194580383Y-127652746D01*
X195307693Y-127194810D02*
X195038319Y-127733558D01*
X195038319Y-127733558D02*
X194688132Y-127383372D01*
X196223564Y-135838431D02*
X196304376Y-135865368D01*
X196304376Y-135865368D02*
X196385188Y-135946180D01*
X196385188Y-135946180D02*
X196439063Y-136053930D01*
X196439063Y-136053930D02*
X196439063Y-136161680D01*
X196439063Y-136161680D02*
X196412126Y-136242492D01*
X196412126Y-136242492D02*
X196331314Y-136377179D01*
X196331314Y-136377179D02*
X196250501Y-136457991D01*
X196250501Y-136457991D02*
X196115814Y-136538803D01*
X196115814Y-136538803D02*
X196035002Y-136565741D01*
X196035002Y-136565741D02*
X195927253Y-136565741D01*
X195927253Y-136565741D02*
X195819503Y-136511866D01*
X195819503Y-136511866D02*
X195765628Y-136457991D01*
X195765628Y-136457991D02*
X195711753Y-136350241D01*
X195711753Y-136350241D02*
X195711753Y-136296367D01*
X195711753Y-136296367D02*
X195900315Y-136107805D01*
X195900315Y-136107805D02*
X196008065Y-136215554D01*
X195415442Y-136107805D02*
X195981127Y-135542119D01*
X195981127Y-135542119D02*
X195092193Y-135784556D01*
X195092193Y-135784556D02*
X195657879Y-135218871D01*
X194822819Y-135515182D02*
X195388505Y-134949497D01*
X195388505Y-134949497D02*
X195253818Y-134814810D01*
X195253818Y-134814810D02*
X195146068Y-134760935D01*
X195146068Y-134760935D02*
X195038319Y-134760935D01*
X195038319Y-134760935D02*
X194957506Y-134787872D01*
X194957506Y-134787872D02*
X194822819Y-134868685D01*
X194822819Y-134868685D02*
X194742007Y-134949497D01*
X194742007Y-134949497D02*
X194661195Y-135084184D01*
X194661195Y-135084184D02*
X194634258Y-135164996D01*
X194634258Y-135164996D02*
X194634258Y-135272746D01*
X194634258Y-135272746D02*
X194688132Y-135380495D01*
X194688132Y-135380495D02*
X194822819Y-135515182D01*
X196196627Y-112951494D02*
X196277439Y-112978431D01*
X196277439Y-112978431D02*
X196358251Y-113059243D01*
X196358251Y-113059243D02*
X196412126Y-113166993D01*
X196412126Y-113166993D02*
X196412126Y-113274742D01*
X196412126Y-113274742D02*
X196385189Y-113355555D01*
X196385189Y-113355555D02*
X196304376Y-113490242D01*
X196304376Y-113490242D02*
X196223564Y-113571054D01*
X196223564Y-113571054D02*
X196088877Y-113651866D01*
X196088877Y-113651866D02*
X196008065Y-113678803D01*
X196008065Y-113678803D02*
X195900315Y-113678803D01*
X195900315Y-113678803D02*
X195792566Y-113624929D01*
X195792566Y-113624929D02*
X195738691Y-113571054D01*
X195738691Y-113571054D02*
X195684816Y-113463304D01*
X195684816Y-113463304D02*
X195684816Y-113409429D01*
X195684816Y-113409429D02*
X195873378Y-113220868D01*
X195873378Y-113220868D02*
X195981128Y-113328617D01*
X195388505Y-113220868D02*
X195954190Y-112655182D01*
X195954190Y-112655182D02*
X195738691Y-112439683D01*
X195738691Y-112439683D02*
X195657879Y-112412746D01*
X195657879Y-112412746D02*
X195604004Y-112412746D01*
X195604004Y-112412746D02*
X195523192Y-112439683D01*
X195523192Y-112439683D02*
X195442380Y-112520495D01*
X195442380Y-112520495D02*
X195415442Y-112601307D01*
X195415442Y-112601307D02*
X195415442Y-112655182D01*
X195415442Y-112655182D02*
X195442380Y-112735994D01*
X195442380Y-112735994D02*
X195657879Y-112951494D01*
X194795882Y-112628245D02*
X194688132Y-112520495D01*
X194688132Y-112520495D02*
X194661195Y-112439683D01*
X194661195Y-112439683D02*
X194661195Y-112385808D01*
X194661195Y-112385808D02*
X194688132Y-112251121D01*
X194688132Y-112251121D02*
X194768945Y-112116434D01*
X194768945Y-112116434D02*
X194984444Y-111900935D01*
X194984444Y-111900935D02*
X195065256Y-111873998D01*
X195065256Y-111873998D02*
X195119131Y-111873998D01*
X195119131Y-111873998D02*
X195199943Y-111900935D01*
X195199943Y-111900935D02*
X195307693Y-112008685D01*
X195307693Y-112008685D02*
X195334630Y-112089497D01*
X195334630Y-112089497D02*
X195334630Y-112143372D01*
X195334630Y-112143372D02*
X195307693Y-112224184D01*
X195307693Y-112224184D02*
X195173006Y-112358871D01*
X195173006Y-112358871D02*
X195092193Y-112385808D01*
X195092193Y-112385808D02*
X195038319Y-112385808D01*
X195038319Y-112385808D02*
X194957506Y-112358871D01*
X194957506Y-112358871D02*
X194849757Y-112251121D01*
X194849757Y-112251121D02*
X194822819Y-112170309D01*
X194822819Y-112170309D02*
X194822819Y-112116434D01*
X194822819Y-112116434D02*
X194849757Y-112035622D01*
X222320001Y-118300868D02*
X222400814Y-118327805D01*
X222400814Y-118327805D02*
X222481626Y-118408618D01*
X222481626Y-118408618D02*
X222535501Y-118516367D01*
X222535501Y-118516367D02*
X222535501Y-118624117D01*
X222535501Y-118624117D02*
X222508563Y-118704929D01*
X222508563Y-118704929D02*
X222427751Y-118839616D01*
X222427751Y-118839616D02*
X222346939Y-118920428D01*
X222346939Y-118920428D02*
X222212252Y-119001241D01*
X222212252Y-119001241D02*
X222131439Y-119028178D01*
X222131439Y-119028178D02*
X222023690Y-119028178D01*
X222023690Y-119028178D02*
X221915940Y-118974303D01*
X221915940Y-118974303D02*
X221862065Y-118920428D01*
X221862065Y-118920428D02*
X221808191Y-118812679D01*
X221808191Y-118812679D02*
X221808191Y-118758804D01*
X221808191Y-118758804D02*
X221996752Y-118570242D01*
X221996752Y-118570242D02*
X222104502Y-118677992D01*
X221511879Y-118570242D02*
X222077565Y-118004557D01*
X222077565Y-118004557D02*
X221862065Y-117789057D01*
X221862065Y-117789057D02*
X221781253Y-117762120D01*
X221781253Y-117762120D02*
X221727378Y-117762120D01*
X221727378Y-117762120D02*
X221646566Y-117789057D01*
X221646566Y-117789057D02*
X221565754Y-117869870D01*
X221565754Y-117869870D02*
X221538817Y-117950682D01*
X221538817Y-117950682D02*
X221538817Y-118004557D01*
X221538817Y-118004557D02*
X221565754Y-118085369D01*
X221565754Y-118085369D02*
X221781253Y-118300868D01*
X221484942Y-117519683D02*
X221484942Y-117465809D01*
X221484942Y-117465809D02*
X221458004Y-117384996D01*
X221458004Y-117384996D02*
X221323317Y-117250309D01*
X221323317Y-117250309D02*
X221242505Y-117223372D01*
X221242505Y-117223372D02*
X221188630Y-117223372D01*
X221188630Y-117223372D02*
X221107818Y-117250309D01*
X221107818Y-117250309D02*
X221053943Y-117304184D01*
X221053943Y-117304184D02*
X221000069Y-117411934D01*
X221000069Y-117411934D02*
X221000069Y-118058431D01*
X221000069Y-118058431D02*
X220649882Y-117708245D01*
X220730694Y-116657686D02*
X220838444Y-116765436D01*
X220838444Y-116765436D02*
X220865381Y-116846248D01*
X220865381Y-116846248D02*
X220865381Y-116900123D01*
X220865381Y-116900123D02*
X220838444Y-117034810D01*
X220838444Y-117034810D02*
X220757632Y-117169497D01*
X220757632Y-117169497D02*
X220542133Y-117384996D01*
X220542133Y-117384996D02*
X220461320Y-117411934D01*
X220461320Y-117411934D02*
X220407446Y-117411934D01*
X220407446Y-117411934D02*
X220326633Y-117384996D01*
X220326633Y-117384996D02*
X220218884Y-117277247D01*
X220218884Y-117277247D02*
X220191946Y-117196434D01*
X220191946Y-117196434D02*
X220191946Y-117142560D01*
X220191946Y-117142560D02*
X220218884Y-117061747D01*
X220218884Y-117061747D02*
X220353571Y-116927060D01*
X220353571Y-116927060D02*
X220434383Y-116900123D01*
X220434383Y-116900123D02*
X220488258Y-116900123D01*
X220488258Y-116900123D02*
X220569070Y-116927060D01*
X220569070Y-116927060D02*
X220676820Y-117034810D01*
X220676820Y-117034810D02*
X220703757Y-117115622D01*
X220703757Y-117115622D02*
X220703757Y-117169497D01*
X220703757Y-117169497D02*
X220676820Y-117250309D01*
X196296627Y-118061494D02*
X196377439Y-118088431D01*
X196377439Y-118088431D02*
X196458251Y-118169243D01*
X196458251Y-118169243D02*
X196512126Y-118276993D01*
X196512126Y-118276993D02*
X196512126Y-118384742D01*
X196512126Y-118384742D02*
X196485189Y-118465555D01*
X196485189Y-118465555D02*
X196404376Y-118600242D01*
X196404376Y-118600242D02*
X196323564Y-118681054D01*
X196323564Y-118681054D02*
X196188877Y-118761866D01*
X196188877Y-118761866D02*
X196108065Y-118788803D01*
X196108065Y-118788803D02*
X196000315Y-118788803D01*
X196000315Y-118788803D02*
X195892566Y-118734929D01*
X195892566Y-118734929D02*
X195838691Y-118681054D01*
X195838691Y-118681054D02*
X195784816Y-118573304D01*
X195784816Y-118573304D02*
X195784816Y-118519429D01*
X195784816Y-118519429D02*
X195973378Y-118330868D01*
X195973378Y-118330868D02*
X196081128Y-118438617D01*
X195488505Y-118330868D02*
X196054190Y-117765182D01*
X196054190Y-117765182D02*
X195838691Y-117549683D01*
X195838691Y-117549683D02*
X195757879Y-117522746D01*
X195757879Y-117522746D02*
X195704004Y-117522746D01*
X195704004Y-117522746D02*
X195623192Y-117549683D01*
X195623192Y-117549683D02*
X195542380Y-117630495D01*
X195542380Y-117630495D02*
X195515442Y-117711307D01*
X195515442Y-117711307D02*
X195515442Y-117765182D01*
X195515442Y-117765182D02*
X195542380Y-117845994D01*
X195542380Y-117845994D02*
X195757879Y-118061494D01*
X195542380Y-117253372D02*
X195165256Y-116876248D01*
X195165256Y-116876248D02*
X194842007Y-117684370D01*
X222320001Y-126174868D02*
X222400814Y-126201805D01*
X222400814Y-126201805D02*
X222481626Y-126282618D01*
X222481626Y-126282618D02*
X222535501Y-126390367D01*
X222535501Y-126390367D02*
X222535501Y-126498117D01*
X222535501Y-126498117D02*
X222508563Y-126578929D01*
X222508563Y-126578929D02*
X222427751Y-126713616D01*
X222427751Y-126713616D02*
X222346939Y-126794428D01*
X222346939Y-126794428D02*
X222212252Y-126875241D01*
X222212252Y-126875241D02*
X222131439Y-126902178D01*
X222131439Y-126902178D02*
X222023690Y-126902178D01*
X222023690Y-126902178D02*
X221915940Y-126848303D01*
X221915940Y-126848303D02*
X221862065Y-126794428D01*
X221862065Y-126794428D02*
X221808191Y-126686679D01*
X221808191Y-126686679D02*
X221808191Y-126632804D01*
X221808191Y-126632804D02*
X221996752Y-126444242D01*
X221996752Y-126444242D02*
X222104502Y-126551992D01*
X221511879Y-126444242D02*
X222077565Y-125878557D01*
X222077565Y-125878557D02*
X221862065Y-125663057D01*
X221862065Y-125663057D02*
X221781253Y-125636120D01*
X221781253Y-125636120D02*
X221727378Y-125636120D01*
X221727378Y-125636120D02*
X221646566Y-125663057D01*
X221646566Y-125663057D02*
X221565754Y-125743870D01*
X221565754Y-125743870D02*
X221538817Y-125824682D01*
X221538817Y-125824682D02*
X221538817Y-125878557D01*
X221538817Y-125878557D02*
X221565754Y-125959369D01*
X221565754Y-125959369D02*
X221781253Y-126174868D01*
X221484942Y-125393683D02*
X221484942Y-125339809D01*
X221484942Y-125339809D02*
X221458004Y-125258996D01*
X221458004Y-125258996D02*
X221323317Y-125124309D01*
X221323317Y-125124309D02*
X221242505Y-125097372D01*
X221242505Y-125097372D02*
X221188630Y-125097372D01*
X221188630Y-125097372D02*
X221107818Y-125124309D01*
X221107818Y-125124309D02*
X221053943Y-125178184D01*
X221053943Y-125178184D02*
X221000069Y-125285934D01*
X221000069Y-125285934D02*
X221000069Y-125932431D01*
X221000069Y-125932431D02*
X220649882Y-125582245D01*
X220649882Y-124935747D02*
X220730694Y-124962685D01*
X220730694Y-124962685D02*
X220784569Y-124962685D01*
X220784569Y-124962685D02*
X220865381Y-124935747D01*
X220865381Y-124935747D02*
X220892319Y-124908810D01*
X220892319Y-124908810D02*
X220919256Y-124827998D01*
X220919256Y-124827998D02*
X220919256Y-124774123D01*
X220919256Y-124774123D02*
X220892319Y-124693311D01*
X220892319Y-124693311D02*
X220784569Y-124585561D01*
X220784569Y-124585561D02*
X220703757Y-124558624D01*
X220703757Y-124558624D02*
X220649882Y-124558624D01*
X220649882Y-124558624D02*
X220569070Y-124585561D01*
X220569070Y-124585561D02*
X220542133Y-124612499D01*
X220542133Y-124612499D02*
X220515195Y-124693311D01*
X220515195Y-124693311D02*
X220515195Y-124747186D01*
X220515195Y-124747186D02*
X220542133Y-124827998D01*
X220542133Y-124827998D02*
X220649882Y-124935747D01*
X220649882Y-124935747D02*
X220676820Y-125016560D01*
X220676820Y-125016560D02*
X220676820Y-125070434D01*
X220676820Y-125070434D02*
X220649882Y-125151247D01*
X220649882Y-125151247D02*
X220542133Y-125258996D01*
X220542133Y-125258996D02*
X220461320Y-125285934D01*
X220461320Y-125285934D02*
X220407446Y-125285934D01*
X220407446Y-125285934D02*
X220326633Y-125258996D01*
X220326633Y-125258996D02*
X220218884Y-125151247D01*
X220218884Y-125151247D02*
X220191946Y-125070434D01*
X220191946Y-125070434D02*
X220191946Y-125016560D01*
X220191946Y-125016560D02*
X220218884Y-124935747D01*
X220218884Y-124935747D02*
X220326633Y-124827998D01*
X220326633Y-124827998D02*
X220407446Y-124801060D01*
X220407446Y-124801060D02*
X220461320Y-124801060D01*
X220461320Y-124801060D02*
X220542133Y-124827998D01*
X196196627Y-115491494D02*
X196277439Y-115518431D01*
X196277439Y-115518431D02*
X196358251Y-115599243D01*
X196358251Y-115599243D02*
X196412126Y-115706993D01*
X196412126Y-115706993D02*
X196412126Y-115814742D01*
X196412126Y-115814742D02*
X196385189Y-115895555D01*
X196385189Y-115895555D02*
X196304376Y-116030242D01*
X196304376Y-116030242D02*
X196223564Y-116111054D01*
X196223564Y-116111054D02*
X196088877Y-116191866D01*
X196088877Y-116191866D02*
X196008065Y-116218803D01*
X196008065Y-116218803D02*
X195900315Y-116218803D01*
X195900315Y-116218803D02*
X195792566Y-116164929D01*
X195792566Y-116164929D02*
X195738691Y-116111054D01*
X195738691Y-116111054D02*
X195684816Y-116003304D01*
X195684816Y-116003304D02*
X195684816Y-115949429D01*
X195684816Y-115949429D02*
X195873378Y-115760868D01*
X195873378Y-115760868D02*
X195981128Y-115868617D01*
X195388505Y-115760868D02*
X195954190Y-115195182D01*
X195954190Y-115195182D02*
X195738691Y-114979683D01*
X195738691Y-114979683D02*
X195657879Y-114952746D01*
X195657879Y-114952746D02*
X195604004Y-114952746D01*
X195604004Y-114952746D02*
X195523192Y-114979683D01*
X195523192Y-114979683D02*
X195442380Y-115060495D01*
X195442380Y-115060495D02*
X195415442Y-115141307D01*
X195415442Y-115141307D02*
X195415442Y-115195182D01*
X195415442Y-115195182D02*
X195442380Y-115275994D01*
X195442380Y-115275994D02*
X195657879Y-115491494D01*
X195065256Y-114791121D02*
X195146068Y-114818059D01*
X195146068Y-114818059D02*
X195199943Y-114818059D01*
X195199943Y-114818059D02*
X195280755Y-114791121D01*
X195280755Y-114791121D02*
X195307693Y-114764184D01*
X195307693Y-114764184D02*
X195334630Y-114683372D01*
X195334630Y-114683372D02*
X195334630Y-114629497D01*
X195334630Y-114629497D02*
X195307693Y-114548685D01*
X195307693Y-114548685D02*
X195199943Y-114440935D01*
X195199943Y-114440935D02*
X195119131Y-114413998D01*
X195119131Y-114413998D02*
X195065256Y-114413998D01*
X195065256Y-114413998D02*
X194984444Y-114440935D01*
X194984444Y-114440935D02*
X194957506Y-114467872D01*
X194957506Y-114467872D02*
X194930569Y-114548685D01*
X194930569Y-114548685D02*
X194930569Y-114602559D01*
X194930569Y-114602559D02*
X194957506Y-114683372D01*
X194957506Y-114683372D02*
X195065256Y-114791121D01*
X195065256Y-114791121D02*
X195092193Y-114871933D01*
X195092193Y-114871933D02*
X195092193Y-114925808D01*
X195092193Y-114925808D02*
X195065256Y-115006620D01*
X195065256Y-115006620D02*
X194957506Y-115114370D01*
X194957506Y-115114370D02*
X194876694Y-115141307D01*
X194876694Y-115141307D02*
X194822819Y-115141307D01*
X194822819Y-115141307D02*
X194742007Y-115114370D01*
X194742007Y-115114370D02*
X194634258Y-115006620D01*
X194634258Y-115006620D02*
X194607320Y-114925808D01*
X194607320Y-114925808D02*
X194607320Y-114871933D01*
X194607320Y-114871933D02*
X194634258Y-114791121D01*
X194634258Y-114791121D02*
X194742007Y-114683372D01*
X194742007Y-114683372D02*
X194822819Y-114656434D01*
X194822819Y-114656434D02*
X194876694Y-114656434D01*
X194876694Y-114656434D02*
X194957506Y-114683372D01*
X222320001Y-108130868D02*
X222400814Y-108157805D01*
X222400814Y-108157805D02*
X222481626Y-108238618D01*
X222481626Y-108238618D02*
X222535501Y-108346367D01*
X222535501Y-108346367D02*
X222535501Y-108454117D01*
X222535501Y-108454117D02*
X222508563Y-108534929D01*
X222508563Y-108534929D02*
X222427751Y-108669616D01*
X222427751Y-108669616D02*
X222346939Y-108750428D01*
X222346939Y-108750428D02*
X222212252Y-108831241D01*
X222212252Y-108831241D02*
X222131439Y-108858178D01*
X222131439Y-108858178D02*
X222023690Y-108858178D01*
X222023690Y-108858178D02*
X221915940Y-108804303D01*
X221915940Y-108804303D02*
X221862065Y-108750428D01*
X221862065Y-108750428D02*
X221808191Y-108642679D01*
X221808191Y-108642679D02*
X221808191Y-108588804D01*
X221808191Y-108588804D02*
X221996752Y-108400242D01*
X221996752Y-108400242D02*
X222104502Y-108507992D01*
X221511879Y-108400242D02*
X222077565Y-107834557D01*
X222077565Y-107834557D02*
X221862065Y-107619057D01*
X221862065Y-107619057D02*
X221781253Y-107592120D01*
X221781253Y-107592120D02*
X221727378Y-107592120D01*
X221727378Y-107592120D02*
X221646566Y-107619057D01*
X221646566Y-107619057D02*
X221565754Y-107699870D01*
X221565754Y-107699870D02*
X221538817Y-107780682D01*
X221538817Y-107780682D02*
X221538817Y-107834557D01*
X221538817Y-107834557D02*
X221565754Y-107915369D01*
X221565754Y-107915369D02*
X221781253Y-108130868D01*
X221484942Y-107349683D02*
X221484942Y-107295809D01*
X221484942Y-107295809D02*
X221458004Y-107214996D01*
X221458004Y-107214996D02*
X221323317Y-107080309D01*
X221323317Y-107080309D02*
X221242505Y-107053372D01*
X221242505Y-107053372D02*
X221188630Y-107053372D01*
X221188630Y-107053372D02*
X221107818Y-107080309D01*
X221107818Y-107080309D02*
X221053943Y-107134184D01*
X221053943Y-107134184D02*
X221000069Y-107241934D01*
X221000069Y-107241934D02*
X221000069Y-107888431D01*
X221000069Y-107888431D02*
X220649882Y-107538245D01*
X220111134Y-106999497D02*
X220434383Y-107322746D01*
X220272759Y-107161121D02*
X220838444Y-106595436D01*
X220838444Y-106595436D02*
X220811507Y-106730123D01*
X220811507Y-106730123D02*
X220811507Y-106837873D01*
X220811507Y-106837873D02*
X220838444Y-106918685D01*
X224154935Y-131174049D02*
X223885561Y-130904675D01*
X224047186Y-131389549D02*
X224424309Y-130635301D01*
X224424309Y-130635301D02*
X223670062Y-131012425D01*
X223481500Y-130823863D02*
X224047186Y-130258178D01*
X224047186Y-130258178D02*
X223912499Y-130123491D01*
X223912499Y-130123491D02*
X223804749Y-130069616D01*
X223804749Y-130069616D02*
X223697000Y-130069616D01*
X223697000Y-130069616D02*
X223616187Y-130096553D01*
X223616187Y-130096553D02*
X223481500Y-130177366D01*
X223481500Y-130177366D02*
X223400688Y-130258178D01*
X223400688Y-130258178D02*
X223319876Y-130392865D01*
X223319876Y-130392865D02*
X223292939Y-130473677D01*
X223292939Y-130473677D02*
X223292939Y-130581427D01*
X223292939Y-130581427D02*
X223346813Y-130689176D01*
X223346813Y-130689176D02*
X223481500Y-130823863D01*
X222646441Y-129881054D02*
X222646441Y-129934929D01*
X222646441Y-129934929D02*
X222700316Y-130042679D01*
X222700316Y-130042679D02*
X222754191Y-130096553D01*
X222754191Y-130096553D02*
X222861940Y-130150428D01*
X222861940Y-130150428D02*
X222969690Y-130150428D01*
X222969690Y-130150428D02*
X223050502Y-130123491D01*
X223050502Y-130123491D02*
X223185189Y-130042679D01*
X223185189Y-130042679D02*
X223266001Y-129961866D01*
X223266001Y-129961866D02*
X223346813Y-129827179D01*
X223346813Y-129827179D02*
X223373751Y-129746367D01*
X223373751Y-129746367D02*
X223373751Y-129638618D01*
X223373751Y-129638618D02*
X223319876Y-129530868D01*
X223319876Y-129530868D02*
X223266001Y-129476993D01*
X223266001Y-129476993D02*
X223158252Y-129423118D01*
X223158252Y-129423118D02*
X223104377Y-129423118D01*
X222430942Y-129881054D02*
X221999943Y-129450056D01*
X222565629Y-128776621D02*
X221811381Y-129153744D01*
X221811381Y-129153744D02*
X222188505Y-128399497D01*
X221111009Y-128453372D02*
X221568945Y-128372560D01*
X221434258Y-128776621D02*
X221999943Y-128210935D01*
X221999943Y-128210935D02*
X221784444Y-127995436D01*
X221784444Y-127995436D02*
X221703632Y-127968499D01*
X221703632Y-127968499D02*
X221649757Y-127968499D01*
X221649757Y-127968499D02*
X221568945Y-127995436D01*
X221568945Y-127995436D02*
X221488133Y-128076248D01*
X221488133Y-128076248D02*
X221461195Y-128157061D01*
X221461195Y-128157061D02*
X221461195Y-128210935D01*
X221461195Y-128210935D02*
X221488133Y-128291748D01*
X221488133Y-128291748D02*
X221703632Y-128507247D01*
X221164884Y-127914624D02*
X220976322Y-127726062D01*
X220599199Y-127941561D02*
X220868573Y-128210935D01*
X220868573Y-128210935D02*
X221434258Y-127645250D01*
X221434258Y-127645250D02*
X221164884Y-127375876D01*
X220464511Y-127214251D02*
X220653073Y-127402813D01*
X220356762Y-127699125D02*
X220922447Y-127133439D01*
X220922447Y-127133439D02*
X220653073Y-126864065D01*
X222956593Y-141567585D02*
X222202346Y-141944709D01*
X222202346Y-141944709D02*
X222579470Y-141190462D01*
X221932972Y-141082712D02*
X221825223Y-141028838D01*
X221825223Y-141028838D02*
X221771348Y-141028838D01*
X221771348Y-141028838D02*
X221690536Y-141055775D01*
X221690536Y-141055775D02*
X221609723Y-141136587D01*
X221609723Y-141136587D02*
X221582786Y-141217399D01*
X221582786Y-141217399D02*
X221582786Y-141271274D01*
X221582786Y-141271274D02*
X221609723Y-141352086D01*
X221609723Y-141352086D02*
X221825223Y-141567586D01*
X221825223Y-141567586D02*
X222390908Y-141001900D01*
X222390908Y-141001900D02*
X222202346Y-140813338D01*
X222202346Y-140813338D02*
X222121534Y-140786401D01*
X222121534Y-140786401D02*
X222067659Y-140786401D01*
X222067659Y-140786401D02*
X221986847Y-140813338D01*
X221986847Y-140813338D02*
X221932972Y-140867213D01*
X221932972Y-140867213D02*
X221906035Y-140948025D01*
X221906035Y-140948025D02*
X221906035Y-141001900D01*
X221906035Y-141001900D02*
X221932972Y-141082712D01*
X221932972Y-141082712D02*
X222121534Y-141271274D01*
X221825223Y-140436215D02*
X221367287Y-140894151D01*
X221367287Y-140894151D02*
X221286475Y-140921088D01*
X221286475Y-140921088D02*
X221232600Y-140921088D01*
X221232600Y-140921088D02*
X221151788Y-140894151D01*
X221151788Y-140894151D02*
X221044038Y-140786401D01*
X221044038Y-140786401D02*
X221017101Y-140705589D01*
X221017101Y-140705589D02*
X221017101Y-140651714D01*
X221017101Y-140651714D02*
X221044038Y-140570902D01*
X221044038Y-140570902D02*
X221501974Y-140112966D01*
X220720789Y-140409277D02*
X220613040Y-140355403D01*
X220613040Y-140355403D02*
X220478353Y-140220716D01*
X220478353Y-140220716D02*
X220451415Y-140139903D01*
X220451415Y-140139903D02*
X220451415Y-140086029D01*
X220451415Y-140086029D02*
X220478353Y-140005216D01*
X220478353Y-140005216D02*
X220532228Y-139951342D01*
X220532228Y-139951342D02*
X220613040Y-139924404D01*
X220613040Y-139924404D02*
X220666915Y-139924404D01*
X220666915Y-139924404D02*
X220747727Y-139951342D01*
X220747727Y-139951342D02*
X220882414Y-140032154D01*
X220882414Y-140032154D02*
X220963226Y-140059091D01*
X220963226Y-140059091D02*
X221017101Y-140059091D01*
X221017101Y-140059091D02*
X221097913Y-140032154D01*
X221097913Y-140032154D02*
X221151788Y-139978279D01*
X221151788Y-139978279D02*
X221178725Y-139897467D01*
X221178725Y-139897467D02*
X221178725Y-139843592D01*
X221178725Y-139843592D02*
X221151788Y-139762780D01*
X221151788Y-139762780D02*
X221017101Y-139628093D01*
X221017101Y-139628093D02*
X220909351Y-139574218D01*
X196066001Y-103060868D02*
X196146814Y-103087805D01*
X196146814Y-103087805D02*
X196227626Y-103168618D01*
X196227626Y-103168618D02*
X196281501Y-103276367D01*
X196281501Y-103276367D02*
X196281501Y-103384117D01*
X196281501Y-103384117D02*
X196254563Y-103464929D01*
X196254563Y-103464929D02*
X196173751Y-103599616D01*
X196173751Y-103599616D02*
X196092939Y-103680428D01*
X196092939Y-103680428D02*
X195958252Y-103761241D01*
X195958252Y-103761241D02*
X195877439Y-103788178D01*
X195877439Y-103788178D02*
X195769690Y-103788178D01*
X195769690Y-103788178D02*
X195661940Y-103734303D01*
X195661940Y-103734303D02*
X195608065Y-103680428D01*
X195608065Y-103680428D02*
X195554191Y-103572679D01*
X195554191Y-103572679D02*
X195554191Y-103518804D01*
X195554191Y-103518804D02*
X195742752Y-103330242D01*
X195742752Y-103330242D02*
X195850502Y-103437992D01*
X195257879Y-103330242D02*
X195823565Y-102764557D01*
X195823565Y-102764557D02*
X195608065Y-102549057D01*
X195608065Y-102549057D02*
X195527253Y-102522120D01*
X195527253Y-102522120D02*
X195473378Y-102522120D01*
X195473378Y-102522120D02*
X195392566Y-102549057D01*
X195392566Y-102549057D02*
X195311754Y-102629870D01*
X195311754Y-102629870D02*
X195284817Y-102710682D01*
X195284817Y-102710682D02*
X195284817Y-102764557D01*
X195284817Y-102764557D02*
X195311754Y-102845369D01*
X195311754Y-102845369D02*
X195527253Y-103060868D01*
X194395882Y-102468245D02*
X194719131Y-102791494D01*
X194557507Y-102629870D02*
X195123192Y-102064184D01*
X195123192Y-102064184D02*
X195096255Y-102198871D01*
X195096255Y-102198871D02*
X195096255Y-102306621D01*
X195096255Y-102306621D02*
X195123192Y-102387433D01*
X194692194Y-101740935D02*
X194692194Y-101687060D01*
X194692194Y-101687060D02*
X194665256Y-101606248D01*
X194665256Y-101606248D02*
X194530569Y-101471561D01*
X194530569Y-101471561D02*
X194449757Y-101444624D01*
X194449757Y-101444624D02*
X194395882Y-101444624D01*
X194395882Y-101444624D02*
X194315070Y-101471561D01*
X194315070Y-101471561D02*
X194261195Y-101525436D01*
X194261195Y-101525436D02*
X194207320Y-101633186D01*
X194207320Y-101633186D02*
X194207320Y-102279683D01*
X194207320Y-102279683D02*
X193857134Y-101929497D01*
X196066001Y-105600868D02*
X196146814Y-105627805D01*
X196146814Y-105627805D02*
X196227626Y-105708618D01*
X196227626Y-105708618D02*
X196281501Y-105816367D01*
X196281501Y-105816367D02*
X196281501Y-105924117D01*
X196281501Y-105924117D02*
X196254563Y-106004929D01*
X196254563Y-106004929D02*
X196173751Y-106139616D01*
X196173751Y-106139616D02*
X196092939Y-106220428D01*
X196092939Y-106220428D02*
X195958252Y-106301241D01*
X195958252Y-106301241D02*
X195877439Y-106328178D01*
X195877439Y-106328178D02*
X195769690Y-106328178D01*
X195769690Y-106328178D02*
X195661940Y-106274303D01*
X195661940Y-106274303D02*
X195608065Y-106220428D01*
X195608065Y-106220428D02*
X195554191Y-106112679D01*
X195554191Y-106112679D02*
X195554191Y-106058804D01*
X195554191Y-106058804D02*
X195742752Y-105870242D01*
X195742752Y-105870242D02*
X195850502Y-105977992D01*
X195257879Y-105870242D02*
X195823565Y-105304557D01*
X195823565Y-105304557D02*
X195608065Y-105089057D01*
X195608065Y-105089057D02*
X195527253Y-105062120D01*
X195527253Y-105062120D02*
X195473378Y-105062120D01*
X195473378Y-105062120D02*
X195392566Y-105089057D01*
X195392566Y-105089057D02*
X195311754Y-105169870D01*
X195311754Y-105169870D02*
X195284817Y-105250682D01*
X195284817Y-105250682D02*
X195284817Y-105304557D01*
X195284817Y-105304557D02*
X195311754Y-105385369D01*
X195311754Y-105385369D02*
X195527253Y-105600868D01*
X194395882Y-105008245D02*
X194719131Y-105331494D01*
X194557507Y-105169870D02*
X195123192Y-104604184D01*
X195123192Y-104604184D02*
X195096255Y-104738871D01*
X195096255Y-104738871D02*
X195096255Y-104846621D01*
X195096255Y-104846621D02*
X195123192Y-104927433D01*
X193857134Y-104469497D02*
X194180383Y-104792746D01*
X194018759Y-104631121D02*
X194584444Y-104065436D01*
X194584444Y-104065436D02*
X194557507Y-104200123D01*
X194557507Y-104200123D02*
X194557507Y-104307873D01*
X194557507Y-104307873D02*
X194584444Y-104388685D01*
X222320001Y-92900868D02*
X222400814Y-92927805D01*
X222400814Y-92927805D02*
X222481626Y-93008618D01*
X222481626Y-93008618D02*
X222535501Y-93116367D01*
X222535501Y-93116367D02*
X222535501Y-93224117D01*
X222535501Y-93224117D02*
X222508563Y-93304929D01*
X222508563Y-93304929D02*
X222427751Y-93439616D01*
X222427751Y-93439616D02*
X222346939Y-93520428D01*
X222346939Y-93520428D02*
X222212252Y-93601241D01*
X222212252Y-93601241D02*
X222131439Y-93628178D01*
X222131439Y-93628178D02*
X222023690Y-93628178D01*
X222023690Y-93628178D02*
X221915940Y-93574303D01*
X221915940Y-93574303D02*
X221862065Y-93520428D01*
X221862065Y-93520428D02*
X221808191Y-93412679D01*
X221808191Y-93412679D02*
X221808191Y-93358804D01*
X221808191Y-93358804D02*
X221996752Y-93170242D01*
X221996752Y-93170242D02*
X222104502Y-93277992D01*
X221511879Y-93170242D02*
X222077565Y-92604557D01*
X222077565Y-92604557D02*
X221862065Y-92389057D01*
X221862065Y-92389057D02*
X221781253Y-92362120D01*
X221781253Y-92362120D02*
X221727378Y-92362120D01*
X221727378Y-92362120D02*
X221646566Y-92389057D01*
X221646566Y-92389057D02*
X221565754Y-92469870D01*
X221565754Y-92469870D02*
X221538817Y-92550682D01*
X221538817Y-92550682D02*
X221538817Y-92604557D01*
X221538817Y-92604557D02*
X221565754Y-92685369D01*
X221565754Y-92685369D02*
X221781253Y-92900868D01*
X220649882Y-92308245D02*
X220973131Y-92631494D01*
X220811507Y-92469870D02*
X221377192Y-91904184D01*
X221377192Y-91904184D02*
X221350255Y-92038871D01*
X221350255Y-92038871D02*
X221350255Y-92146621D01*
X221350255Y-92146621D02*
X221377192Y-92227433D01*
X220730694Y-91257686D02*
X220838444Y-91365436D01*
X220838444Y-91365436D02*
X220865381Y-91446248D01*
X220865381Y-91446248D02*
X220865381Y-91500123D01*
X220865381Y-91500123D02*
X220838444Y-91634810D01*
X220838444Y-91634810D02*
X220757632Y-91769497D01*
X220757632Y-91769497D02*
X220542133Y-91984996D01*
X220542133Y-91984996D02*
X220461320Y-92011934D01*
X220461320Y-92011934D02*
X220407446Y-92011934D01*
X220407446Y-92011934D02*
X220326633Y-91984996D01*
X220326633Y-91984996D02*
X220218884Y-91877247D01*
X220218884Y-91877247D02*
X220191946Y-91796434D01*
X220191946Y-91796434D02*
X220191946Y-91742560D01*
X220191946Y-91742560D02*
X220218884Y-91661747D01*
X220218884Y-91661747D02*
X220353571Y-91527060D01*
X220353571Y-91527060D02*
X220434383Y-91500123D01*
X220434383Y-91500123D02*
X220488258Y-91500123D01*
X220488258Y-91500123D02*
X220569070Y-91527060D01*
X220569070Y-91527060D02*
X220676820Y-91634810D01*
X220676820Y-91634810D02*
X220703757Y-91715622D01*
X220703757Y-91715622D02*
X220703757Y-91769497D01*
X220703757Y-91769497D02*
X220676820Y-91850309D01*
X196196627Y-125651494D02*
X196277439Y-125678431D01*
X196277439Y-125678431D02*
X196358251Y-125759243D01*
X196358251Y-125759243D02*
X196412126Y-125866993D01*
X196412126Y-125866993D02*
X196412126Y-125974742D01*
X196412126Y-125974742D02*
X196385189Y-126055555D01*
X196385189Y-126055555D02*
X196304376Y-126190242D01*
X196304376Y-126190242D02*
X196223564Y-126271054D01*
X196223564Y-126271054D02*
X196088877Y-126351866D01*
X196088877Y-126351866D02*
X196008065Y-126378803D01*
X196008065Y-126378803D02*
X195900315Y-126378803D01*
X195900315Y-126378803D02*
X195792566Y-126324929D01*
X195792566Y-126324929D02*
X195738691Y-126271054D01*
X195738691Y-126271054D02*
X195684816Y-126163304D01*
X195684816Y-126163304D02*
X195684816Y-126109429D01*
X195684816Y-126109429D02*
X195873378Y-125920868D01*
X195873378Y-125920868D02*
X195981128Y-126028617D01*
X195388505Y-125920868D02*
X195954190Y-125355182D01*
X195954190Y-125355182D02*
X195738691Y-125139683D01*
X195738691Y-125139683D02*
X195657879Y-125112746D01*
X195657879Y-125112746D02*
X195604004Y-125112746D01*
X195604004Y-125112746D02*
X195523192Y-125139683D01*
X195523192Y-125139683D02*
X195442380Y-125220495D01*
X195442380Y-125220495D02*
X195415442Y-125301307D01*
X195415442Y-125301307D02*
X195415442Y-125355182D01*
X195415442Y-125355182D02*
X195442380Y-125435994D01*
X195442380Y-125435994D02*
X195657879Y-125651494D01*
X195119131Y-124520123D02*
X195388505Y-124789497D01*
X195388505Y-124789497D02*
X195146068Y-125085808D01*
X195146068Y-125085808D02*
X195146068Y-125031933D01*
X195146068Y-125031933D02*
X195119131Y-124951121D01*
X195119131Y-124951121D02*
X194984444Y-124816434D01*
X194984444Y-124816434D02*
X194903632Y-124789497D01*
X194903632Y-124789497D02*
X194849757Y-124789497D01*
X194849757Y-124789497D02*
X194768945Y-124816434D01*
X194768945Y-124816434D02*
X194634258Y-124951121D01*
X194634258Y-124951121D02*
X194607320Y-125031933D01*
X194607320Y-125031933D02*
X194607320Y-125085808D01*
X194607320Y-125085808D02*
X194634258Y-125166620D01*
X194634258Y-125166620D02*
X194768945Y-125301307D01*
X194768945Y-125301307D02*
X194849757Y-125328245D01*
X194849757Y-125328245D02*
X194903632Y-125328245D01*
X188764285Y-94454819D02*
X188764285Y-93454819D01*
X188764285Y-93454819D02*
X188526190Y-93454819D01*
X188526190Y-93454819D02*
X188383333Y-93502438D01*
X188383333Y-93502438D02*
X188288095Y-93597676D01*
X188288095Y-93597676D02*
X188240476Y-93692914D01*
X188240476Y-93692914D02*
X188192857Y-93883390D01*
X188192857Y-93883390D02*
X188192857Y-94026247D01*
X188192857Y-94026247D02*
X188240476Y-94216723D01*
X188240476Y-94216723D02*
X188288095Y-94311961D01*
X188288095Y-94311961D02*
X188383333Y-94407200D01*
X188383333Y-94407200D02*
X188526190Y-94454819D01*
X188526190Y-94454819D02*
X188764285Y-94454819D01*
X187240476Y-94454819D02*
X187811904Y-94454819D01*
X187526190Y-94454819D02*
X187526190Y-93454819D01*
X187526190Y-93454819D02*
X187621428Y-93597676D01*
X187621428Y-93597676D02*
X187716666Y-93692914D01*
X187716666Y-93692914D02*
X187811904Y-93740533D01*
X186621428Y-93454819D02*
X186526190Y-93454819D01*
X186526190Y-93454819D02*
X186430952Y-93502438D01*
X186430952Y-93502438D02*
X186383333Y-93550057D01*
X186383333Y-93550057D02*
X186335714Y-93645295D01*
X186335714Y-93645295D02*
X186288095Y-93835771D01*
X186288095Y-93835771D02*
X186288095Y-94073866D01*
X186288095Y-94073866D02*
X186335714Y-94264342D01*
X186335714Y-94264342D02*
X186383333Y-94359580D01*
X186383333Y-94359580D02*
X186430952Y-94407200D01*
X186430952Y-94407200D02*
X186526190Y-94454819D01*
X186526190Y-94454819D02*
X186621428Y-94454819D01*
X186621428Y-94454819D02*
X186716666Y-94407200D01*
X186716666Y-94407200D02*
X186764285Y-94359580D01*
X186764285Y-94359580D02*
X186811904Y-94264342D01*
X186811904Y-94264342D02*
X186859523Y-94073866D01*
X186859523Y-94073866D02*
X186859523Y-93835771D01*
X186859523Y-93835771D02*
X186811904Y-93645295D01*
X186811904Y-93645295D02*
X186764285Y-93550057D01*
X186764285Y-93550057D02*
X186716666Y-93502438D01*
X186716666Y-93502438D02*
X186621428Y-93454819D01*
X121064285Y-113954819D02*
X121064285Y-112954819D01*
X121064285Y-112954819D02*
X120826190Y-112954819D01*
X120826190Y-112954819D02*
X120683333Y-113002438D01*
X120683333Y-113002438D02*
X120588095Y-113097676D01*
X120588095Y-113097676D02*
X120540476Y-113192914D01*
X120540476Y-113192914D02*
X120492857Y-113383390D01*
X120492857Y-113383390D02*
X120492857Y-113526247D01*
X120492857Y-113526247D02*
X120540476Y-113716723D01*
X120540476Y-113716723D02*
X120588095Y-113811961D01*
X120588095Y-113811961D02*
X120683333Y-113907200D01*
X120683333Y-113907200D02*
X120826190Y-113954819D01*
X120826190Y-113954819D02*
X121064285Y-113954819D01*
X120111904Y-113050057D02*
X120064285Y-113002438D01*
X120064285Y-113002438D02*
X119969047Y-112954819D01*
X119969047Y-112954819D02*
X119730952Y-112954819D01*
X119730952Y-112954819D02*
X119635714Y-113002438D01*
X119635714Y-113002438D02*
X119588095Y-113050057D01*
X119588095Y-113050057D02*
X119540476Y-113145295D01*
X119540476Y-113145295D02*
X119540476Y-113240533D01*
X119540476Y-113240533D02*
X119588095Y-113383390D01*
X119588095Y-113383390D02*
X120159523Y-113954819D01*
X120159523Y-113954819D02*
X119540476Y-113954819D01*
X119207142Y-112954819D02*
X118588095Y-112954819D01*
X118588095Y-112954819D02*
X118921428Y-113335771D01*
X118921428Y-113335771D02*
X118778571Y-113335771D01*
X118778571Y-113335771D02*
X118683333Y-113383390D01*
X118683333Y-113383390D02*
X118635714Y-113431009D01*
X118635714Y-113431009D02*
X118588095Y-113526247D01*
X118588095Y-113526247D02*
X118588095Y-113764342D01*
X118588095Y-113764342D02*
X118635714Y-113859580D01*
X118635714Y-113859580D02*
X118683333Y-113907200D01*
X118683333Y-113907200D02*
X118778571Y-113954819D01*
X118778571Y-113954819D02*
X119064285Y-113954819D01*
X119064285Y-113954819D02*
X119159523Y-113907200D01*
X119159523Y-113907200D02*
X119207142Y-113859580D01*
X100014285Y-113954819D02*
X100014285Y-112954819D01*
X100014285Y-112954819D02*
X99776190Y-112954819D01*
X99776190Y-112954819D02*
X99633333Y-113002438D01*
X99633333Y-113002438D02*
X99538095Y-113097676D01*
X99538095Y-113097676D02*
X99490476Y-113192914D01*
X99490476Y-113192914D02*
X99442857Y-113383390D01*
X99442857Y-113383390D02*
X99442857Y-113526247D01*
X99442857Y-113526247D02*
X99490476Y-113716723D01*
X99490476Y-113716723D02*
X99538095Y-113811961D01*
X99538095Y-113811961D02*
X99633333Y-113907200D01*
X99633333Y-113907200D02*
X99776190Y-113954819D01*
X99776190Y-113954819D02*
X100014285Y-113954819D01*
X99061904Y-113050057D02*
X99014285Y-113002438D01*
X99014285Y-113002438D02*
X98919047Y-112954819D01*
X98919047Y-112954819D02*
X98680952Y-112954819D01*
X98680952Y-112954819D02*
X98585714Y-113002438D01*
X98585714Y-113002438D02*
X98538095Y-113050057D01*
X98538095Y-113050057D02*
X98490476Y-113145295D01*
X98490476Y-113145295D02*
X98490476Y-113240533D01*
X98490476Y-113240533D02*
X98538095Y-113383390D01*
X98538095Y-113383390D02*
X99109523Y-113954819D01*
X99109523Y-113954819D02*
X98490476Y-113954819D01*
X97538095Y-113954819D02*
X98109523Y-113954819D01*
X97823809Y-113954819D02*
X97823809Y-112954819D01*
X97823809Y-112954819D02*
X97919047Y-113097676D01*
X97919047Y-113097676D02*
X98014285Y-113192914D01*
X98014285Y-113192914D02*
X98109523Y-113240533D01*
X160814285Y-123704819D02*
X160814285Y-122704819D01*
X160814285Y-122704819D02*
X160576190Y-122704819D01*
X160576190Y-122704819D02*
X160433333Y-122752438D01*
X160433333Y-122752438D02*
X160338095Y-122847676D01*
X160338095Y-122847676D02*
X160290476Y-122942914D01*
X160290476Y-122942914D02*
X160242857Y-123133390D01*
X160242857Y-123133390D02*
X160242857Y-123276247D01*
X160242857Y-123276247D02*
X160290476Y-123466723D01*
X160290476Y-123466723D02*
X160338095Y-123561961D01*
X160338095Y-123561961D02*
X160433333Y-123657200D01*
X160433333Y-123657200D02*
X160576190Y-123704819D01*
X160576190Y-123704819D02*
X160814285Y-123704819D01*
X159909523Y-122704819D02*
X159290476Y-122704819D01*
X159290476Y-122704819D02*
X159623809Y-123085771D01*
X159623809Y-123085771D02*
X159480952Y-123085771D01*
X159480952Y-123085771D02*
X159385714Y-123133390D01*
X159385714Y-123133390D02*
X159338095Y-123181009D01*
X159338095Y-123181009D02*
X159290476Y-123276247D01*
X159290476Y-123276247D02*
X159290476Y-123514342D01*
X159290476Y-123514342D02*
X159338095Y-123609580D01*
X159338095Y-123609580D02*
X159385714Y-123657200D01*
X159385714Y-123657200D02*
X159480952Y-123704819D01*
X159480952Y-123704819D02*
X159766666Y-123704819D01*
X159766666Y-123704819D02*
X159861904Y-123657200D01*
X159861904Y-123657200D02*
X159909523Y-123609580D01*
X158957142Y-122704819D02*
X158290476Y-122704819D01*
X158290476Y-122704819D02*
X158719047Y-123704819D01*
X130764285Y-104954819D02*
X130764285Y-103954819D01*
X130764285Y-103954819D02*
X130526190Y-103954819D01*
X130526190Y-103954819D02*
X130383333Y-104002438D01*
X130383333Y-104002438D02*
X130288095Y-104097676D01*
X130288095Y-104097676D02*
X130240476Y-104192914D01*
X130240476Y-104192914D02*
X130192857Y-104383390D01*
X130192857Y-104383390D02*
X130192857Y-104526247D01*
X130192857Y-104526247D02*
X130240476Y-104716723D01*
X130240476Y-104716723D02*
X130288095Y-104811961D01*
X130288095Y-104811961D02*
X130383333Y-104907200D01*
X130383333Y-104907200D02*
X130526190Y-104954819D01*
X130526190Y-104954819D02*
X130764285Y-104954819D01*
X129240476Y-104954819D02*
X129811904Y-104954819D01*
X129526190Y-104954819D02*
X129526190Y-103954819D01*
X129526190Y-103954819D02*
X129621428Y-104097676D01*
X129621428Y-104097676D02*
X129716666Y-104192914D01*
X129716666Y-104192914D02*
X129811904Y-104240533D01*
X128383333Y-104288152D02*
X128383333Y-104954819D01*
X128621428Y-103907200D02*
X128859523Y-104621485D01*
X128859523Y-104621485D02*
X128240476Y-104621485D01*
X168938094Y-94454819D02*
X168938094Y-93454819D01*
X168938094Y-93454819D02*
X168699999Y-93454819D01*
X168699999Y-93454819D02*
X168557142Y-93502438D01*
X168557142Y-93502438D02*
X168461904Y-93597676D01*
X168461904Y-93597676D02*
X168414285Y-93692914D01*
X168414285Y-93692914D02*
X168366666Y-93883390D01*
X168366666Y-93883390D02*
X168366666Y-94026247D01*
X168366666Y-94026247D02*
X168414285Y-94216723D01*
X168414285Y-94216723D02*
X168461904Y-94311961D01*
X168461904Y-94311961D02*
X168557142Y-94407200D01*
X168557142Y-94407200D02*
X168699999Y-94454819D01*
X168699999Y-94454819D02*
X168938094Y-94454819D01*
X167795237Y-93883390D02*
X167890475Y-93835771D01*
X167890475Y-93835771D02*
X167938094Y-93788152D01*
X167938094Y-93788152D02*
X167985713Y-93692914D01*
X167985713Y-93692914D02*
X167985713Y-93645295D01*
X167985713Y-93645295D02*
X167938094Y-93550057D01*
X167938094Y-93550057D02*
X167890475Y-93502438D01*
X167890475Y-93502438D02*
X167795237Y-93454819D01*
X167795237Y-93454819D02*
X167604761Y-93454819D01*
X167604761Y-93454819D02*
X167509523Y-93502438D01*
X167509523Y-93502438D02*
X167461904Y-93550057D01*
X167461904Y-93550057D02*
X167414285Y-93645295D01*
X167414285Y-93645295D02*
X167414285Y-93692914D01*
X167414285Y-93692914D02*
X167461904Y-93788152D01*
X167461904Y-93788152D02*
X167509523Y-93835771D01*
X167509523Y-93835771D02*
X167604761Y-93883390D01*
X167604761Y-93883390D02*
X167795237Y-93883390D01*
X167795237Y-93883390D02*
X167890475Y-93931009D01*
X167890475Y-93931009D02*
X167938094Y-93978628D01*
X167938094Y-93978628D02*
X167985713Y-94073866D01*
X167985713Y-94073866D02*
X167985713Y-94264342D01*
X167985713Y-94264342D02*
X167938094Y-94359580D01*
X167938094Y-94359580D02*
X167890475Y-94407200D01*
X167890475Y-94407200D02*
X167795237Y-94454819D01*
X167795237Y-94454819D02*
X167604761Y-94454819D01*
X167604761Y-94454819D02*
X167509523Y-94407200D01*
X167509523Y-94407200D02*
X167461904Y-94359580D01*
X167461904Y-94359580D02*
X167414285Y-94264342D01*
X167414285Y-94264342D02*
X167414285Y-94073866D01*
X167414285Y-94073866D02*
X167461904Y-93978628D01*
X167461904Y-93978628D02*
X167509523Y-93931009D01*
X167509523Y-93931009D02*
X167604761Y-93883390D01*
X100064285Y-123704819D02*
X100064285Y-122704819D01*
X100064285Y-122704819D02*
X99826190Y-122704819D01*
X99826190Y-122704819D02*
X99683333Y-122752438D01*
X99683333Y-122752438D02*
X99588095Y-122847676D01*
X99588095Y-122847676D02*
X99540476Y-122942914D01*
X99540476Y-122942914D02*
X99492857Y-123133390D01*
X99492857Y-123133390D02*
X99492857Y-123276247D01*
X99492857Y-123276247D02*
X99540476Y-123466723D01*
X99540476Y-123466723D02*
X99588095Y-123561961D01*
X99588095Y-123561961D02*
X99683333Y-123657200D01*
X99683333Y-123657200D02*
X99826190Y-123704819D01*
X99826190Y-123704819D02*
X100064285Y-123704819D01*
X99159523Y-122704819D02*
X98540476Y-122704819D01*
X98540476Y-122704819D02*
X98873809Y-123085771D01*
X98873809Y-123085771D02*
X98730952Y-123085771D01*
X98730952Y-123085771D02*
X98635714Y-123133390D01*
X98635714Y-123133390D02*
X98588095Y-123181009D01*
X98588095Y-123181009D02*
X98540476Y-123276247D01*
X98540476Y-123276247D02*
X98540476Y-123514342D01*
X98540476Y-123514342D02*
X98588095Y-123609580D01*
X98588095Y-123609580D02*
X98635714Y-123657200D01*
X98635714Y-123657200D02*
X98730952Y-123704819D01*
X98730952Y-123704819D02*
X99016666Y-123704819D01*
X99016666Y-123704819D02*
X99111904Y-123657200D01*
X99111904Y-123657200D02*
X99159523Y-123609580D01*
X97588095Y-123704819D02*
X98159523Y-123704819D01*
X97873809Y-123704819D02*
X97873809Y-122704819D01*
X97873809Y-122704819D02*
X97969047Y-122847676D01*
X97969047Y-122847676D02*
X98064285Y-122942914D01*
X98064285Y-122942914D02*
X98159523Y-122990533D01*
X139538094Y-94454819D02*
X139538094Y-93454819D01*
X139538094Y-93454819D02*
X139299999Y-93454819D01*
X139299999Y-93454819D02*
X139157142Y-93502438D01*
X139157142Y-93502438D02*
X139061904Y-93597676D01*
X139061904Y-93597676D02*
X139014285Y-93692914D01*
X139014285Y-93692914D02*
X138966666Y-93883390D01*
X138966666Y-93883390D02*
X138966666Y-94026247D01*
X138966666Y-94026247D02*
X139014285Y-94216723D01*
X139014285Y-94216723D02*
X139061904Y-94311961D01*
X139061904Y-94311961D02*
X139157142Y-94407200D01*
X139157142Y-94407200D02*
X139299999Y-94454819D01*
X139299999Y-94454819D02*
X139538094Y-94454819D01*
X138061904Y-93454819D02*
X138538094Y-93454819D01*
X138538094Y-93454819D02*
X138585713Y-93931009D01*
X138585713Y-93931009D02*
X138538094Y-93883390D01*
X138538094Y-93883390D02*
X138442856Y-93835771D01*
X138442856Y-93835771D02*
X138204761Y-93835771D01*
X138204761Y-93835771D02*
X138109523Y-93883390D01*
X138109523Y-93883390D02*
X138061904Y-93931009D01*
X138061904Y-93931009D02*
X138014285Y-94026247D01*
X138014285Y-94026247D02*
X138014285Y-94264342D01*
X138014285Y-94264342D02*
X138061904Y-94359580D01*
X138061904Y-94359580D02*
X138109523Y-94407200D01*
X138109523Y-94407200D02*
X138204761Y-94454819D01*
X138204761Y-94454819D02*
X138442856Y-94454819D01*
X138442856Y-94454819D02*
X138538094Y-94407200D01*
X138538094Y-94407200D02*
X138585713Y-94359580D01*
D11*
%TO.C,D15*%
X142210000Y-105500000D02*
X138200000Y-105500000D01*
X142210000Y-105500000D02*
X142210000Y-107500000D01*
X142210000Y-107500000D02*
X138200000Y-107500000D01*
%TO.C,D6*%
X151560000Y-95000000D02*
X147550000Y-95000000D01*
X151560000Y-95000000D02*
X151560000Y-97000000D01*
X151560000Y-97000000D02*
X147550000Y-97000000D01*
%TO.C,D39*%
X179460000Y-124250000D02*
X175450000Y-124250000D01*
X179460000Y-124250000D02*
X179460000Y-126250000D01*
X179460000Y-126250000D02*
X175450000Y-126250000D01*
%TO.C,D12*%
X111660000Y-105500000D02*
X107650000Y-105500000D01*
X111660000Y-105500000D02*
X111660000Y-107500000D01*
X111660000Y-107500000D02*
X107650000Y-107500000D01*
%TO.C,D27*%
X162160000Y-114500000D02*
X158150000Y-114500000D01*
X162160000Y-114500000D02*
X162160000Y-116500000D01*
X162160000Y-116500000D02*
X158150000Y-116500000D01*
%TO.C,D11*%
X101160000Y-105500000D02*
X97150000Y-105500000D01*
X101160000Y-105500000D02*
X101160000Y-107500000D01*
X101160000Y-107500000D02*
X97150000Y-107500000D01*
%TO.C,D18*%
X171210000Y-105500000D02*
X167200000Y-105500000D01*
X171210000Y-105500000D02*
X171210000Y-107500000D01*
X171210000Y-107500000D02*
X167200000Y-107500000D01*
%TO.C,D19*%
X179160000Y-105500000D02*
X175150000Y-105500000D01*
X179160000Y-105500000D02*
X179160000Y-107500000D01*
X179160000Y-107500000D02*
X175150000Y-107500000D01*
%TO.C,D36*%
X151710000Y-124250000D02*
X147700000Y-124250000D01*
X151710000Y-124250000D02*
X151710000Y-126250000D01*
X151710000Y-126250000D02*
X147700000Y-126250000D01*
%TO.C,D33*%
X122210000Y-124250000D02*
X118200000Y-124250000D01*
X122210000Y-124250000D02*
X122210000Y-126250000D01*
X122210000Y-126250000D02*
X118200000Y-126250000D01*
%TO.C,D38*%
X171210000Y-124250000D02*
X167200000Y-124250000D01*
X171210000Y-124250000D02*
X171210000Y-126250000D01*
X171210000Y-126250000D02*
X167200000Y-126250000D01*
%TO.C,D1*%
X100710000Y-95000000D02*
X96700000Y-95000000D01*
X100710000Y-95000000D02*
X100710000Y-97000000D01*
X100710000Y-97000000D02*
X96700000Y-97000000D01*
%TO.C,D2*%
X111460000Y-95000000D02*
X107450000Y-95000000D01*
X111460000Y-95000000D02*
X111460000Y-97000000D01*
X111460000Y-97000000D02*
X107450000Y-97000000D01*
%TO.C,D28*%
X171210000Y-114500000D02*
X167200000Y-114500000D01*
X171210000Y-114500000D02*
X171210000Y-116500000D01*
X171210000Y-116500000D02*
X167200000Y-116500000D01*
%TO.C,D30*%
X189910000Y-114500000D02*
X185900000Y-114500000D01*
X189910000Y-114500000D02*
X189910000Y-116500000D01*
X189910000Y-116500000D02*
X185900000Y-116500000D01*
%TO.C,D35*%
X142210000Y-124250000D02*
X138200000Y-124250000D01*
X142210000Y-124250000D02*
X142210000Y-126250000D01*
X142210000Y-126250000D02*
X138200000Y-126250000D01*
%TO.C,D4*%
X131560000Y-95000000D02*
X127550000Y-95000000D01*
X131560000Y-95000000D02*
X131560000Y-97000000D01*
X131560000Y-97000000D02*
X127550000Y-97000000D01*
%TO.C,D7*%
X160810000Y-95000000D02*
X156800000Y-95000000D01*
X160810000Y-95000000D02*
X160810000Y-97000000D01*
X160810000Y-97000000D02*
X156800000Y-97000000D01*
%TO.C,D34*%
X131960000Y-124250000D02*
X127950000Y-124250000D01*
X131960000Y-124250000D02*
X131960000Y-126250000D01*
X131960000Y-126250000D02*
X127950000Y-126250000D01*
%TO.C,D32*%
X111710000Y-124250000D02*
X107700000Y-124250000D01*
X111710000Y-124250000D02*
X111710000Y-126250000D01*
X111710000Y-126250000D02*
X107700000Y-126250000D01*
%TO.C,D22*%
X111710000Y-114500000D02*
X107700000Y-114500000D01*
X111710000Y-114500000D02*
X111710000Y-116500000D01*
X111710000Y-116500000D02*
X107700000Y-116500000D01*
%TO.C,D29*%
X179210000Y-114500000D02*
X175200000Y-114500000D01*
X179210000Y-114500000D02*
X179210000Y-116500000D01*
X179210000Y-116500000D02*
X175200000Y-116500000D01*
%TO.C,D40*%
X189710000Y-124250000D02*
X185700000Y-124250000D01*
X189710000Y-124250000D02*
X189710000Y-126250000D01*
X189710000Y-126250000D02*
X185700000Y-126250000D01*
%TO.C,D25*%
X142160000Y-114500000D02*
X138150000Y-114500000D01*
X142160000Y-114500000D02*
X142160000Y-116500000D01*
X142160000Y-116500000D02*
X138150000Y-116500000D01*
%TO.C,D20*%
X189960000Y-105500000D02*
X185950000Y-105500000D01*
X189960000Y-105500000D02*
X189960000Y-107500000D01*
X189960000Y-107500000D02*
X185950000Y-107500000D01*
%TO.C,D3*%
X121960000Y-95000000D02*
X117950000Y-95000000D01*
X121960000Y-95000000D02*
X121960000Y-97000000D01*
X121960000Y-97000000D02*
X117950000Y-97000000D01*
%TO.C,D24*%
X131960000Y-114500000D02*
X127950000Y-114500000D01*
X131960000Y-114500000D02*
X131960000Y-116500000D01*
X131960000Y-116500000D02*
X127950000Y-116500000D01*
%TO.C,D9*%
X179410000Y-95000000D02*
X175400000Y-95000000D01*
X179410000Y-95000000D02*
X179410000Y-97000000D01*
X179410000Y-97000000D02*
X175400000Y-97000000D01*
%TO.C,D17*%
X161960000Y-105500000D02*
X157950000Y-105500000D01*
X161960000Y-105500000D02*
X161960000Y-107500000D01*
X161960000Y-107500000D02*
X157950000Y-107500000D01*
%TO.C,D26*%
X151810000Y-114500000D02*
X147800000Y-114500000D01*
X151810000Y-114500000D02*
X151810000Y-116500000D01*
X151810000Y-116500000D02*
X147800000Y-116500000D01*
%TO.C,D16*%
X151960000Y-105500000D02*
X147950000Y-105500000D01*
X151960000Y-105500000D02*
X151960000Y-107500000D01*
X151960000Y-107500000D02*
X147950000Y-107500000D01*
%TO.C,D13*%
X122060000Y-105500000D02*
X118050000Y-105500000D01*
X122060000Y-105500000D02*
X122060000Y-107500000D01*
X122060000Y-107500000D02*
X118050000Y-107500000D01*
%TO.C,U1*%
X197700000Y-93990000D02*
X197700000Y-93570000D01*
X197700000Y-96530000D02*
X197700000Y-96110000D01*
X197700000Y-99070000D02*
X197700000Y-98650000D01*
X197700000Y-101610000D02*
X197700000Y-101190000D01*
X197700000Y-104150000D02*
X197700000Y-103730000D01*
X197700000Y-106690000D02*
X197700000Y-106270000D01*
X197700000Y-109230000D02*
X197700000Y-108810000D01*
X197700000Y-111770000D02*
X197700000Y-111350000D01*
X197700000Y-114310000D02*
X197700000Y-113890000D01*
X197700000Y-116850000D02*
X197700000Y-116430000D01*
X197700000Y-119390000D02*
X197700000Y-118970000D01*
X197700000Y-121930000D02*
X197700000Y-121510000D01*
X197700000Y-124470000D02*
X197700000Y-124050000D01*
X197700000Y-127010000D02*
X197700000Y-126590000D01*
X197700000Y-129550000D02*
X197700000Y-129130000D01*
X197700000Y-132090000D02*
X197700000Y-131670000D01*
X197700000Y-134630000D02*
X197700000Y-134210000D01*
X197700000Y-137170000D02*
X197700000Y-136750000D01*
X197700000Y-139710000D02*
X197220000Y-139710000D01*
X197700000Y-139710000D02*
X197700000Y-139290000D01*
X197730324Y-141830000D02*
X197220000Y-141830000D01*
X198310000Y-91030000D02*
X202147939Y-91030000D01*
X198310000Y-142250000D02*
X200800000Y-142250000D01*
X200800000Y-142250000D02*
X202147940Y-142250000D01*
X203072061Y-142250000D02*
X204075000Y-142250000D01*
X204710000Y-91030000D02*
X203072061Y-91030000D01*
X212545000Y-142250000D02*
X213547939Y-142250000D01*
X213547939Y-91030000D02*
X211910000Y-91030000D01*
X214472061Y-91030000D02*
X218310000Y-91030000D01*
X214472061Y-142250000D02*
X215820000Y-142250000D01*
X218310000Y-142250000D02*
X215820000Y-142250000D01*
X218920000Y-93990000D02*
X218920000Y-93570000D01*
X218920000Y-96530000D02*
X218920000Y-96110000D01*
X218920000Y-99070000D02*
X218920000Y-98650000D01*
X218920000Y-101610000D02*
X218920000Y-101190000D01*
X218920000Y-104150000D02*
X218920000Y-103730000D01*
X218920000Y-106690000D02*
X218920000Y-106270000D01*
X218920000Y-109230000D02*
X218920000Y-108810000D01*
X218920000Y-111770000D02*
X218920000Y-111350000D01*
X218920000Y-114310000D02*
X218920000Y-113890000D01*
X218920000Y-116850000D02*
X218920000Y-116430000D01*
X218920000Y-119390000D02*
X218920000Y-118970000D01*
X218920000Y-121930000D02*
X218920000Y-121510000D01*
X218920000Y-124470000D02*
X218920000Y-124050000D01*
X218920000Y-127010000D02*
X218920000Y-126590000D01*
X218920000Y-129550000D02*
X218920000Y-129130000D01*
X218920000Y-132090000D02*
X218920000Y-131670000D01*
X218920000Y-134630000D02*
X218920000Y-134210000D01*
X218920000Y-137170000D02*
X218920000Y-136750000D01*
X218920000Y-139710000D02*
X218920000Y-139290000D01*
X198310000Y-142250000D02*
G75*
G02*
X197730324Y-141830000I16J610051D01*
G01*
X218889676Y-141829937D02*
G75*
G02*
X218310000Y-142250000I-579676J189937D01*
G01*
%TO.C,D10*%
X189910000Y-95000000D02*
X185900000Y-95000000D01*
X189910000Y-95000000D02*
X189910000Y-97000000D01*
X189910000Y-97000000D02*
X185900000Y-97000000D01*
%TO.C,D23*%
X122210000Y-114500000D02*
X118200000Y-114500000D01*
X122210000Y-114500000D02*
X122210000Y-116500000D01*
X122210000Y-116500000D02*
X118200000Y-116500000D01*
%TO.C,D21*%
X101160000Y-114500000D02*
X97150000Y-114500000D01*
X101160000Y-114500000D02*
X101160000Y-116500000D01*
X101160000Y-116500000D02*
X97150000Y-116500000D01*
%TO.C,D37*%
X161960000Y-124250000D02*
X157950000Y-124250000D01*
X161960000Y-124250000D02*
X161960000Y-126250000D01*
X161960000Y-126250000D02*
X157950000Y-126250000D01*
%TO.C,D14*%
X131910000Y-105500000D02*
X127900000Y-105500000D01*
X131910000Y-105500000D02*
X131910000Y-107500000D01*
X131910000Y-107500000D02*
X127900000Y-107500000D01*
%TO.C,D8*%
X170560000Y-95000000D02*
X166550000Y-95000000D01*
X170560000Y-95000000D02*
X170560000Y-97000000D01*
X170560000Y-97000000D02*
X166550000Y-97000000D01*
%TO.C,D31*%
X101210000Y-124250000D02*
X97200000Y-124250000D01*
X101210000Y-124250000D02*
X101210000Y-126250000D01*
X101210000Y-126250000D02*
X97200000Y-126250000D01*
%TO.C,D5*%
X141160000Y-95000000D02*
X137150000Y-95000000D01*
X141160000Y-95000000D02*
X141160000Y-97000000D01*
X141160000Y-97000000D02*
X137150000Y-97000000D01*
%TD*%
M02*
