<?xml version="1.0" standalone="no"?>
 <!DOCTYPE svg PUBLIC "-//W3C//DTD SVG 1.1//EN" 
 "http://www.w3.org/Graphics/SVG/1.1/DTD/svg11.dtd"> 
<svg
  xmlns:svg="http://www.w3.org/2000/svg"
  xmlns="http://www.w3.org/2000/svg"
  xmlns:xlink="http://www.w3.org/1999/xlink"
  version="1.1"
  width="297.0022mm" height="210.0072mm" viewBox="0.0000 0.0000 297.0022 210.0072">
<title>SVG Image created as brownberryKeeb-F_Courtyard.svg date 2025/04/23 13:37:33 </title>
  <desc>Image generated by PCBNEW </desc>
<g style="fill:#000000; fill-opacity:1.0000;stroke:#000000; stroke-opacity:1.0000;
stroke-linecap:round; stroke-linejoin:round;"
 transform="translate(0 0) scale(1 1)">
</g>
<g style="fill:none; 
stroke:#000000; stroke-width:0.0500; stroke-opacity:1; 
stroke-linecap:round; stroke-linejoin:round;">
<path d="M136.6893 121.8892
L142.2893 121.8892
" />
<path d="M136.6893 129.3892
L136.6893 121.8892
" />
<path d="M142.2893 121.8892
L142.2893 129.3892
" />
<path d="M142.2893 129.3892
L136.6893 129.3892
" />
<path d="M165.6893 111.0142
L171.2893 111.0142
" />
<path d="M165.6893 118.5142
L165.6893 111.0142
" />
<path d="M171.2893 111.0142
L171.2893 118.5142
" />
<path d="M171.2893 118.5142
L165.6893 118.5142
" />
<path d="M146.6893 121.6392
L152.2893 121.6392
" />
<path d="M146.6893 129.1392
L146.6893 121.6392
" />
<path d="M152.2893 121.6392
L152.2893 129.1392
" />
<path d="M152.2893 129.1392
L146.6893 129.1392
" />
<path d="M165.4393 91.8892
L171.0393 91.8892
" />
<path d="M165.4393 99.3892
L165.4393 91.8892
" />
<path d="M171.0393 91.8892
L171.0393 99.3892
" />
<path d="M171.0393 99.3892
L165.4393 99.3892
" />
<path d="M174.9393 91.7642
L180.5393 91.7642
" />
<path d="M174.9393 99.2642
L174.9393 91.7642
" />
<path d="M180.5393 91.7642
L180.5393 99.2642
" />
<path d="M180.5393 99.2642
L174.9393 99.2642
" />
<path d="M174.9393 100.8892
L180.5393 100.8892
" />
<path d="M174.9393 108.3892
L174.9393 100.8892
" />
<path d="M180.5393 100.8892
L180.5393 108.3892
" />
<path d="M180.5393 108.3892
L174.9393 108.3892
" />
<path d="M136.6893 111.2642
L142.2893 111.2642
" />
<path d="M136.6893 118.7642
L136.6893 111.2642
" />
<path d="M142.2893 111.2642
L142.2893 118.7642
" />
<path d="M142.2893 118.7642
L136.6893 118.7642
" />
<path d="M106.1893 92.2642
L111.7893 92.2642
" />
<path d="M106.1893 99.7642
L106.1893 92.2642
" />
<path d="M111.7893 92.2642
L111.7893 99.7642
" />
<path d="M111.7893 99.7642
L106.1893 99.7642
" />
<path d="M95.6893 112.0142
L101.2893 112.0142
" />
<path d="M95.6893 119.5142
L95.6893 112.0142
" />
<path d="M101.2893 112.0142
L101.2893 119.5142
" />
<path d="M101.2893 119.5142
L95.6893 119.5142
" />
<path d="M146.6893 111.1392
L152.2893 111.1392
" />
<path d="M146.6893 118.6392
L146.6893 111.1392
" />
<path d="M152.2893 111.1392
L152.2893 118.6392
" />
<path d="M152.2893 118.6392
L146.6893 118.6392
" />
<path d="M126.4393 121.8892
L132.0393 121.8892
" />
<path d="M126.4393 129.3892
L126.4393 121.8892
" />
<path d="M132.0393 121.8892
L132.0393 129.3892
" />
<path d="M132.0393 129.3892
L126.4393 129.3892
" />
<path d="M184.9393 101.1392
L190.5393 101.1392
" />
<path d="M184.9393 108.6392
L184.9393 101.1392
" />
<path d="M190.5393 101.1392
L190.5393 108.6392
" />
<path d="M190.5393 108.6392
L184.9393 108.6392
" />
<circle cx="94.0000" cy="88.5000" r="2.3500" /> 
<path d="M184.6893 91.7642
L190.2893 91.7642
" />
<path d="M184.6893 99.2642
L184.6893 91.7642
" />
<path d="M190.2893 91.7642
L190.2893 99.2642
" />
<path d="M190.2893 99.2642
L184.6893 99.2642
" />
<path d="M136.4393 92.1392
L142.0393 92.1392
" />
<path d="M136.4393 99.6392
L136.4393 92.1392
" />
<path d="M142.0393 92.1392
L142.0393 99.6392
" />
<path d="M142.0393 99.6392
L136.4393 99.6392
" />
<path d="M174.9393 111.1392
L180.5393 111.1392
" />
<path d="M174.9393 118.6392
L174.9393 111.1392
" />
<path d="M180.5393 111.1392
L180.5393 118.6392
" />
<path d="M180.5393 118.6392
L174.9393 118.6392
" />
<path d="M156.4393 110.8892
L162.0393 110.8892
" />
<path d="M156.4393 118.3892
L156.4393 110.8892
" />
<path d="M162.0393 110.8892
L162.0393 118.3892
" />
<path d="M162.0393 118.3892
L156.4393 118.3892
" />
<path d="M126.1893 111.3892
L131.7893 111.3892
" />
<path d="M126.1893 118.8892
L126.1893 111.3892
" />
<path d="M131.7893 111.3892
L131.7893 118.8892
" />
<path d="M131.7893 118.8892
L126.1893 118.8892
" />
<path d="M175.1893 121.3892
L180.7893 121.3892
" />
<path d="M175.1893 128.8892
L175.1893 121.3892
" />
<path d="M180.7893 121.3892
L180.7893 128.8892
" />
<path d="M180.7893 128.8892
L175.1893 128.8892
" />
<path d="M136.4393 101.3892
L142.0393 101.3892
" />
<path d="M136.4393 108.8892
L136.4393 101.3892
" />
<path d="M142.0393 101.3892
L142.0393 108.8892
" />
<path d="M142.0393 108.8892
L136.4393 108.8892
" />
<path d="M146.1893 101.1392
L151.7893 101.1392
" />
<path d="M146.1893 108.6392
L146.1893 101.1392
" />
<path d="M151.7893 101.1392
L151.7893 108.6392
" />
<path d="M151.7893 108.6392
L146.1893 108.6392
" />
<path d="M106.1893 112.0142
L111.7893 112.0142
" />
<path d="M106.1893 119.5142
L106.1893 112.0142
" />
<path d="M111.7893 112.0142
L111.7893 119.5142
" />
<path d="M111.7893 119.5142
L106.1893 119.5142
" />
<path d="M165.6893 121.5142
L171.2893 121.5142
" />
<path d="M165.6893 129.0142
L165.6893 121.5142
" />
<path d="M171.2893 121.5142
L171.2893 129.0142
" />
<path d="M171.2893 129.0142
L165.6893 129.0142
" />
<path d="M146.1893 91.8892
L151.7893 91.8892
" />
<path d="M146.1893 99.3892
L146.1893 91.8892
" />
<path d="M151.7893 91.8892
L151.7893 99.3892
" />
<path d="M151.7893 99.3892
L146.1893 99.3892
" />
<path d="M95.6893 102.5142
L101.2893 102.5142
" />
<path d="M95.6893 110.0142
L95.6893 102.5142
" />
<path d="M101.2893 102.5142
L101.2893 110.0142
" />
<path d="M101.2893 110.0142
L95.6893 110.0142
" />
<path d="M106.1893 121.8892
L111.7893 121.8892
" />
<path d="M106.1893 129.3892
L106.1893 121.8892
" />
<path d="M111.7893 121.8892
L111.7893 129.3892
" />
<path d="M111.7893 129.3892
L106.1893 129.3892
" />
<path d="M95.6893 121.5142
L101.2893 121.5142
" />
<path d="M95.6893 129.0142
L95.6893 121.5142
" />
<path d="M101.2893 121.5142
L101.2893 129.0142
" />
<path d="M101.2893 129.0142
L95.6893 129.0142
" />
<path d="M155.9393 91.8892
L161.5393 91.8892
" />
<path d="M155.9393 99.3892
L155.9393 91.8892
" />
<path d="M161.5393 91.8892
L161.5393 99.3892
" />
<path d="M161.5393 99.3892
L155.9393 99.3892
" />
<path d="M116.4393 111.3892
L122.0393 111.3892
" />
<path d="M116.4393 118.8892
L116.4393 111.3892
" />
<path d="M122.0393 111.3892
L122.0393 118.8892
" />
<path d="M122.0393 118.8892
L116.4393 118.8892
" />
<path d="M116.4393 121.8892
L122.0393 121.8892
" />
<path d="M116.4393 129.3892
L116.4393 121.8892
" />
<path d="M122.0393 121.8892
L122.0393 129.3892
" />
<path d="M122.0393 129.3892
L116.4393 129.3892
" />
<path d="M116.4393 101.8892
L122.0393 101.8892
" />
<path d="M116.4393 109.3892
L116.4393 101.8892
" />
<path d="M122.0393 101.8892
L122.0393 109.3892
" />
<path d="M122.0393 109.3892
L116.4393 109.3892
" />
<path d="M184.9393 121.3892
L190.5393 121.3892
" />
<path d="M184.9393 128.8892
L184.9393 121.3892
" />
<path d="M190.5393 121.3892
L190.5393 128.8892
" />
<path d="M190.5393 128.8892
L184.9393 128.8892
" />
<path d="M156.4393 121.5142
L162.0393 121.5142
" />
<path d="M156.4393 129.0142
L156.4393 121.5142
" />
<path d="M162.0393 121.5142
L162.0393 129.0142
" />
<path d="M162.0393 129.0142
L156.4393 129.0142
" />
<path d="M126.4393 92.2642
L132.0393 92.2642
" />
<path d="M126.4393 99.7642
L126.4393 92.2642
" />
<path d="M132.0393 92.2642
L132.0393 99.7642
" />
<path d="M132.0393 99.7642
L126.4393 99.7642
" />
<path d="M95.6893 92.2642
L101.2893 92.2642
" />
<path d="M95.6893 99.7642
L95.6893 92.2642
" />
<path d="M101.2893 92.2642
L101.2893 99.7642
" />
<path d="M101.2893 99.7642
L95.6893 99.7642
" />
<path d="M156.1893 100.8892
L161.7893 100.8892
" />
<path d="M156.1893 108.3892
L156.1893 100.8892
" />
<path d="M161.7893 100.8892
L161.7893 108.3892
" />
<path d="M161.7893 108.3892
L156.1893 108.3892
" />
<circle cx="226.5000" cy="89.0000" r="2.3500" /> 
<circle cx="226.5000" cy="146.0000" r="2.3500" /> 
<path d="M116.4393 92.1392
L122.0393 92.1392
" />
<path d="M116.4393 99.6392
L116.4393 92.1392
" />
<path d="M122.0393 92.1392
L122.0393 99.6392
" />
<path d="M122.0393 99.6392
L116.4393 99.6392
" />
<path d="M126.4393 101.6392
L132.0393 101.6392
" />
<path d="M126.4393 109.1392
L126.4393 101.6392
" />
<path d="M132.0393 101.6392
L132.0393 109.1392
" />
<path d="M132.0393 109.1392
L126.4393 109.1392
" />
<circle cx="94.0000" cy="136.0000" r="2.3500" /> 
<path d="M184.9393 111.1392
L190.5393 111.1392
" />
<path d="M184.9393 118.6392
L184.9393 111.1392
" />
<path d="M190.5393 111.1392
L190.5393 118.6392
" />
<path d="M190.5393 118.6392
L184.9393 118.6392
" />
<path d="M165.6893 100.8892
L171.2893 100.8892
" />
<path d="M165.6893 108.3892
L165.6893 100.8892
" />
<path d="M171.2893 100.8892
L171.2893 108.3892
" />
<path d="M171.2893 108.3892
L165.6893 108.3892
" />
<path d="M106.1893 102.5142
L111.7893 102.5142
" />
<path d="M106.1893 110.0142
L106.1893 102.5142
" />
<path d="M111.7893 102.5142
L111.7893 110.0142
" />
<path d="M111.7893 110.0142
L106.1893 110.0142
" />
</g> 
</svg>
